<?xml version="1.0" encoding="UTF-8" standalone="no"?>
<svg
   xmlns:dc="http://purl.org/dc/elements/1.1/"
   xmlns:cc="http://creativecommons.org/ns#"
   xmlns:rdf="http://www.w3.org/1999/02/22-rdf-syntax-ns#"
   xmlns:svg="http://www.w3.org/2000/svg"
   xmlns="http://www.w3.org/2000/svg"
   version="1.1"
   id="svg2"
   viewBox="0 0 744.09448819 1052.3622047"
   height="297mm"
   width="210mm">
  <defs
     id="defs4">
    <clipPath
       clipPathUnits="userSpaceOnUse"
       id="clipPath3350">
      <path
         d="M 0,205 477,205 477,0 0,0 0,205 Z"
         id="path3352" />
    </clipPath>
  </defs>
  <metadata
     id="metadata7">
    <rdf:RDF>
      <cc:Work
         rdf:about="">
        <dc:format>image/svg+xml</dc:format>
        <dc:type
           rdf:resource="http://purl.org/dc/dcmitype/StillImage" />
        <dc:title></dc:title>
      </cc:Work>
    </rdf:RDF>
  </metadata>
  <g
     id="layer1">
    <rect
       y="353.12723"
       x="75.092812"
       height="223.66425"
       width="574.24365"
       id="rect3443"
       style="fill:#ffffff" />
    <g
       id="g3344"
       transform="matrix(1.25,0,0,-1.25,60.926995,582.63015)">
      <g
         id="g3346">
        <g
           id="g3348"
           clip-path="url(#clipPath3350)">
          <g
             id="g3354"
             transform="translate(148.3906,73.7402)">
            <path
               d="m 0,0 c 0,-4.773 -3.869,-8.645 -8.648,-8.645 l -58.961,0 c -4.776,0 -8.647,3.872 -8.647,8.645 l 0,58.963 c 0,4.777 3.871,8.648 8.647,8.648 l 58.961,0 C -3.869,67.611 0,63.74 0,58.963 L 0,0 Z"
               style="fill:#7f8082;fill-opacity:1;fill-rule:evenodd;stroke:none"
               id="path3356" />
          </g>
          <g
             id="g3358"
             transform="translate(173.584,129.6279)">
            <path
               d="m 0,0 c -0.756,-0.28 -2.229,-0.667 -3.791,-0.667 -2,0 -3.527,0.51 -4.65,1.58 -1.053,1 -1.649,2.562 -1.649,4.352 0.018,3.755 2.666,6.14 6.58,6.14 1.455,0 2.596,-0.298 3.141,-0.56 L -0.844,9.107 c -0.648,0.298 -1.437,0.509 -2.683,0.509 -2.528,0 -4.299,-1.492 -4.299,-4.246 0,-2.685 1.648,-4.282 4.105,-4.282 0.789,0 1.352,0.105 1.631,0.227 l 0,2.967 -2.088,0 0,1.701 L 0,5.983 0,0 Z"
               style="fill:#05498d;fill-opacity:1;fill-rule:nonzero;stroke:none"
               id="path3360" />
          </g>
          <g
             id="g3362"
             transform="translate(179.6914,135.5234)">
            <path
               d="m 0,0 1.281,0 c 1.455,0 2.35,0.772 2.35,1.948 0,1.281 -0.895,1.896 -2.297,1.896 C 0.648,3.844 0.209,3.791 0,3.738 L 0,0 Z m -2.141,5.212 c 0.825,0.158 2.018,0.264 3.264,0.264 1.701,0 2.842,-0.281 3.648,-0.949 0.651,-0.543 1.02,-1.368 1.02,-2.386 0,-1.526 -1.037,-2.561 -2.16,-2.948 l 0,-0.052 C 4.492,-1.176 5,-2 5.281,-3.141 5.668,-4.614 5.982,-5.983 6.211,-6.439 l -2.211,0 c -0.176,0.351 -0.473,1.316 -0.789,2.79 -0.352,1.544 -0.895,2.036 -2.123,2.071 l -1.088,0 0,-4.861 -2.141,0 0,11.651 z"
               style="fill:#05498d;fill-opacity:1;fill-rule:nonzero;stroke:none"
               id="path3364" />
          </g>
          <g
             id="g3366"
             transform="translate(191.3613,140.9111)">
            <path
               d="m 0,0 0,-6.896 c 0,-2.316 0.965,-3.387 2.422,-3.387 1.56,0 2.49,1.071 2.49,3.387 l 0,6.896 2.158,0 0,-6.756 c 0,-3.649 -1.877,-5.265 -4.718,-5.265 -2.739,0 -4.51,1.528 -4.51,5.248 L -2.158,0 0,0 Z"
               style="fill:#05498d;fill-opacity:1;fill-rule:nonzero;stroke:none"
               id="path3368" />
          </g>
          <g
             id="g3370"
             transform="translate(204.8027,135.2607)">
            <path
               d="m 0,0 c 0.281,-0.088 0.615,-0.105 1.053,-0.105 1.615,0 2.597,0.807 2.597,2.176 0,1.316 -0.912,2 -2.404,2 C 0.65,4.071 0.229,4.019 0,3.966 L 0,0 Z m -2.141,5.492 c 0.789,0.141 1.86,0.246 3.299,0.246 1.58,0 2.721,-0.333 3.475,-0.966 0.701,-0.578 1.158,-1.508 1.158,-2.614 0,-1.123 -0.352,-2.035 -1,-2.667 C 3.914,-1.368 2.58,-1.79 1.053,-1.79 0.65,-1.79 0.299,-1.772 0,-1.702 l 0,-4.475 -2.141,0 0,11.669 z"
               style="fill:#05498d;fill-opacity:1;fill-rule:nonzero;stroke:none"
               id="path3372" />
          </g>
          <g
             id="g3374"
             transform="translate(215.8945,134.9629)">
            <path
               d="m 0,0 c 0,-2.422 1.211,-4.335 3.281,-4.335 2.088,0 3.264,1.948 3.264,4.423 0,2.228 -1.106,4.334 -3.264,4.334 C 1.141,4.422 0,2.438 0,0 m 8.826,0.157 c 0,-3.966 -2.404,-6.229 -5.65,-6.229 -3.352,0 -5.457,2.562 -5.457,6.019 0,3.65 2.299,6.211 5.633,6.211 3.439,0 5.474,-2.614 5.474,-6.001"
               style="fill:#05498d;fill-opacity:1;fill-rule:nonzero;stroke:none"
               id="path3376" />
          </g>
          <g
             id="g3378"
             transform="translate(176.7949,92.8564)">
            <path
               d="m 0,0 1.805,0 c 7.668,0 11.504,4.585 11.504,13.757 0,7.709 -3.334,11.558 -10.006,11.558 L 0,25.315 0,0 Z m 0,-3.626 0,-12.872 c 0,-3.241 0.227,-5.339 0.682,-6.292 0.453,-0.954 2.279,-1.429 5.476,-1.429 l 0,-3.625 -22.857,0 0,3.625 c 3.457,0 5.189,1.066 5.189,3.195 l 0.168,4.53 0,34.089 -0.168,4.561 c 0,1.909 -1.732,2.963 -5.189,3.159 l 0,3.629 16.715,0 3.062,0.032 3.297,0.134 2.699,0.067 c 10.385,0 15.578,-4.889 15.578,-14.672 0,-12.09 -7.195,-18.131 -21.586,-18.131 l -3.066,0 z"
               style="fill:#05498d;fill-opacity:1;fill-rule:nonzero;stroke:none"
               id="path3380" />
          </g>
          <g
             id="g3382"
             transform="translate(206.0059,65.0127)">
            <path
               d="m 0,0 0,3.625 c 3.459,0 5.189,1.065 5.189,3.194 l 0.168,4.531 0,34.088 L 5.189,50 c 0,2.108 -1.73,3.159 -5.189,3.159 l 0,3.629 22.059,0 0,-3.629 c -3.463,0 -5.194,-1.051 -5.194,-3.159 l -0.164,-4.562 0,-34.088 0.164,-4.531 c 0,-2.129 1.731,-3.194 5.194,-3.194 L 22.059,0 0,0 Z"
               style="fill:#05498d;fill-opacity:1;fill-rule:nonzero;stroke:none"
               id="path3384" />
          </g>
          <g
             id="g3386"
             transform="translate(271.9121,64.5439)">
            <path
               d="m 0,0 -28.414,38.787 0,-26.974 0.168,-4.527 c 0,-2.127 1.726,-3.192 5.185,-3.192 l 0,-3.625 -16.398,0 0,3.625 c 2.631,0 4.184,0.462 4.652,1.382 0.469,0.92 0.705,3.033 0.705,6.342 l 0,34.089 c 0,3.305 -0.236,5.421 -0.705,6.342 -0.468,0.922 -2.021,1.379 -4.652,1.379 l 0,3.629 11.045,0 L 0,18.472 0,45.904 -0.203,50.469 c 0,2.106 -1.721,3.159 -5.158,3.159 l 0,3.629 16.402,0 0,-3.629 c -3.439,0 -5.158,-1.051 -5.158,-3.159 L 5.684,45.907 5.684,0 0,0 Z"
               style="fill:#05498d;fill-opacity:1;fill-rule:nonzero;stroke:none"
               id="path3388" />
          </g>
          <g
             id="g3390"
             transform="translate(242.834,127.457)">
            <path
               d="m 0,0 -3.627,0 c 0,7.604 3.315,11.408 9.945,11.408 2.325,0 4.436,-0.541 6.319,-1.629 L 16.1,7.784 c 2.394,-1.397 4.181,-2.095 5.357,-2.095 3.236,0 5.025,1.905 5.355,5.719 l 3.627,0 C 30.439,3.804 27.125,0 20.49,0 18.164,0 16.055,0.543 14.17,1.641 L 10.709,3.649 C 8.314,5.031 6.529,5.723 5.355,5.723 2.115,5.723 0.332,3.814 0,0"
               style="fill:#05498d;fill-opacity:1;fill-rule:nonzero;stroke:none"
               id="path3392" />
          </g>
          <g
             id="g3394"
             transform="translate(286.5449,65.0127)">
            <path
               d="m 0,0 0,3.625 c 3.455,0 5.189,1.065 5.189,3.194 l 0.166,4.531 0,34.088 L 5.189,50 c 0,2.108 -1.734,3.159 -5.189,3.159 l 0,3.629 35.799,0 0,-9.98 -3.627,0 0,0.93 -0.068,2.532 c 0,1.928 -1.633,2.889 -4.899,2.889 l -10.504,0 0,-21.354 6.172,0 2.871,0.1 c 1.401,0 2.1,0.829 2.1,2.493 l 0,1.362 3.625,0 0,-11.342 -3.625,0 0,1.396 c 0,1.64 -0.699,2.461 -2.1,2.461 l -2.871,0.101 -6.172,0 0,-17.03 c 0,-3.107 0.178,-5.168 0.535,-6.192 0.354,-1.017 2.33,-1.529 5.932,-1.529 l 2.799,0 4.271,0.133 c 1.289,0 2.041,0.334 2.266,0.999 0.221,0.665 0.334,2.182 0.334,4.557 l 0,1.129 4.09,0 L 36.928,0 0,0 Z"
               style="fill:#05498d;fill-opacity:1;fill-rule:nonzero;stroke:none"
               id="path3396" />
          </g>
          <g
             id="g3398"
             transform="translate(343.7988,118.1719)">
            <path
               d="m 0,0 0,-23.65 1.807,0 c 7.16,0 10.738,4.309 10.738,12.925 C 12.545,-3.574 9.375,0 3.045,0 L 0,0 Z m -16.697,-53.159 0,3.625 c 3.455,0 5.187,1.065 5.187,3.194 l 0.164,4.53 0,34.089 -0.164,4.562 c 0,2.108 -1.732,3.159 -5.187,3.159 l 0,3.629 16.711,0 2.23,0.031 2.998,0.135 3.164,0.066 c 10.323,0 15.483,-4.604 15.483,-13.807 0,-7.455 -3.16,-12.578 -9.479,-15.374 l 7.738,-17.261 c 1.852,-4.126 3.827,-6.486 5.93,-7.085 l 0,-3.493 -12.92,0 -11.525,25.881 -3.633,0 0,-14.535 0.166,-4.529 c 0,-1.197 0.18,-1.977 0.551,-2.345 0.361,-0.366 1.635,-0.646 3.808,-0.847 l 0,-3.625 -21.222,0 z"
               style="fill:#05498d;fill-opacity:1;fill-rule:nonzero;stroke:none"
               id="path3400" />
          </g>
          <g
             id="g3402"
             transform="translate(395.0332,67.5049)">
            <path
               d="m 0,0 c 4.992,0 7.484,8.807 7.484,26.418 0,16.919 -2.541,25.383 -7.621,25.383 -5.056,0 -7.582,-8.618 -7.582,-25.849 C -7.719,8.65 -5.146,0 0,0 m -0.4,-3.856 c -6.012,0 -10.78,2.682 -14.305,8.048 -3.525,5.369 -5.289,12.61 -5.289,21.724 0,9.182 1.775,16.436 5.322,21.759 3.549,5.323 8.391,7.982 14.535,7.982 6.147,0 10.996,-2.655 14.557,-7.968 3.559,-5.307 5.338,-12.523 5.338,-21.639 0,-9.383 -1.783,-16.711 -5.356,-21.989 -3.57,-5.28 -8.504,-7.917 -14.802,-7.917"
               style="fill:#05498d;fill-opacity:1;fill-rule:nonzero;stroke:none"
               id="path3404" />
          </g>
          <g
             id="g3406"
             transform="translate(114.4707,90.2227)">
            <path
               d="m 0,0 c -0.135,0 -0.271,0.078 -0.334,0.213 -0.082,0.176 -0.021,0.387 0.148,0.486 0.381,0.224 0.819,0.514 1.311,0.908 3.236,2.581 4.762,5.832 4.539,9.666 -0.31,5.399 -4.871,9.795 -10.172,9.795 -0.306,0 -0.615,-0.013 -0.924,-0.045 -3.355,-0.312 -5.422,-2.223 -6.353,-3.33 -1.68,-1.996 -2.41,-4.234 -2.174,-6.658 0.422,-4.286 3.879,-7.522 8.041,-7.522 0.287,0 0.574,0.017 0.859,0.047 1.987,0.205 3.879,1.263 5.061,2.844 0.902,1.196 1.693,3.314 1.201,5.662 -0.521,2.521 -2.986,4.633 -5.482,4.7 l -0.008,0 c -2.129,0 -3.924,-1.034 -4.844,-2.7 -0.808,-1.462 -0.789,-3.142 0.065,-4.491 0.421,-0.68 1.679,-1.68 2.765,-1.767 0.098,-0.011 0.201,-0.011 0.299,-0.011 1.797,0 2.971,1.328 3.072,2.609 0.088,1.078 -0.57,1.854 -1.707,2.035 -0.144,-0.045 -0.025,-0.133 0.039,-0.185 0.715,-0.61 0.862,-1.321 0.485,-1.968 -0.293,-0.494 -0.922,-0.805 -1.647,-0.805 -0.617,0 -1.203,0.237 -1.601,0.652 -0.442,0.454 -0.655,1.085 -0.629,1.875 0.049,1.449 1.437,3.001 3.437,3.001 0.242,0 0.487,-0.021 0.733,-0.065 1.06,-0.196 2.076,-0.938 2.718,-1.992 0.709,-1.166 0.879,-2.536 0.477,-3.85 C -1.256,7.027 -3.029,5.579 -5.24,5.316 -5.465,5.296 -5.699,5.283 -5.928,5.283 c -1.715,0 -3.377,0.768 -4.576,2.104 -1.289,1.453 -1.894,3.405 -1.67,5.351 0.346,2.961 2.807,6.149 6.838,6.517 0.248,0.022 0.504,0.032 0.756,0.032 4.346,0 7.975,-3.33 8.437,-7.753 C 4.197,8.313 2.791,5.887 1.553,4.411 0.336,2.971 -1.84,1.209 -5.334,1.023 -5.512,1.014 -5.689,1.01 -5.865,1.01 c -4.983,0 -9.477,3.742 -10.461,8.71 -0.172,0.681 -0.184,1.101 -0.205,1.934 0.209,5.561 3.888,11.643 11.461,11.918 l 0.476,0.008 c 3.799,0 6.524,-1.609 8.139,-2.962 C 5.783,18.744 7.197,16.332 7.994,13.035 8.152,12.381 8.219,11.741 8.219,10.829 8.033,6.342 5.625,3.566 3.637,2.02 2.283,0.968 0.99,0.354 0.137,0.025 0.096,0.009 0.049,0 0,0 m 26.943,10.961 c -0.285,0.537 -0.652,1.164 -1.097,1.762 -1.076,1.434 -2.196,2.172 -4.467,2.271 -2.885,0.057 -4.442,-1.344 -6.02,-2.264 -1.281,-0.746 -2.433,-0.726 -3.14,-0.351 -0.215,0.109 -0.453,0.29 -0.53,0.541 -0.078,1.099 -0.267,2.167 -0.556,3.194 -0.061,0.509 0.494,0.525 0.57,0.537 1.039,0.138 2.301,0.491 2.943,0.781 1.145,0.519 2.598,1.689 3.668,2.533 1.055,0.847 2.264,1.617 3.52,1.957 0.689,0.187 1.852,0.18 2.775,0.133 0,0 0.453,0.018 0.557,0.302 0.092,0.247 -0.199,0.52 -0.277,0.595 -0.465,0.382 -1.045,0.825 -1.678,1.2 -1.551,0.92 -2.869,1.17 -5.004,0.396 -2.684,-1.052 -3.592,-2.94 -4.693,-4.399 -0.901,-1.176 -1.969,-1.6 -2.772,-1.523 -0.256,0.024 -0.58,0.111 -0.73,0.349 -0.457,0.904 -1.002,1.759 -1.617,2.552 -0.034,0.055 -0.059,0.096 -0.077,0.117 -0.267,0.458 0.25,0.69 0.317,0.731 0.904,0.525 1.933,1.338 2.418,1.852 0.857,0.91 1.754,2.548 2.418,3.742 0.65,1.179 1.48,2.355 2.508,3.156 0.564,0.436 1.644,0.872 2.511,1.184 l 0,0.002 c 0,0 0.41,0.186 0.403,0.488 -0.01,0.262 -0.389,0.403 -0.485,0.44 -0.578,0.18 -1.283,0.363 -2.015,0.47 -1.782,0.254 -3.096,-0.018 -4.766,-1.551 C 9.543,30.157 9.436,28.072 8.963,26.299 8.592,24.865 7.76,24.068 6.994,23.832 6.721,23.744 6.344,23.7 6.111,23.932 l 0,-0.017 c -0.726,0.616 -1.506,1.172 -2.34,1.655 -0.083,0.059 -0.142,0.102 -0.169,0.123 -0.428,0.321 -0.041,0.732 0.005,0.799 0.635,0.825 1.276,1.971 1.528,2.629 0.441,1.173 0.642,3.033 0.801,4.383 0.154,1.346 0.462,2.742 1.113,3.88 0.353,0.617 1.185,1.434 1.865,2.054 0,0 0.307,0.333 0.184,0.605 C 8.984,40.283 8.584,40.271 8.48,40.267 7.879,40.209 7.154,40.107 6.439,39.926 4.701,39.483 3.586,38.729 2.623,36.67 1.473,34.028 2.166,32.053 2.416,30.24 2.613,28.772 2.152,27.719 1.537,27.205 1.312,27.02 0.982,26.834 0.686,26.96 l 0.001,-0.017 c -0.873,0.282 -1.785,0.489 -2.72,0.619 -0.135,0.034 -0.237,0.055 -0.28,0.065 -0.515,0.135 -0.318,0.66 -0.296,0.738 0.271,1.009 0.425,2.315 0.404,3.016 -0.037,1.254 -0.563,3.051 -0.94,4.357 -0.371,1.3 -0.621,2.714 -0.455,4.01 0.088,0.705 0.545,1.781 0.938,2.612 0,0 0.156,0.424 -0.068,0.629 -0.194,0.173 -0.555,0.017 -0.645,-0.033 -0.539,-0.281 -1.17,-0.645 -1.758,-1.091 -1.441,-1.078 -2.181,-2.201 -2.277,-4.467 -0.061,-2.882 1.34,-4.442 2.262,-6.021 0.748,-1.279 0.726,-2.431 0.351,-3.141 -0.123,-0.234 -0.32,-0.521 -0.601,-0.568 -0.979,-0.072 -1.93,-0.234 -2.846,-0.473 -0.127,-0.02 -0.229,-0.033 -0.268,-0.043 -0.527,-0.074 -0.551,0.488 -0.558,0.573 -0.133,1.035 -0.494,2.298 -0.782,2.941 -0.515,1.143 -1.691,2.594 -2.535,3.656 -0.843,1.067 -1.613,2.278 -1.955,3.533 -0.187,0.686 -0.181,1.854 -0.135,2.776 0,0 -0.017,0.45 -0.298,0.552 -0.245,0.094 -0.52,-0.199 -0.592,-0.278 -0.387,-0.465 -0.826,-1.044 -1.205,-1.68 -0.916,-1.545 -1.17,-2.865 -0.391,-4.997 1.047,-2.69 2.936,-3.591 4.393,-4.697 1.179,-0.896 1.603,-1.969 1.527,-2.769 -0.025,-0.257 -0.09,-0.584 -0.314,-0.741 -0.873,-0.435 -1.704,-0.957 -2.479,-1.543 -0.107,-0.062 -0.191,-0.119 -0.227,-0.139 -0.457,-0.271 -0.691,0.243 -0.73,0.318 -0.525,0.904 -1.336,1.935 -1.848,2.412 -0.918,0.863 -2.554,1.759 -3.746,2.42 -1.183,0.654 -2.359,1.481 -3.156,2.508 -0.428,0.56 -0.873,1.644 -1.184,2.516 0,0 -0.189,0.407 -0.492,0.392 -0.261,-0.01 -0.402,-0.376 -0.437,-0.477 -0.184,-0.581 -0.364,-1.285 -0.467,-2.018 -0.264,-1.773 0.014,-3.094 1.545,-4.77 2,-2.076 4.09,-2.191 5.859,-2.659 1.434,-0.372 2.233,-1.2 2.469,-1.973 0.078,-0.237 0.139,-0.552 0,-0.783 -0.662,-0.766 -1.254,-1.59 -1.768,-2.471 -0.039,-0.062 -0.076,-0.109 -0.089,-0.136 -0.325,-0.424 -0.737,-0.042 -0.801,0.011 -0.828,0.635 -1.971,1.279 -2.633,1.524 -1.172,0.447 -3.029,0.65 -4.379,0.798 -1.35,0.155 -2.75,0.464 -3.879,1.112 -0.619,0.354 -1.441,1.185 -2.053,1.871 0,0 -0.336,0.306 -0.611,0.18 -0.236,-0.112 -0.225,-0.509 -0.219,-0.616 0.051,-0.602 0.155,-1.322 0.334,-2.045 0.446,-1.738 1.2,-2.848 3.26,-3.807 2.641,-1.157 4.613,-0.46 6.424,-0.212 1.475,0.201 2.529,-0.261 3.039,-0.881 0.145,-0.176 0.311,-0.42 0.309,-0.661 -0.34,-1.005 -0.582,-2.055 -0.719,-3.131 -0.004,-0.021 -0.008,-0.04 -0.012,-0.056 -0.135,-0.516 -0.662,-0.319 -0.734,-0.297 -1.014,0.27 -2.317,0.424 -3.022,0.406 -1.25,-0.038 -3.051,-0.564 -4.351,-0.94 -1.301,-0.375 -2.717,-0.618 -4.012,-0.455 -0.703,0.089 -1.779,0.546 -2.611,0.934 0,0 -0.424,0.157 -0.629,-0.06 -0.18,-0.192 -0.02,-0.558 0.029,-0.651 0.279,-0.541 0.65,-1.168 1.092,-1.761 1.074,-1.438 2.203,-2.18 4.473,-2.276 2.878,-0.057 4.433,1.344 6.015,2.264 1.281,0.745 2.432,0.725 3.145,0.351 0.195,-0.103 0.431,-0.256 0.529,-0.475 0.07,-1.138 0.264,-2.239 0.559,-3.294 0.021,-0.472 -0.497,-0.493 -0.577,-0.502 -1.037,-0.14 -2.298,-0.494 -2.939,-0.781 -1.147,-0.521 -2.604,-1.69 -3.666,-2.537 -1.061,-0.844 -2.268,-1.615 -3.527,-1.953 -0.686,-0.189 -1.852,-0.184 -2.778,-0.136 0,0 -0.445,-0.017 -0.554,-0.3 -0.088,-0.246 0.197,-0.522 0.279,-0.588 0.465,-0.391 1.047,-0.83 1.683,-1.207 1.547,-0.918 2.862,-1.17 5.002,-0.39 2.682,1.047 3.586,2.938 4.692,4.389 0.9,1.181 1.967,1.602 2.771,1.525 0.205,-0.012 0.463,-0.066 0.633,-0.206 0.51,-1.036 1.121,-2.003 1.832,-2.898 0.16,-0.403 -0.291,-0.605 -0.355,-0.643 -0.911,-0.523 -1.94,-1.339 -2.424,-1.853 -0.854,-0.908 -1.754,-2.552 -2.412,-3.738 -0.658,-1.184 -1.483,-2.356 -2.512,-3.158 -0.563,-0.434 -1.641,-0.875 -2.514,-1.185 0,0 -0.406,-0.189 -0.396,-0.491 0.01,-0.256 0.385,-0.406 0.48,-0.439 0.58,-0.18 1.285,-0.362 2.018,-0.471 1.777,-0.254 3.092,0.016 4.767,1.552 2.081,1.998 2.19,4.092 2.657,5.858 0.377,1.434 1.205,2.23 1.974,2.469 0.198,0.061 0.444,0.115 0.655,0.056 0.863,-0.767 1.814,-1.442 2.836,-2.009 0.257,-0.301 -0.061,-0.647 -0.106,-0.704 -0.641,-0.831 -1.277,-1.972 -1.527,-2.633 -0.444,-1.171 -0.641,-3.031 -0.799,-4.382 -0.152,-1.346 -0.467,-2.744 -1.111,-3.879 -0.354,-0.614 -1.188,-1.433 -1.87,-2.053 0,0 -0.302,-0.334 -0.181,-0.608 0.109,-0.234 0.51,-0.227 0.615,-0.222 0.6,0.055 1.324,0.16 2.041,0.336 1.742,0.443 2.856,1.201 3.811,3.258 1.162,2.642 0.461,4.619 0.214,6.427 -0.195,1.468 0.26,2.522 0.879,3.039 0.149,0.126 0.342,0.258 0.551,0.297 1.098,-0.377 2.242,-0.636 3.43,-0.771 0.342,-0.186 0.181,-0.615 0.164,-0.686 -0.272,-1.01 -0.422,-2.313 -0.406,-3.017 0.043,-1.259 0.566,-3.045 0.939,-4.354 0.375,-1.302 0.623,-2.717 0.459,-4.011 -0.092,-0.704 -0.543,-1.778 -0.941,-2.612 0,0 -0.155,-0.423 0.066,-0.627 0.191,-0.174 0.561,-0.014 0.652,0.033 0.536,0.282 1.17,0.647 1.758,1.091 1.436,1.073 2.18,2.197 2.278,4.469 0.056,2.88 -1.34,4.438 -2.264,6.017 -0.748,1.279 -0.729,2.43 -0.352,3.143 0.1,0.187 0.248,0.392 0.444,0.488 1.183,0.072 2.326,0.277 3.425,0.597 0.377,-0.053 0.395,-0.504 0.403,-0.574 0.137,-1.037 0.492,-2.295 0.783,-2.941 0.518,-1.139 1.684,-2.598 2.535,-3.663 0.842,-1.058 1.613,-2.274 1.951,-3.528 0.188,-0.688 0.18,-1.85 0.137,-2.776 0,0 0.018,-0.447 0.301,-0.554 0.244,-0.087 0.519,0.2 0.586,0.276 0.392,0.466 0.83,1.049 1.211,1.685 0.918,1.545 1.168,2.866 0.388,4.997 -1.05,2.684 -2.937,3.588 -4.392,4.699 -1.182,0.893 -1.598,1.967 -1.528,2.762 0.018,0.211 0.079,0.455 0.221,0.625 1.041,0.512 2.022,1.132 2.918,1.854 0.381,0.124 0.574,-0.305 0.613,-0.367 0.522,-0.909 1.334,-1.934 1.848,-2.418 0.914,-0.86 2.555,-1.757 3.74,-2.417 1.192,-0.655 2.362,-1.477 3.157,-2.511 0.435,-0.56 0.877,-1.643 1.191,-2.514 l 0,0.006 c 0,0 0.186,-0.412 0.484,-0.401 0.264,0.009 0.409,0.383 0.442,0.481 0.179,0.58 0.365,1.285 0.47,2.017 0.258,1.778 -0.017,3.096 -1.552,4.766 -1.992,2.082 -4.086,2.195 -5.854,2.656 -1.435,0.383 -2.234,1.207 -2.469,1.975 -0.062,0.201 -0.105,0.469 -0.027,0.68 0.75,0.857 1.402,1.8 1.961,2.802 0.311,0.282 0.668,-0.051 0.723,-0.097 0.832,-0.637 1.972,-1.278 2.633,-1.521 1.169,-0.449 3.033,-0.653 4.378,-0.804 1.348,-0.155 2.75,-0.465 3.883,-1.113 0.615,-0.35 1.436,-1.183 2.053,-1.861 0,0 0.332,-0.311 0.607,-0.184 0.233,0.108 0.227,0.508 0.223,0.614 -0.057,0.603 -0.154,1.322 -0.342,2.044 -0.439,1.736 -1.195,2.848 -3.254,3.813 -2.64,1.15 -4.619,0.455 -6.427,0.209 -1.473,-0.201 -2.526,0.258 -3.036,0.879 -0.146,0.169 -0.285,0.396 -0.285,0.629 0.352,1.049 0.598,2.146 0.725,3.279 0.162,0.438 0.648,0.254 0.721,0.235 1.007,-0.27 2.31,-0.425 3.019,-0.403 1.25,0.04 3.045,0.563 4.346,0.94 1.305,0.371 2.722,0.619 4.014,0.457 0.701,-0.096 1.773,-0.549 2.613,-0.942 0,0 0.424,-0.157 0.629,0.064 0.177,0.194 0.015,0.559 -0.028,0.655"
               style="fill:#ffffff;fill-opacity:1;fill-rule:evenodd;stroke:none"
               id="path3408" />
          </g>
        </g>
      </g>
    </g>
  </g>
</svg>
