<?xml version="1.0" encoding="UTF-8"?>
<svg width="86px" height="21px" viewBox="0 0 86 21" version="1.1" xmlns="http://www.w3.org/2000/svg" xmlns:xlink="http://www.w3.org/1999/xlink">
    <!-- Generator: Sketch 52.2 (67145) - http://www.bohemiancoding.com/sketch -->
    <title>grupo-pinero_white</title>
    <desc>Created with Sketch.</desc>
    <g id="grupo-pinero_white" stroke="none" stroke-width="1" fill="none" fill-rule="evenodd">
        <path d="M19.06,17.61 C19.06,18.796 18.099,19.755 16.913,19.755 L2.28,19.755 C1.095,19.755 0.134,18.796 0.134,17.61 L0.134,2.977 C0.134,1.792 1.095,0.832 2.28,0.832 L16.913,0.832 C18.099,0.832 19.06,1.792 19.06,2.977 L19.06,17.61 Z M10.641,13.52 C10.608,13.52 10.574,13.501 10.559,13.467 C10.538,13.424 10.553,13.371 10.595,13.347 C10.69,13.292 10.798,13.22 10.92,13.122 C11.723,12.482 12.102,11.676 12.047,10.723 C11.97,9.382 10.838,8.291 9.522,8.291 C9.446,8.291 9.369,8.294 9.293,8.302 C8.461,8.38 7.947,8.853 7.717,9.13 C7.3,9.624 7.118,10.18 7.177,10.781 C7.281,11.844 8.139,12.648 9.172,12.648 C9.243,12.648 9.315,12.645 9.386,12.637 C9.879,12.585 10.348,12.322 10.642,11.931 C10.866,11.633 11.062,11.109 10.939,10.525 C10.811,9.9 10.198,9.376 9.579,9.36 L9.577,9.36 C9.048,9.36 8.603,9.616 8.376,10.029 C8.174,10.391 8.18,10.808 8.391,11.144 C8.496,11.313 8.808,11.56 9.077,11.583 C9.101,11.586 9.128,11.586 9.151,11.586 C9.598,11.586 9.889,11.257 9.914,10.937 C9.936,10.67 9.772,10.477 9.49,10.432 C9.454,10.444 9.484,10.467 9.5,10.479 C9.678,10.63 9.714,10.807 9.621,10.966 C9.548,11.09 9.391,11.167 9.212,11.167 C9.059,11.167 8.913,11.109 8.813,11.004 C8.705,10.892 8.652,10.736 8.658,10.541 C8.671,10.18 9.015,9.794 9.512,9.794 C9.571,9.794 9.632,9.8 9.692,9.811 C9.956,9.859 10.208,10.043 10.367,10.305 C10.544,10.594 10.585,10.934 10.486,11.262 C10.329,11.776 9.89,12.135 9.34,12.2 C9.285,12.206 9.227,12.209 9.17,12.209 C8.744,12.209 8.331,12.018 8.034,11.687 C7.714,11.327 7.564,10.843 7.619,10.359 C7.706,9.624 8.317,8.833 9.316,8.742 C9.378,8.735 9.442,8.733 9.504,8.733 C10.583,8.733 11.483,9.56 11.599,10.657 C11.683,11.457 11.334,12.06 11.026,12.426 C10.725,12.784 10.185,13.22 9.317,13.267 C9.274,13.267 9.229,13.269 9.186,13.269 C7.949,13.269 6.833,12.341 6.589,11.109 C6.547,10.939 6.544,10.834 6.538,10.628 C6.59,9.248 7.504,7.738 9.383,7.67 L9.501,7.668 C10.444,7.668 11.119,8.067 11.52,8.404 C12.076,8.869 12.427,9.466 12.625,10.285 C12.664,10.448 12.682,10.606 12.682,10.833 C12.635,11.946 12.037,12.635 11.543,13.02 C11.207,13.28 10.887,13.432 10.675,13.515 C10.665,13.518 10.653,13.52 10.641,13.52 Z M17.328,10.8 C17.257,10.666 17.166,10.512 17.056,10.362 C16.788,10.007 16.511,9.823 15.946,9.8 C15.232,9.786 14.845,10.132 14.452,10.36 C14.135,10.546 13.849,10.541 13.673,10.448 C13.62,10.421 13.561,10.376 13.542,10.314 C13.523,10.041 13.476,9.777 13.404,9.521 C13.389,9.394 13.526,9.39 13.546,9.388 C13.803,9.353 14.117,9.265 14.276,9.193 C14.56,9.064 14.921,8.774 15.187,8.565 C15.448,8.356 15.748,8.164 16.06,8.08 C16.231,8.033 16.52,8.035 16.749,8.047 C16.749,8.047 16.861,8.042 16.887,7.972 C16.909,7.911 16.838,7.843 16.819,7.824 C16.702,7.729 16.559,7.62 16.401,7.525 C16.017,7.298 15.69,7.235 15.16,7.43 C14.494,7.69 14.268,8.157 13.994,8.52 C13.772,8.81 13.506,8.917 13.307,8.898 C13.243,8.891 13.162,8.871 13.126,8.81 C13.013,8.586 12.877,8.375 12.724,8.177 C12.717,8.164 12.71,8.153 12.706,8.148 C12.639,8.035 12.767,7.978 12.784,7.966 C13.009,7.837 13.264,7.635 13.384,7.507 C13.597,7.281 13.819,6.875 13.984,6.578 C14.147,6.286 14.352,5.994 14.606,5.795 C14.747,5.687 15.015,5.579 15.231,5.502 C15.231,5.502 15.331,5.456 15.329,5.38 C15.327,5.314 15.233,5.28 15.209,5.271 C15.067,5.226 14.891,5.181 14.709,5.153 C14.267,5.092 13.942,5.158 13.526,5.54 C13.01,6.036 12.983,6.554 12.865,6.993 C12.773,7.349 12.566,7.548 12.377,7.606 C12.31,7.628 12.215,7.638 12.157,7.582 L12.157,7.586 C11.977,7.432 11.784,7.294 11.577,7.175 C11.557,7.16 11.541,7.149 11.535,7.144 C11.429,7.065 11.524,6.963 11.536,6.945 C11.694,6.741 11.853,6.456 11.916,6.293 C12.024,6.003 12.075,5.54 12.114,5.205 C12.152,4.872 12.229,4.525 12.391,4.242 C12.479,4.09 12.685,3.886 12.854,3.732 C12.854,3.732 12.93,3.649 12.9,3.582 C12.871,3.523 12.772,3.526 12.746,3.527 C12.597,3.542 12.416,3.566 12.239,3.611 C11.808,3.72 11.531,3.909 11.292,4.419 C11.006,5.074 11.179,5.565 11.241,6.015 C11.289,6.379 11.175,6.641 11.022,6.768 C10.967,6.814 10.885,6.861 10.811,6.828 L10.813,6.834 C10.595,6.764 10.368,6.712 10.137,6.681 C10.103,6.673 10.077,6.667 10.066,6.664 C9.94,6.63 9.988,6.501 9.993,6.481 C10.061,6.231 10.1,5.907 10.094,5.731 C10.085,5.421 9.954,4.974 9.86,4.65 C9.769,4.328 9.706,3.978 9.748,3.657 C9.77,3.481 9.883,3.214 9.981,3.007 C9.981,3.007 10.02,2.902 9.963,2.851 C9.916,2.807 9.826,2.848 9.804,2.86 C9.67,2.93 9.514,3.019 9.367,3.131 C9.01,3.397 8.826,3.676 8.803,4.238 C8.786,4.954 9.135,5.343 9.362,5.733 C9.55,6.051 9.544,6.336 9.451,6.512 C9.42,6.571 9.371,6.641 9.302,6.653 C9.059,6.673 8.822,6.712 8.595,6.771 C8.564,6.777 8.538,6.779 8.528,6.782 C8.397,6.8 8.392,6.66 8.39,6.639 C8.358,6.382 8.268,6.068 8.196,5.91 C8.068,5.625 7.776,5.265 7.567,5.003 C7.357,4.738 7.166,4.437 7.082,4.125 C7.035,3.956 7.037,3.666 7.049,3.437 C7.049,3.437 7.044,3.324 6.974,3.3 C6.913,3.276 6.846,3.348 6.827,3.369 C6.731,3.484 6.622,3.629 6.528,3.786 C6.301,4.17 6.237,4.496 6.432,5.026 C6.691,5.692 7.16,5.917 7.522,6.191 C7.814,6.413 7.919,6.681 7.901,6.878 C7.894,6.941 7.878,7.022 7.822,7.061 C7.605,7.17 7.399,7.301 7.208,7.446 C7.18,7.46 7.16,7.476 7.151,7.48 C7.038,7.548 6.979,7.419 6.97,7.401 C6.84,7.177 6.639,6.921 6.512,6.802 C6.283,6.588 5.877,6.367 5.582,6.202 C5.287,6.041 4.996,5.835 4.798,5.579 C4.691,5.44 4.582,5.173 4.505,4.954 C4.505,4.954 4.457,4.853 4.382,4.856 C4.317,4.86 4.282,4.951 4.274,4.976 C4.228,5.119 4.184,5.294 4.157,5.476 C4.093,5.917 4.161,6.245 4.541,6.66 C5.038,7.177 5.557,7.204 5.996,7.321 C6.352,7.412 6.55,7.618 6.608,7.81 C6.628,7.868 6.643,7.947 6.608,8.004 C6.444,8.194 6.297,8.399 6.17,8.618 C6.16,8.632 6.15,8.646 6.146,8.651 C6.067,8.758 5.964,8.661 5.948,8.649 C5.743,8.491 5.46,8.332 5.295,8.27 C5.004,8.16 4.543,8.109 4.208,8.073 C3.874,8.033 3.525,7.958 3.245,7.797 C3.092,7.709 2.888,7.503 2.736,7.333 C2.736,7.333 2.653,7.256 2.584,7.288 C2.525,7.314 2.528,7.414 2.53,7.441 C2.542,7.59 2.569,7.77 2.612,7.947 C2.724,8.38 2.91,8.654 3.422,8.894 C4.077,9.18 4.567,9.007 5.016,8.946 C5.383,8.896 5.645,9.009 5.771,9.164 C5.807,9.207 5.847,9.27 5.847,9.327 C5.763,9.578 5.702,9.837 5.669,10.104 C5.668,10.11 5.667,10.115 5.666,10.119 C5.633,10.247 5.502,10.197 5.483,10.192 C5.232,10.126 4.908,10.087 4.734,10.091 C4.424,10.102 3.977,10.231 3.654,10.326 C3.331,10.419 2.98,10.479 2.658,10.437 C2.483,10.416 2.216,10.303 2.01,10.206 C2.01,10.206 1.905,10.167 1.855,10.222 C1.81,10.269 1.849,10.36 1.861,10.383 C1.931,10.516 2.024,10.672 2.132,10.82 C2.4,11.177 2.679,11.361 3.242,11.385 C3.957,11.399 4.343,11.051 4.735,10.822 C5.053,10.636 5.339,10.642 5.516,10.736 C5.565,10.762 5.622,10.8 5.647,10.853 C5.664,11.137 5.713,11.409 5.786,11.67 C5.791,11.789 5.662,11.794 5.643,11.796 C5.385,11.831 5.072,11.919 4.913,11.989 C4.629,12.12 4.268,12.41 4.004,12.619 C3.74,12.829 3.44,13.02 3.128,13.104 C2.958,13.151 2.668,13.149 2.438,13.138 C2.438,13.138 2.328,13.142 2.301,13.213 C2.278,13.273 2.35,13.342 2.37,13.357 C2.485,13.455 2.63,13.563 2.788,13.657 C3.171,13.886 3.498,13.947 4.029,13.754 C4.695,13.494 4.919,13.024 5.194,12.666 C5.418,12.372 5.682,12.267 5.882,12.286 C5.933,12.29 5.997,12.304 6.039,12.337 C6.165,12.595 6.316,12.836 6.493,13.057 C6.532,13.156 6.421,13.206 6.405,13.216 C6.18,13.347 5.924,13.55 5.804,13.677 C5.592,13.901 5.368,14.31 5.205,14.604 C5.041,14.898 4.837,15.188 4.582,15.388 C4.442,15.496 4.174,15.605 3.958,15.682 C3.958,15.682 3.858,15.729 3.859,15.802 C3.861,15.868 3.954,15.904 3.978,15.913 C4.122,15.957 4.297,16.004 4.48,16.029 C4.92,16.093 5.246,16.026 5.662,15.645 C6.179,15.149 6.206,14.629 6.321,14.191 C6.415,13.834 6.621,13.636 6.812,13.577 C6.86,13.563 6.922,13.55 6.974,13.563 C7.189,13.754 7.425,13.922 7.678,14.063 C7.742,14.137 7.663,14.223 7.652,14.237 C7.493,14.443 7.335,14.726 7.272,14.889 C7.162,15.181 7.113,15.644 7.074,15.977 C7.037,16.313 6.959,16.659 6.799,16.94 C6.711,17.093 6.504,17.296 6.335,17.45 C6.335,17.45 6.26,17.534 6.289,17.602 C6.316,17.66 6.416,17.658 6.442,17.656 C6.592,17.642 6.771,17.617 6.949,17.574 C7.382,17.464 7.657,17.275 7.895,16.765 C8.183,16.108 8.009,15.617 7.948,15.17 C7.899,14.805 8.013,14.543 8.166,14.414 C8.203,14.385 8.251,14.35 8.303,14.34 C8.574,14.434 8.859,14.5 9.154,14.533 C9.239,14.579 9.198,14.685 9.194,14.703 C9.128,14.953 9.09,15.277 9.094,15.453 C9.105,15.764 9.234,16.208 9.327,16.532 C9.42,16.854 9.481,17.207 9.442,17.527 C9.418,17.703 9.306,17.969 9.207,18.177 C9.207,18.177 9.169,18.281 9.224,18.331 C9.272,18.376 9.362,18.334 9.386,18.324 C9.519,18.254 9.676,18.163 9.822,18.052 C10.179,17.787 10.363,17.507 10.387,16.944 C10.4,16.228 10.055,15.843 9.825,15.451 C9.64,15.134 9.645,14.847 9.738,14.67 C9.763,14.624 9.8,14.574 9.848,14.55 C10.142,14.531 10.425,14.479 10.697,14.4 C10.792,14.414 10.796,14.526 10.798,14.543 C10.832,14.801 10.92,15.113 10.992,15.274 C11.12,15.555 11.41,15.918 11.621,16.183 C11.83,16.444 12.022,16.747 12.105,17.059 C12.152,17.229 12.15,17.517 12.14,17.747 C12.14,17.747 12.144,17.857 12.215,17.885 C12.275,17.907 12.344,17.835 12.36,17.816 C12.457,17.701 12.566,17.556 12.66,17.397 C12.889,17.015 12.95,16.687 12.757,16.158 C12.496,15.492 12.028,15.267 11.667,14.991 C11.373,14.769 11.27,14.504 11.287,14.306 C11.292,14.253 11.307,14.193 11.343,14.15 C11.602,14.024 11.845,13.87 12.067,13.692 C12.161,13.661 12.209,13.767 12.219,13.781 C12.349,14.008 12.551,14.262 12.678,14.382 C12.904,14.595 13.312,14.817 13.605,14.982 C13.901,15.143 14.191,15.347 14.39,15.605 C14.497,15.744 14.606,16.012 14.685,16.228 L14.685,16.226 C14.685,16.226 14.73,16.33 14.805,16.328 C14.87,16.324 14.906,16.232 14.914,16.208 C14.959,16.063 15.006,15.888 15.03,15.707 C15.095,15.265 15.026,14.939 14.646,14.524 C14.151,14.008 13.632,13.978 13.193,13.865 C12.837,13.77 12.639,13.564 12.58,13.374 C12.565,13.324 12.555,13.26 12.574,13.206 C12.76,12.993 12.922,12.759 13.061,12.51 C13.138,12.44 13.226,12.523 13.24,12.535 C13.446,12.693 13.729,12.852 13.893,12.913 C14.184,13.024 14.646,13.074 14.98,13.111 C15.315,13.151 15.663,13.226 15.943,13.387 C16.096,13.476 16.3,13.681 16.453,13.849 C16.453,13.849 16.535,13.927 16.604,13.896 C16.661,13.869 16.66,13.77 16.659,13.743 C16.645,13.594 16.62,13.416 16.573,13.235 C16.465,12.804 16.277,12.53 15.767,12.29 C15.11,12.005 14.62,12.177 14.171,12.238 C13.806,12.288 13.545,12.172 13.418,12.02 C13.382,11.977 13.347,11.921 13.347,11.864 C13.435,11.603 13.495,11.33 13.527,11.048 C13.567,10.94 13.688,10.987 13.706,10.992 C13.956,11.059 14.279,11.097 14.455,11.092 C14.766,11.081 15.211,10.953 15.533,10.858 C15.858,10.765 16.209,10.704 16.53,10.745 C16.704,10.77 16.97,10.881 17.178,10.978 C17.178,10.978 17.284,11.017 17.335,10.963 C17.379,10.915 17.338,10.824 17.328,10.8 Z" id="Combined-Shape" fill="#FFFFFF"></path>
        <path d="M25.312,3.741 C25.124,3.81 24.759,3.906 24.371,3.906 C23.874,3.906 23.495,3.779 23.217,3.515 C22.956,3.266 22.807,2.879 22.807,2.434 C22.811,1.503 23.469,0.911 24.442,0.911 C24.802,0.911 25.085,0.984 25.22,1.05 L25.102,1.48 C24.941,1.406 24.746,1.354 24.437,1.354 C23.809,1.354 23.369,1.725 23.369,2.408 C23.369,3.075 23.778,3.472 24.389,3.472 C24.584,3.472 24.724,3.444 24.793,3.414 L24.793,2.678 L24.275,2.678 L24.275,2.256 L25.312,2.256 L25.312,3.741" id="Fill-2" fill="#FFFFFF"></path>
        <path d="M26.828,2.277 L27.145,2.277 C27.506,2.277 27.729,2.086 27.729,1.795 C27.729,1.477 27.506,1.323 27.158,1.323 C26.988,1.323 26.879,1.336 26.828,1.35 L26.828,2.277 Z M26.296,0.984 C26.501,0.945 26.797,0.919 27.106,0.919 C27.528,0.919 27.811,0.989 28.012,1.153 C28.173,1.289 28.265,1.494 28.265,1.746 C28.265,2.125 28.007,2.383 27.729,2.478 L27.729,2.491 C27.942,2.569 28.069,2.774 28.138,3.056 C28.234,3.423 28.312,3.764 28.369,3.877 L27.82,3.877 C27.777,3.788 27.703,3.55 27.624,3.183 C27.537,2.801 27.402,2.678 27.098,2.67 L26.828,2.67 L26.828,3.877 L26.296,3.877 L26.296,0.984 Z" id="Fill-3" fill="#FFFFFF"></path>
        <path d="M29.724,0.94 L29.724,2.652 C29.724,3.226 29.964,3.493 30.325,3.493 C30.712,3.493 30.942,3.226 30.942,2.652 L30.942,0.94 L31.479,0.94 L31.479,2.617 C31.479,3.523 31.013,3.925 30.308,3.925 C29.628,3.925 29.188,3.545 29.188,2.622 L29.188,0.94 L29.724,0.94" id="Fill-4" fill="#FFFFFF"></path>
        <path d="M33.06,2.343 C33.129,2.365 33.212,2.369 33.321,2.369 C33.722,2.369 33.966,2.169 33.966,1.829 C33.966,1.503 33.739,1.332 33.368,1.332 C33.221,1.332 33.116,1.345 33.06,1.358 L33.06,2.343 Z M32.528,0.98 C32.724,0.945 32.989,0.919 33.347,0.919 C33.739,0.919 34.023,1.002 34.209,1.159 C34.383,1.303 34.496,1.533 34.496,1.807 C34.496,2.086 34.409,2.312 34.249,2.468 C34.031,2.683 33.699,2.787 33.321,2.787 C33.221,2.787 33.134,2.783 33.06,2.766 L33.06,3.877 L32.528,3.877 L32.528,0.98 Z" id="Fill-5" fill="#FFFFFF"></path>
        <path d="M35.812,2.417 C35.812,3.017 36.112,3.493 36.626,3.493 C37.146,3.493 37.436,3.008 37.436,2.395 C37.436,1.842 37.163,1.32 36.626,1.32 C36.095,1.32 35.812,1.811 35.812,2.417 M38.002,2.378 C38.002,3.362 37.406,3.922 36.601,3.922 C35.769,3.922 35.246,3.289 35.246,2.43 C35.246,1.525 35.816,0.888 36.644,0.888 C37.497,0.888 38.002,1.538 38.002,2.378" id="Fill-6" fill="#FFFFFF"></path>
        <path d="M26.108,12.866 L26.557,12.866 C28.459,12.866 29.412,11.728 29.412,9.453 C29.412,7.539 28.584,6.583 26.929,6.583 L26.108,6.583 L26.108,12.866 Z M26.108,13.767 L26.108,16.961 C26.108,17.767 26.164,18.286 26.278,18.521 C26.39,18.759 26.844,18.877 27.637,18.877 L27.637,19.777 L21.965,19.777 L21.965,18.877 C22.822,18.877 23.252,18.612 23.252,18.084 L23.294,16.96 L23.294,8.5 L23.252,7.367 C23.252,6.893 22.822,6.633 21.965,6.583 L21.965,5.684 L26.112,5.684 L26.872,5.675 L27.69,5.642 L28.36,5.625 C30.937,5.625 32.228,6.839 32.228,9.267 C32.228,12.267 30.44,13.767 26.869,13.767 L26.108,13.767 Z" id="Fill-7" fill="#FFFFFF"></path>
        <path d="M33.357,19.777 L33.357,18.877 C34.217,18.877 34.646,18.612 34.646,18.084 L34.687,16.961 L34.687,8.5 L34.646,7.369 C34.646,6.844 34.217,6.583 33.357,6.583 L33.357,5.684 L38.832,5.684 L38.832,6.583 C37.973,6.583 37.543,6.844 37.543,7.369 L37.503,8.5 L37.503,16.961 L37.543,18.084 C37.543,18.612 37.973,18.877 38.832,18.877 L38.832,19.777 L33.357,19.777" id="Fill-8" fill="#FFFFFF"></path>
        <path d="M49.715,19.892 L42.662,10.267 L42.662,16.961 L42.704,18.086 C42.704,18.612 43.133,18.877 43.992,18.877 L43.992,19.777 L39.922,19.777 L39.922,18.877 C40.574,18.877 40.96,18.762 41.077,18.535 C41.192,18.306 41.251,17.782 41.251,16.96 L41.251,8.5 C41.251,7.68 41.192,7.154 41.077,6.927 C40.96,6.698 40.574,6.585 39.922,6.585 L39.922,5.684 L42.662,5.684 L49.715,15.308 L49.715,8.5 L49.664,7.367 C49.664,6.846 49.237,6.585 48.384,6.585 L48.384,5.684 L52.455,5.684 L52.455,6.585 C51.602,6.585 51.175,6.846 51.175,7.367 L51.125,8.5 L51.125,19.892 L49.715,19.892" id="Fill-9" fill="#FFFFFF"></path>
        <path d="M42.498,4.28 L41.598,4.28 C41.598,2.392 42.421,1.449 44.066,1.449 C44.644,1.449 45.167,1.583 45.634,1.852 L46.494,2.347 C47.088,2.694 47.53,2.868 47.822,2.868 C48.626,2.868 49.07,2.395 49.152,1.449 L50.052,1.449 C50.052,3.336 49.23,4.28 47.583,4.28 C47.006,4.28 46.482,4.144 46.016,3.873 L45.156,3.374 C44.561,3.031 44.119,2.859 43.827,2.859 C43.023,2.859 42.58,3.333 42.498,4.28" id="Fill-10" fill="#FFFFFF"></path>
        <path d="M53.346,19.777 L53.346,18.877 C54.204,18.877 54.635,18.612 54.635,18.084 L54.676,16.961 L54.676,8.5 L54.635,7.369 C54.635,6.844 54.204,6.583 53.346,6.583 L53.346,5.684 L62.231,5.684 L62.231,8.16 L61.33,8.16 L61.33,7.928 L61.315,7.301 C61.315,6.823 60.909,6.583 60.099,6.583 L57.491,6.583 L57.491,11.883 L59.024,11.883 L59.735,11.859 C60.082,11.859 60.257,11.653 60.257,11.239 L60.257,10.901 L61.156,10.901 L61.156,13.717 L60.257,13.717 L60.257,13.371 C60.257,12.963 60.082,12.759 59.735,12.759 L59.024,12.734 L57.491,12.734 L57.491,16.961 C57.491,17.732 57.535,18.243 57.624,18.497 C57.712,18.75 58.202,18.877 59.095,18.877 L59.79,18.877 L60.851,18.844 C61.17,18.844 61.358,18.762 61.413,18.597 C61.467,18.433 61.496,18.054 61.496,17.464 L61.496,17.184 L62.511,17.184 L62.511,19.777 L53.346,19.777" id="Fill-11" fill="#FFFFFF"></path>
        <path d="M67.556,6.583 L67.556,12.453 L68.004,12.453 C69.78,12.453 70.669,11.384 70.669,9.245 C70.669,7.47 69.882,6.583 68.312,6.583 L67.556,6.583 Z M63.411,19.777 L63.411,18.877 C64.27,18.877 64.698,18.612 64.698,18.084 L64.74,16.961 L64.74,8.5 L64.698,7.369 C64.698,6.844 64.27,6.583 63.411,6.583 L63.411,5.684 L67.56,5.684 L68.112,5.675 L68.856,5.64 L69.642,5.625 C72.203,5.625 73.485,6.768 73.485,9.052 C73.485,10.903 72.7,12.175 71.132,12.868 L73.052,17.152 C73.512,18.177 74.003,18.762 74.524,18.909 L74.524,19.777 L71.318,19.777 L68.457,13.353 L67.556,13.353 L67.556,16.961 L67.598,18.086 C67.598,18.382 67.641,18.576 67.733,18.667 C67.822,18.757 68.139,18.827 68.679,18.877 L68.679,19.777 L63.411,19.777 Z" id="Fill-12" fill="#FFFFFF"></path>
        <path d="M80.271,19.158 C81.51,19.158 82.128,16.973 82.128,12.602 C82.128,8.402 81.497,6.304 80.236,6.304 C78.982,6.304 78.355,8.441 78.355,12.717 C78.355,17.01 78.993,19.158 80.271,19.158 M80.171,20.116 C78.68,20.116 77.497,19.45 76.621,18.118 C75.746,16.786 75.309,14.989 75.309,12.726 C75.309,10.448 75.75,8.647 76.629,7.326 C77.511,6.007 78.712,5.346 80.236,5.346 C81.762,5.346 82.966,6.005 83.85,7.323 C84.732,8.64 85.174,10.431 85.174,12.693 C85.174,15.022 84.731,16.841 83.846,18.15 C82.958,19.46 81.735,20.116 80.171,20.116" id="Fill-13" fill="#FFFFFF"></path>
    </g>
</svg>