<svg id="svg" version="1.1" xmlns="http://www.w3.org/2000/svg" width="400" height="400" viewBox="0, 0, 400,400"><g id="svgg"><path id="path0" d="M254.926 98.249 C 254.805 98.563,254.145 98.800,253.391 98.800 C 252.662 98.800,251.962 99.025,251.833 99.300 C 251.647 99.700,251.553 99.700,251.367 99.300 C 251.101 98.732,250.000 98.615,250.000 99.155 C 250.000 99.490,249.112 99.742,246.100 100.263 C 245.385 100.386,244.800 100.648,244.800 100.844 C 244.800 101.040,244.254 101.200,243.587 101.200 C 242.879 101.200,242.279 101.449,242.145 101.800 C 242.015 102.138,241.419 102.400,240.781 102.400 C 240.157 102.400,239.536 102.580,239.400 102.800 C 239.264 103.020,238.634 103.200,238.000 103.200 C 237.366 103.200,236.736 103.380,236.600 103.600 C 236.464 103.820,235.859 104.000,235.256 104.000 C 234.653 104.000,233.989 104.151,233.780 104.336 C 233.571 104.520,232.320 104.914,231.000 105.212 C 229.680 105.509,228.456 105.988,228.280 106.276 C 228.104 106.564,227.440 106.800,226.804 106.800 C 226.168 106.800,225.536 106.980,225.400 107.200 C 225.264 107.420,224.734 107.600,224.222 107.600 C 223.145 107.600,221.150 108.547,221.159 109.055 C 221.162 109.245,220.632 109.343,219.982 109.274 C 219.090 109.180,218.800 109.314,218.800 109.824 C 218.800 110.367,218.555 110.451,217.558 110.252 C 216.559 110.052,216.361 110.120,216.545 110.602 C 216.711 111.033,216.500 111.200,215.787 111.200 C 215.244 111.200,214.800 111.380,214.800 111.600 C 214.800 111.820,214.339 112.000,213.776 112.000 C 213.196 112.000,212.860 112.173,213.000 112.400 C 213.136 112.620,212.967 112.800,212.624 112.800 C 212.281 112.800,212.000 113.073,212.000 113.408 C 212.000 113.851,211.738 113.949,211.033 113.773 C 210.031 113.521,208.904 114.736,209.514 115.411 C 209.671 115.585,209.485 115.614,209.100 115.476 C 208.715 115.338,208.400 115.397,208.400 115.608 C 208.400 116.029,207.372 117.378,206.335 118.316 C 205.969 118.647,205.764 119.161,205.878 119.459 C 205.999 119.775,205.819 120.000,205.443 120.000 C 205.089 120.000,204.800 120.270,204.800 120.600 C 204.800 120.930,204.620 121.200,204.400 121.200 C 204.180 121.200,204.000 121.560,204.000 122.000 C 204.000 122.440,203.820 122.800,203.600 122.800 C 203.380 122.800,203.200 123.160,203.200 123.600 C 203.200 124.040,203.033 124.400,202.828 124.400 C 202.623 124.400,202.394 124.805,202.318 125.300 C 202.242 125.802,201.942 126.148,201.641 126.083 C 201.260 126.001,201.158 126.270,201.297 126.993 C 201.424 127.661,201.278 128.140,200.879 128.364 C 200.465 128.595,200.286 129.236,200.329 130.332 C 200.364 131.226,200.214 132.068,199.996 132.202 C 199.778 132.337,199.600 133.391,199.600 134.544 C 199.600 135.697,199.375 136.882,199.100 137.179 C 198.700 137.610,198.700 137.661,199.100 137.435 C 199.479 137.221,199.600 137.834,199.600 139.976 C 199.600 141.592,199.771 142.800,200.000 142.800 C 200.220 142.800,200.400 143.610,200.400 144.600 C 200.400 145.590,200.580 146.400,200.800 146.400 C 201.020 146.400,201.200 147.114,201.200 147.987 C 201.200 149.234,201.329 149.525,201.800 149.345 C 202.550 149.057,202.623 150.400,201.900 151.179 C 201.500 151.610,201.500 151.661,201.900 151.435 C 202.207 151.262,202.400 151.394,202.400 151.776 C 202.400 152.119,202.580 152.400,202.800 152.400 C 203.020 152.400,203.200 153.120,203.200 154.000 C 203.200 154.880,203.380 155.600,203.600 155.600 C 203.820 155.600,204.000 156.320,204.000 157.200 C 204.000 158.080,204.180 158.800,204.400 158.800 C 204.620 158.800,204.800 159.520,204.800 160.400 C 204.800 161.576,204.964 162.000,205.418 162.000 C 205.908 162.000,205.982 162.291,205.774 163.396 C 205.572 164.474,205.659 164.848,206.156 165.039 C 206.878 165.316,207.025 166.614,206.380 167.012 C 206.120 167.173,206.273 167.543,206.780 167.983 C 207.326 168.456,207.600 169.180,207.600 170.147 C 207.600 170.946,207.780 171.600,208.000 171.600 C 208.220 171.600,208.400 171.971,208.400 172.424 C 208.400 172.877,208.237 173.146,208.037 173.023 C 207.838 172.900,207.883 173.248,208.137 173.796 C 208.392 174.345,208.735 174.795,208.900 174.797 C 209.065 174.799,209.200 175.520,209.200 176.400 C 209.200 177.605,209.359 178.000,209.845 178.000 C 210.365 178.000,210.438 178.271,210.225 179.405 C 210.025 180.476,210.109 180.867,210.581 181.048 C 210.993 181.206,211.200 181.806,211.200 182.843 C 211.200 183.699,211.380 184.400,211.600 184.400 C 211.820 184.400,212.000 185.120,212.000 186.000 C 212.000 186.880,212.180 187.600,212.400 187.600 C 212.620 187.600,212.800 188.320,212.800 189.200 C 212.800 190.080,212.980 190.800,213.200 190.800 C 213.420 190.800,213.600 191.520,213.600 192.400 C 213.600 193.556,213.767 194.000,214.200 194.000 C 214.633 194.000,214.800 194.444,214.800 195.600 C 214.800 196.480,214.975 197.200,215.188 197.200 C 215.401 197.200,215.551 197.846,215.522 198.636 C 215.492 199.425,215.667 200.194,215.910 200.344 C 216.153 200.494,216.334 201.234,216.313 201.988 C 216.291 202.741,216.482 203.427,216.737 203.512 C 216.992 203.597,217.200 204.267,217.200 205.000 C 217.200 205.733,217.412 206.404,217.672 206.491 C 217.969 206.590,218.129 207.525,218.105 209.024 C 218.085 210.331,218.156 211.085,218.263 210.700 C 218.601 209.491,219.200 209.938,219.200 211.400 C 219.200 212.170,219.380 212.800,219.600 212.800 C 219.820 212.800,220.000 213.491,220.000 214.336 C 220.000 216.795,218.915 216.711,252.234 216.847 C 283.787 216.976,283.600 216.985,283.600 215.353 C 283.600 214.788,283.426 214.460,283.200 214.600 C 282.958 214.749,282.800 214.204,282.800 213.224 C 282.800 212.331,282.620 211.600,282.400 211.600 C 282.180 211.600,282.000 210.886,282.000 210.013 C 282.000 208.766,281.871 208.475,281.400 208.655 C 280.926 208.837,280.800 208.536,280.800 207.219 C 280.800 206.210,280.642 205.650,280.400 205.800 C 280.158 205.949,280.000 205.404,280.000 204.424 C 280.000 203.531,279.820 202.800,279.600 202.800 C 279.380 202.800,279.200 202.181,279.200 201.424 C 279.200 200.667,279.020 199.936,278.800 199.800 C 278.580 199.664,278.400 198.933,278.400 198.176 C 278.400 197.419,278.220 196.800,278.000 196.800 C 277.780 196.800,277.600 196.170,277.600 195.400 C 277.600 194.422,277.419 194.000,277.000 194.000 C 276.567 194.000,276.400 193.556,276.400 192.400 C 276.400 191.520,276.220 190.800,276.000 190.800 C 275.780 190.800,275.600 190.170,275.600 189.400 C 275.600 188.630,275.420 188.000,275.200 188.000 C 274.980 188.000,274.800 187.269,274.800 186.376 C 274.800 185.396,274.642 184.851,274.400 185.000 C 274.158 185.149,274.000 184.604,274.000 183.624 C 274.000 182.424,273.838 182.000,273.380 182.000 C 272.881 182.000,272.797 181.631,272.950 180.100 C 273.055 179.055,273.049 178.425,272.937 178.700 C 272.513 179.741,272.000 179.138,272.000 177.600 C 272.000 176.720,271.820 176.000,271.600 176.000 C 271.380 176.000,271.200 175.370,271.200 174.600 C 271.200 173.830,271.020 173.200,270.800 173.200 C 270.580 173.200,270.400 172.570,270.400 171.800 C 270.400 171.030,270.220 170.400,270.000 170.400 C 269.780 170.400,269.600 169.764,269.600 168.987 C 269.600 168.098,269.377 167.489,268.997 167.343 C 268.609 167.194,268.427 166.676,268.487 165.886 C 268.540 165.199,268.365 164.588,268.090 164.497 C 267.821 164.407,267.600 163.718,267.600 162.967 C 267.600 162.215,267.420 161.600,267.200 161.600 C 266.980 161.600,266.800 160.880,266.800 160.000 C 266.800 159.120,266.620 158.400,266.400 158.400 C 266.180 158.400,266.000 157.770,266.000 157.000 C 266.000 156.049,265.815 155.600,265.425 155.600 C 264.992 155.600,264.906 155.256,265.077 154.200 C 265.259 153.079,265.174 152.800,264.652 152.800 C 264.158 152.800,264.000 152.413,264.000 151.200 C 264.000 150.320,263.820 149.600,263.600 149.600 C 263.380 149.600,263.200 148.970,263.200 148.200 C 263.200 147.430,263.020 146.800,262.800 146.800 C 262.580 146.800,262.400 146.069,262.400 145.176 C 262.400 144.196,262.242 143.651,262.000 143.800 C 261.759 143.949,261.600 143.418,261.600 142.466 C 261.600 141.438,261.393 140.806,261.007 140.658 C 260.582 140.495,260.483 140.087,260.657 139.215 C 260.848 138.260,260.761 138.000,260.250 138.000 C 259.774 138.000,259.600 137.626,259.600 136.600 C 259.600 135.830,259.420 135.200,259.200 135.200 C 258.980 135.200,258.800 134.480,258.800 133.600 C 258.800 132.720,258.620 132.000,258.400 132.000 C 258.180 132.000,258.000 131.640,258.000 131.200 C 258.000 130.667,258.267 130.400,258.800 130.400 C 259.240 130.400,259.600 130.201,259.600 129.957 C 259.600 129.714,259.877 129.621,260.215 129.750 C 260.565 129.885,260.928 129.731,261.058 129.393 C 261.183 129.067,261.637 128.800,262.066 128.800 C 262.496 128.800,262.736 128.620,262.600 128.400 C 262.460 128.173,262.796 128.000,263.376 128.000 C 264.020 128.000,264.400 127.777,264.400 127.400 C 264.400 127.067,264.756 126.800,265.200 126.800 C 265.640 126.800,266.000 126.620,266.000 126.400 C 266.000 126.180,266.345 126.000,266.767 126.000 C 267.188 126.000,267.638 125.775,267.767 125.500 C 267.953 125.100,268.047 125.100,268.233 125.500 C 268.362 125.775,268.642 126.000,268.857 126.000 C 269.072 126.000,269.136 125.820,269.000 125.600 C 268.864 125.380,268.954 125.200,269.200 125.200 C 269.446 125.200,269.545 125.035,269.421 124.834 C 269.297 124.633,269.421 124.391,269.698 124.297 C 270.640 123.977,257.385 98.129,256.158 97.894 C 255.513 97.771,255.059 97.902,254.926 98.249 M90.815 146.439 C 90.053 147.078,89.306 147.600,89.154 147.600 C 89.001 147.600,87.735 148.255,86.338 149.055 C 84.942 149.855,82.630 151.143,81.200 151.917 C 79.770 152.691,78.122 153.657,77.538 154.062 C 76.954 154.468,76.392 154.800,76.290 154.800 C 76.134 154.800,73.349 156.348,67.600 159.629 C 64.004 161.682,60.112 167.528,59.021 172.516 C 58.886 173.130,58.602 173.525,58.388 173.393 C 58.169 173.257,58.000 173.699,58.000 174.410 C 58.000 176.411,58.921 175.617,59.438 173.170 C 60.659 167.388,64.267 161.902,68.251 159.771 C 69.103 159.315,70.700 158.435,71.800 157.815 C 72.900 157.195,74.601 156.238,75.579 155.687 C 76.557 155.137,78.230 154.172,79.297 153.543 C 80.363 152.914,81.321 152.400,81.426 152.400 C 81.530 152.400,82.287 151.980,83.108 151.466 C 83.929 150.952,86.040 149.760,87.800 148.817 C 90.904 147.154,92.742 145.803,92.378 145.450 C 92.280 145.355,91.577 145.800,90.815 146.439 M57.200 182.400 C 57.200 182.840,57.380 183.200,57.600 183.200 C 57.820 183.200,58.000 182.840,58.000 182.400 C 58.000 181.960,57.820 181.600,57.600 181.600 C 57.380 181.600,57.200 181.960,57.200 182.400 " stroke="none" fill="#9a7dc5" fill-rule="evenodd"></path><path id="path1" d="M240.800 61.097 C 240.030 61.470,239.340 61.916,239.267 62.088 C 239.193 62.259,238.788 62.400,238.367 62.400 C 237.945 62.400,237.600 62.580,237.600 62.800 C 237.600 63.020,237.322 63.200,236.983 63.200 C 234.746 63.200,233.146 65.757,233.416 68.899 C 233.649 71.620,233.199 75.233,232.076 79.649 C 231.615 81.460,230.166 84.485,228.712 86.672 C 227.593 88.355,227.247 90.000,228.013 90.000 C 228.239 90.000,228.529 89.730,228.655 89.400 C 228.782 89.070,229.226 88.800,229.643 88.800 C 230.059 88.800,230.400 88.620,230.400 88.400 C 230.400 88.180,230.653 88.000,230.962 88.000 C 231.906 88.000,234.800 86.285,234.800 85.726 C 234.800 85.432,235.241 85.200,235.800 85.200 C 236.350 85.200,236.800 85.020,236.800 84.800 C 236.800 84.580,237.160 84.400,237.600 84.400 C 238.040 84.400,238.400 84.220,238.400 84.000 C 238.400 83.780,238.760 83.600,239.200 83.600 C 239.640 83.600,240.000 83.420,240.000 83.200 C 240.000 82.980,240.270 82.800,240.600 82.800 C 240.930 82.800,241.200 82.620,241.200 82.400 C 241.200 82.180,241.560 82.000,242.000 82.000 C 242.444 82.000,242.800 81.733,242.800 81.400 C 242.800 81.027,243.178 80.800,243.800 80.800 C 244.350 80.800,244.800 80.620,244.800 80.400 C 244.800 80.180,245.160 80.000,245.600 80.000 C 246.040 80.000,246.400 79.854,246.400 79.675 C 246.400 79.496,247.030 79.102,247.800 78.800 C 248.570 78.498,249.200 78.104,249.200 77.925 C 249.200 77.746,249.560 77.600,250.000 77.600 C 250.444 77.600,250.800 77.333,250.800 77.000 C 250.800 76.634,251.173 76.400,251.757 76.400 C 252.680 76.400,253.200 75.744,253.200 74.580 C 253.200 74.146,247.310 65.670,246.404 64.800 C 246.289 64.690,245.664 63.880,245.014 63.000 C 242.982 60.248,242.759 60.147,240.800 61.097 M182.800 93.748 C 182.800 94.127,182.475 94.400,182.024 94.400 C 181.597 94.400,181.136 94.580,181.000 94.800 C 180.864 95.020,180.403 95.200,179.976 95.200 C 179.549 95.200,179.200 95.368,179.200 95.573 C 179.200 95.778,178.841 96.060,178.402 96.199 C 177.964 96.338,177.308 96.749,176.946 97.111 C 176.584 97.473,176.001 97.812,175.651 97.863 C 175.301 97.914,174.951 98.146,174.874 98.378 C 174.797 98.610,174.388 98.800,173.967 98.800 C 173.545 98.800,173.200 98.980,173.200 99.200 C 173.200 99.420,172.874 99.600,172.475 99.600 C 172.077 99.600,171.364 99.960,170.892 100.400 C 170.420 100.840,169.750 101.200,169.404 101.200 C 169.058 101.200,168.671 101.470,168.545 101.800 C 168.418 102.130,167.974 102.400,167.557 102.400 C 167.141 102.400,166.800 102.580,166.800 102.800 C 166.800 103.020,166.440 103.200,166.000 103.200 C 165.560 103.200,165.200 103.358,165.200 103.551 C 165.200 103.745,164.615 104.142,163.900 104.435 C 163.185 104.727,162.360 105.200,162.068 105.487 C 161.775 105.773,161.370 105.905,161.168 105.780 C 160.965 105.655,160.800 105.833,160.800 106.176 C 160.800 106.575,160.439 106.800,159.800 106.800 C 159.250 106.800,158.800 106.980,158.800 107.200 C 158.800 107.420,158.480 107.600,158.088 107.600 C 157.697 107.600,157.117 107.960,156.800 108.400 C 156.483 108.840,155.813 109.200,155.312 109.200 C 154.810 109.200,154.400 109.380,154.400 109.600 C 154.400 109.820,154.124 110.000,153.787 110.000 C 153.451 110.000,153.071 110.270,152.945 110.600 C 152.818 110.930,152.419 111.204,152.057 111.209 C 151.696 111.214,150.950 111.570,150.400 112.000 C 149.850 112.430,149.175 112.786,148.900 112.791 C 148.625 112.796,148.400 112.980,148.400 113.200 C 148.400 113.420,147.950 113.600,147.400 113.600 C 146.778 113.600,146.400 113.827,146.400 114.200 C 146.400 114.533,146.044 114.800,145.600 114.800 C 145.160 114.800,144.800 114.980,144.800 115.200 C 144.800 115.420,144.440 115.600,144.000 115.600 C 143.560 115.600,143.200 115.780,143.200 116.000 C 143.200 116.220,142.930 116.400,142.600 116.400 C 142.270 116.400,142.000 116.580,142.000 116.800 C 142.000 117.020,141.640 117.200,141.200 117.200 C 140.760 117.200,140.400 117.380,140.400 117.600 C 140.400 117.820,140.034 118.000,139.587 118.000 C 139.141 118.000,138.671 118.270,138.545 118.600 C 138.418 118.930,138.109 119.204,137.857 119.209 C 137.606 119.214,136.950 119.570,136.400 120.000 C 135.850 120.430,135.085 120.786,134.700 120.791 C 134.315 120.796,134.000 120.980,134.000 121.200 C 134.000 121.420,133.640 121.600,133.200 121.600 C 132.760 121.600,132.400 121.760,132.400 121.957 C 132.400 122.153,131.950 122.426,131.400 122.564 C 130.850 122.702,130.400 122.992,130.400 123.208 C 130.400 123.423,130.080 123.600,129.688 123.600 C 129.297 123.600,128.717 123.960,128.400 124.400 C 128.083 124.840,127.413 125.200,126.912 125.200 C 126.410 125.200,126.000 125.380,126.000 125.600 C 126.000 125.820,125.717 126.000,125.371 126.000 C 125.026 126.000,124.492 126.225,124.185 126.500 C 122.979 127.582,122.552 127.866,121.300 128.420 C 120.585 128.736,120.000 129.131,120.000 129.298 C 120.000 129.464,119.758 129.600,119.461 129.600 C 118.659 129.600,116.400 130.802,116.400 131.229 C 116.400 131.433,116.040 131.600,115.600 131.600 C 115.160 131.600,114.800 131.780,114.800 132.000 C 114.800 132.220,114.530 132.400,114.200 132.400 C 113.870 132.400,113.600 132.580,113.600 132.800 C 113.600 133.020,113.240 133.200,112.800 133.200 C 112.360 133.200,112.000 133.380,112.000 133.600 C 112.000 133.820,111.640 134.000,111.200 134.000 C 110.760 134.000,110.400 134.180,110.400 134.400 C 110.400 134.620,110.138 134.800,109.818 134.800 C 109.498 134.800,108.786 135.250,108.236 135.800 C 107.686 136.350,106.858 136.800,106.395 136.800 C 105.932 136.800,105.664 136.980,105.800 137.200 C 105.936 137.420,105.687 137.600,105.247 137.600 C 104.807 137.600,104.336 137.780,104.200 138.000 C 104.064 138.220,103.603 138.400,103.176 138.400 C 102.740 138.400,102.400 138.673,102.400 139.024 C 102.400 139.367,102.235 139.545,102.032 139.420 C 101.830 139.295,101.393 139.464,101.061 139.796 C 100.729 140.128,100.264 140.400,100.029 140.400 C 99.793 140.400,99.600 140.580,99.600 140.800 C 99.600 141.020,99.240 141.200,98.800 141.200 C 98.360 141.200,98.000 141.380,98.000 141.600 C 98.000 141.820,97.632 142.000,97.183 142.000 C 96.734 142.000,96.149 142.184,95.883 142.408 C 93.795 144.171,92.959 144.799,92.700 144.800 C 92.535 144.800,92.400 145.042,92.400 145.338 C 92.400 146.120,91.396 146.878,87.800 148.811 C 86.040 149.757,83.929 150.952,83.108 151.466 C 82.287 151.980,81.530 152.400,81.426 152.400 C 81.321 152.400,80.363 152.914,79.297 153.543 C 78.230 154.172,76.512 155.162,75.479 155.743 C 74.446 156.324,72.745 157.282,71.700 157.871 C 70.655 158.460,69.103 159.315,68.251 159.771 C 66.106 160.919,62.518 164.906,61.423 167.358 C 59.892 170.786,59.675 171.427,59.382 173.380 C 59.227 174.416,58.852 175.359,58.550 175.475 C 58.247 175.591,58.000 176.116,58.000 176.643 C 58.000 177.169,57.820 177.600,57.600 177.600 C 57.380 177.600,57.200 178.500,57.200 179.600 C 57.200 180.700,57.380 181.600,57.600 181.600 C 57.820 181.600,58.000 181.960,58.000 182.400 C 58.000 182.840,57.820 183.200,57.600 183.200 C 57.080 183.200,57.080 184.678,57.600 185.000 C 57.820 185.136,58.000 186.497,58.000 188.024 C 58.000 189.608,58.172 190.800,58.400 190.800 C 58.620 190.800,58.800 191.509,58.800 192.376 C 58.800 193.243,58.980 194.064,59.200 194.200 C 59.420 194.336,59.600 194.892,59.600 195.436 C 59.600 195.980,59.870 196.529,60.200 196.655 C 60.530 196.782,60.800 197.316,60.800 197.843 C 60.800 198.369,60.980 198.800,61.200 198.800 C 61.420 198.800,61.600 199.160,61.600 199.600 C 61.600 200.040,61.780 200.400,62.000 200.400 C 62.220 200.400,62.400 200.642,62.400 200.939 C 62.400 201.763,63.608 204.000,64.053 204.000 C 64.270 204.000,64.336 204.180,64.200 204.400 C 64.064 204.620,64.233 204.800,64.576 204.800 C 64.933 204.800,65.200 205.142,65.200 205.600 C 65.200 206.040,65.380 206.400,65.600 206.400 C 65.820 206.400,66.000 206.586,66.000 206.813 C 66.000 207.351,68.649 210.000,69.187 210.000 C 69.414 210.000,69.600 210.186,69.600 210.413 C 69.600 210.850,72.202 213.600,72.615 213.600 C 72.748 213.600,73.108 213.825,73.415 214.100 C 74.802 215.344,75.206 215.600,75.783 215.600 C 76.122 215.600,76.400 215.780,76.400 216.000 C 76.400 216.220,77.030 216.400,77.800 216.400 C 78.570 216.400,79.200 216.580,79.200 216.800 C 79.200 217.051,81.667 217.200,85.800 217.200 C 89.933 217.200,92.400 217.051,92.400 216.800 C 92.400 216.580,92.676 216.400,93.014 216.400 C 94.274 216.400,98.800 212.670,98.800 211.631 C 98.800 211.394,98.980 211.200,99.200 211.200 C 99.420 211.200,99.600 210.750,99.600 210.200 C 99.600 209.650,99.780 209.200,100.000 209.200 C 100.246 209.200,100.400 207.200,100.400 204.000 C 100.400 200.800,100.246 198.800,100.000 198.800 C 99.780 198.800,99.594 198.485,99.587 198.100 C 99.574 197.359,98.700 196.000,98.238 196.000 C 97.903 196.000,96.000 194.129,96.000 193.800 C 96.000 193.495,94.109 191.600,93.805 191.600 C 93.678 191.600,92.943 190.970,92.173 190.200 C 91.403 189.430,90.621 188.800,90.435 188.800 C 90.249 188.800,89.355 188.080,88.448 187.200 C 87.541 186.320,86.439 185.600,86.000 185.600 C 85.560 185.600,85.200 185.414,85.200 185.187 C 85.200 184.620,82.537 182.000,81.962 182.000 C 81.706 182.000,80.546 181.010,79.383 179.800 C 78.220 178.590,77.074 177.600,76.835 177.600 C 75.152 177.600,77.309 174.549,79.687 173.564 C 80.299 173.310,80.800 172.855,80.800 172.551 C 80.800 172.230,81.217 172.000,81.800 172.000 C 82.350 172.000,82.800 171.820,82.800 171.600 C 82.800 171.380,83.160 171.200,83.600 171.200 C 84.040 171.200,84.400 171.020,84.400 170.800 C 84.400 170.580,84.698 170.400,85.062 170.400 C 85.715 170.400,88.473 168.534,88.733 167.917 C 88.807 167.742,89.302 167.600,89.833 167.600 C 90.365 167.600,90.800 167.420,90.800 167.200 C 90.800 166.980,91.160 166.800,91.600 166.800 C 92.040 166.800,92.400 166.654,92.400 166.475 C 92.400 166.296,93.030 165.902,93.800 165.600 C 94.570 165.298,95.200 164.814,95.200 164.525 C 95.200 164.236,95.560 164.000,96.000 164.000 C 96.440 164.000,96.800 163.820,96.800 163.600 C 96.800 163.380,97.250 163.200,97.800 163.200 C 98.350 163.200,98.801 163.065,98.803 162.900 C 98.805 162.735,99.210 162.399,99.703 162.152 C 102.384 160.814,103.200 160.305,103.200 159.971 C 103.200 159.767,103.560 159.600,104.000 159.600 C 104.440 159.600,104.800 159.420,104.800 159.200 C 104.800 158.980,105.160 158.800,105.600 158.800 C 106.040 158.800,106.400 158.654,106.400 158.475 C 106.400 158.296,107.030 157.902,107.800 157.600 C 108.570 157.298,109.200 156.814,109.200 156.525 C 109.200 156.232,109.641 156.000,110.200 156.000 C 110.750 156.000,111.200 155.820,111.200 155.600 C 111.200 155.380,111.560 155.200,112.000 155.200 C 112.440 155.200,112.800 155.020,112.800 154.800 C 112.800 154.580,113.160 154.400,113.600 154.400 C 114.040 154.400,114.400 154.220,114.400 154.000 C 114.400 153.780,114.670 153.600,115.000 153.600 C 115.330 153.600,115.600 153.420,115.600 153.200 C 115.600 152.980,115.960 152.800,116.400 152.800 C 116.844 152.800,117.200 152.533,117.200 152.200 C 117.200 151.870,117.549 151.600,117.976 151.600 C 118.403 151.600,118.864 151.420,119.000 151.200 C 119.136 150.980,119.597 150.800,120.024 150.800 C 120.451 150.800,120.800 150.654,120.800 150.475 C 120.800 150.296,121.430 149.902,122.200 149.600 C 122.970 149.298,123.600 148.904,123.600 148.725 C 123.600 148.546,123.876 148.400,124.213 148.400 C 124.549 148.400,124.929 148.130,125.055 147.800 C 125.182 147.470,125.626 147.200,126.043 147.200 C 126.459 147.200,126.800 147.020,126.800 146.800 C 126.800 146.580,127.126 146.400,127.525 146.400 C 127.923 146.400,128.636 146.040,129.108 145.600 C 129.580 145.160,130.126 144.800,130.322 144.800 C 130.982 144.800,133.200 143.544,133.200 143.171 C 133.200 142.967,133.560 142.800,134.000 142.800 C 134.440 142.800,134.800 142.654,134.800 142.475 C 134.800 142.296,135.430 141.902,136.200 141.600 C 136.970 141.298,137.600 140.904,137.600 140.725 C 137.600 140.546,137.960 140.400,138.400 140.400 C 138.844 140.400,139.200 140.133,139.200 139.800 C 139.200 139.427,139.578 139.200,140.200 139.200 C 140.750 139.200,141.200 139.020,141.200 138.800 C 141.200 138.580,141.560 138.400,142.000 138.400 C 142.440 138.400,142.800 138.220,142.800 138.000 C 142.800 137.780,143.070 137.600,143.400 137.600 C 143.730 137.600,144.000 137.420,144.000 137.200 C 144.000 136.980,144.360 136.800,144.800 136.800 C 145.240 136.800,145.600 136.620,145.600 136.400 C 145.600 136.180,145.876 136.000,146.213 136.000 C 146.549 136.000,146.929 135.730,147.055 135.400 C 147.182 135.070,147.634 134.800,148.060 134.800 C 148.485 134.800,149.220 134.440,149.692 134.000 C 150.164 133.560,150.787 133.200,151.075 133.200 C 151.364 133.200,151.600 133.020,151.600 132.800 C 151.600 132.580,151.973 132.400,152.429 132.400 C 152.884 132.400,153.508 132.175,153.815 131.900 C 155.202 130.656,155.606 130.400,156.183 130.400 C 156.522 130.400,156.800 130.220,156.800 130.000 C 156.800 129.780,157.070 129.600,157.400 129.600 C 157.730 129.600,158.000 129.420,158.000 129.200 C 158.000 128.980,158.360 128.800,158.800 128.800 C 159.240 128.800,159.600 128.620,159.600 128.400 C 159.600 128.180,159.966 128.000,160.413 128.000 C 160.859 128.000,161.329 127.730,161.455 127.400 C 161.582 127.070,161.944 126.800,162.260 126.800 C 162.575 126.800,163.220 126.440,163.692 126.000 C 164.164 125.560,164.877 125.200,165.275 125.200 C 165.674 125.200,166.000 125.020,166.000 124.800 C 166.000 124.580,166.360 124.400,166.800 124.400 C 167.240 124.400,167.600 124.220,167.600 124.000 C 167.600 123.780,167.857 123.600,168.171 123.600 C 168.486 123.600,168.981 123.375,169.271 123.100 C 169.562 122.825,170.295 122.345,170.900 122.032 C 171.505 121.720,172.000 121.315,172.000 121.132 C 172.000 120.950,172.450 120.800,173.000 120.800 C 173.550 120.800,174.000 120.620,174.000 120.400 C 174.000 120.180,174.278 120.000,174.617 120.000 C 175.183 120.000,175.527 119.787,176.914 118.575 C 177.181 118.342,177.985 117.893,178.700 117.578 C 179.415 117.263,180.000 116.869,180.000 116.702 C 180.000 116.536,180.450 116.400,181.000 116.400 C 181.550 116.400,182.002 116.265,182.005 116.100 C 182.007 115.935,182.727 115.456,183.605 115.036 C 184.482 114.615,185.200 114.120,185.200 113.936 C 185.200 113.751,185.470 113.600,185.800 113.600 C 186.130 113.600,186.400 113.420,186.400 113.200 C 186.400 112.980,186.760 112.800,187.200 112.800 C 187.640 112.800,188.000 112.620,188.000 112.400 C 188.000 112.180,188.360 112.000,188.800 112.000 C 189.240 112.000,189.600 111.820,189.600 111.600 C 189.600 111.380,189.842 111.200,190.138 111.200 C 190.434 111.200,191.199 110.750,191.838 110.200 C 192.477 109.651,193.315 109.201,193.700 109.200 C 194.085 109.200,194.400 109.020,194.400 108.800 C 194.400 108.580,194.760 108.400,195.200 108.400 C 195.640 108.400,196.000 108.220,196.000 108.000 C 196.000 107.780,196.360 107.600,196.800 107.600 C 197.240 107.600,197.600 107.461,197.600 107.291 C 197.600 107.121,198.230 106.643,199.000 106.228 C 199.770 105.813,200.400 105.322,200.400 105.137 C 200.400 104.952,200.749 104.800,201.176 104.800 C 201.603 104.800,202.064 104.620,202.200 104.400 C 202.336 104.180,202.797 104.000,203.224 104.000 C 203.651 104.000,204.000 103.820,204.000 103.600 C 204.000 103.380,204.244 103.200,204.542 103.200 C 204.839 103.200,205.569 102.750,206.162 102.200 C 206.756 101.650,207.502 101.200,207.821 101.200 C 208.729 101.200,208.499 100.520,207.500 100.252 C 207.005 100.119,205.181 100.008,203.446 100.005 C 200.507 100.000,199.632 99.858,195.400 98.698 C 193.554 98.192,188.275 95.540,186.791 94.373 C 185.387 93.269,182.800 92.864,182.800 93.748 M198.800 136.576 C 198.800 137.467,199.426 137.644,199.492 136.772 C 199.524 136.348,199.381 136.000,199.175 136.000 C 198.969 136.000,198.800 136.259,198.800 136.576 " stroke="none" fill="#445c64" fill-rule="evenodd"></path><path id="path2" d="M139.800 32.800 C 139.664 33.020,138.674 33.200,137.600 33.200 C 136.526 33.200,135.536 33.380,135.400 33.600 C 135.264 33.820,134.659 34.000,134.056 34.000 C 133.453 34.000,132.789 34.169,132.580 34.375 C 132.371 34.582,131.660 34.829,131.000 34.924 C 130.340 35.020,129.845 35.301,129.900 35.549 C 129.957 35.804,129.489 36.000,128.824 36.000 C 128.177 36.000,127.536 36.180,127.400 36.400 C 127.264 36.620,126.713 36.800,126.176 36.800 C 125.639 36.800,125.200 36.980,125.200 37.200 C 125.200 37.420,124.921 37.600,124.580 37.600 C 124.239 37.600,123.384 37.905,122.680 38.278 C 121.976 38.651,121.143 39.000,120.830 39.053 C 120.516 39.106,120.102 39.431,119.910 39.775 C 119.718 40.119,119.254 40.404,118.880 40.409 C 118.506 40.414,117.750 40.770,117.200 41.200 C 116.650 41.630,115.885 41.986,115.500 41.991 C 115.115 41.996,114.800 42.180,114.800 42.400 C 114.800 42.620,114.524 42.800,114.187 42.800 C 113.851 42.800,113.471 43.070,113.345 43.400 C 113.218 43.730,112.903 44.000,112.646 44.000 C 112.388 44.000,111.920 44.356,111.606 44.791 C 111.187 45.373,110.954 45.452,110.724 45.091 C 110.479 44.706,110.411 44.708,110.406 45.100 C 110.403 45.375,110.119 45.600,109.776 45.600 C 109.433 45.600,109.252 45.760,109.373 45.956 C 109.494 46.152,108.965 46.610,108.196 46.975 C 107.428 47.339,106.800 47.809,106.800 48.019 C 106.800 48.228,106.519 48.400,106.176 48.400 C 105.833 48.400,105.664 48.580,105.800 48.800 C 105.936 49.020,105.859 49.200,105.628 49.200 C 105.209 49.200,104.131 49.984,102.740 51.300 C 102.333 51.685,101.914 52.000,101.808 52.000 C 101.458 52.000,95.200 58.523,95.200 58.888 C 95.200 59.086,95.020 59.136,94.800 59.000 C 94.580 58.864,94.400 59.063,94.400 59.443 C 94.400 59.823,94.286 60.019,94.147 59.880 C 93.895 59.629,92.400 61.274,92.400 61.803 C 92.400 61.955,91.860 62.583,91.200 63.200 C 90.540 63.817,90.000 64.519,90.000 64.760 C 90.000 65.002,89.719 65.200,89.376 65.200 C 89.033 65.200,88.864 65.380,89.000 65.600 C 89.136 65.820,89.027 66.000,88.757 66.000 C 88.487 66.000,88.372 66.105,88.500 66.234 C 88.708 66.441,88.313 67.050,87.000 68.545 C 86.780 68.795,86.345 69.495,86.032 70.100 C 85.720 70.705,85.225 71.200,84.932 71.200 C 84.640 71.200,84.421 71.335,84.447 71.500 C 84.573 72.297,84.360 72.822,84.000 72.600 C 83.780 72.464,83.600 72.723,83.600 73.176 C 83.600 73.629,83.420 74.000,83.200 74.000 C 82.980 74.000,82.800 74.197,82.800 74.438 C 82.800 74.679,82.466 75.354,82.057 75.938 C 80.726 77.840,79.200 80.813,79.194 81.514 C 79.189 82.041,79.110 82.077,78.850 81.668 C 78.611 81.291,78.441 81.494,78.268 82.362 C 78.133 83.037,77.657 83.901,77.211 84.283 C 76.765 84.665,76.400 85.418,76.400 85.956 C 76.400 86.493,76.278 86.812,76.130 86.663 C 75.830 86.363,74.816 88.998,74.806 90.100 C 74.803 90.485,74.620 90.800,74.400 90.800 C 74.180 90.800,74.000 91.070,74.000 91.400 C 74.000 91.730,73.820 92.000,73.600 92.000 C 73.380 92.000,73.200 92.540,73.200 93.200 C 73.200 94.036,73.005 94.400,72.557 94.400 C 72.176 94.400,72.000 94.624,72.126 94.950 C 72.242 95.253,72.081 95.993,71.768 96.596 C 71.456 97.198,71.200 97.941,71.200 98.246 C 71.200 98.551,71.020 98.800,70.800 98.800 C 70.580 98.800,70.400 99.252,70.400 99.805 C 70.400 100.799,70.309 101.051,69.094 103.400 C 68.752 104.060,68.477 104.690,68.482 104.800 C 68.507 105.305,67.429 108.641,67.133 108.980 C 66.950 109.189,66.800 109.954,66.800 110.680 C 66.800 111.406,66.620 112.000,66.400 112.000 C 66.180 112.000,66.000 112.630,66.000 113.400 C 66.000 114.250,65.804 114.802,65.500 114.806 C 65.167 114.810,65.200 114.942,65.600 115.200 C 66.000 115.458,66.033 115.590,65.700 115.594 C 65.399 115.598,65.200 116.143,65.200 116.967 C 65.200 117.718,65.006 118.398,64.768 118.477 C 64.531 118.556,64.241 119.336,64.125 120.211 C 64.009 121.085,63.753 122.103,63.557 122.474 C 63.361 122.844,63.200 123.890,63.200 124.797 C 63.200 125.795,63.042 126.350,62.800 126.200 C 62.552 126.047,62.400 126.774,62.400 128.110 C 62.400 129.296,62.265 130.402,62.100 130.567 C 61.735 130.932,61.713 131.080,61.650 133.624 C 61.623 134.737,61.447 135.553,61.260 135.437 C 61.073 135.322,60.873 136.526,60.815 138.114 C 60.757 139.701,60.700 141.225,60.688 141.500 C 60.676 141.775,60.465 142.000,60.218 142.000 C 59.935 142.000,59.727 143.143,59.654 145.096 C 59.591 146.799,59.394 148.374,59.217 148.596 C 59.040 148.818,58.862 150.795,58.822 152.989 C 58.779 155.364,58.557 157.217,58.275 157.566 C 57.889 158.044,57.912 158.091,58.400 157.818 C 58.888 157.545,58.907 157.583,58.500 158.021 C 57.882 158.687,57.778 173.016,58.388 173.393 C 58.602 173.525,58.886 173.130,59.021 172.516 C 60.112 167.528,64.002 161.685,67.600 159.628 C 68.872 158.902,73.258 156.423,75.600 155.108 C 76.590 154.552,79.984 152.635,83.142 150.848 C 86.300 149.062,89.004 147.600,89.151 147.600 C 89.298 147.600,90.089 147.047,90.909 146.371 L 92.400 145.142 92.400 140.794 C 92.400 138.403,92.562 136.347,92.761 136.224 C 92.959 136.102,93.147 133.442,93.178 130.313 C 93.218 126.366,93.383 124.531,93.718 124.319 C 93.983 124.150,94.043 124.009,93.851 124.006 C 93.659 124.003,93.680 123.775,93.898 123.500 C 94.116 123.225,94.329 121.656,94.371 120.012 C 94.413 118.369,94.597 116.839,94.779 116.612 C 94.962 116.386,95.222 114.940,95.358 113.400 C 95.850 107.813,96.080 106.193,96.437 105.820 C 96.637 105.611,96.800 104.666,96.800 103.720 C 96.800 102.774,96.980 102.000,97.200 102.000 C 97.420 102.000,97.600 101.212,97.600 100.249 C 97.600 99.286,97.831 98.306,98.113 98.072 C 98.395 97.838,98.671 97.063,98.725 96.350 C 98.779 95.637,98.977 94.861,99.165 94.627 C 99.484 94.226,99.703 93.196,100.262 89.452 C 100.424 88.368,100.597 88.068,100.840 88.452 C 101.073 88.819,101.190 88.504,101.194 87.500 C 101.197 86.675,101.359 86.000,101.554 86.000 C 101.894 86.000,102.484 84.384,103.638 80.300 C 103.933 79.255,104.315 78.400,104.487 78.400 C 104.659 78.400,104.800 77.965,104.800 77.433 C 104.800 76.902,104.978 76.407,105.197 76.333 C 105.415 76.260,105.634 75.705,105.684 75.100 C 105.734 74.495,105.918 74.000,106.094 74.000 C 106.269 74.000,106.702 73.325,107.055 72.500 C 107.409 71.675,107.856 70.687,108.049 70.305 C 108.242 69.923,108.400 69.421,108.400 69.189 C 108.400 68.957,108.760 68.380,109.200 67.908 C 109.640 67.436,110.000 66.732,110.000 66.344 C 110.000 65.957,110.236 65.496,110.523 65.320 C 110.811 65.144,111.283 64.415,111.572 63.700 C 111.861 62.985,112.236 62.400,112.405 62.400 C 112.575 62.400,112.815 61.995,112.940 61.500 C 113.179 60.551,114.009 59.346,115.500 57.781 C 115.995 57.261,116.400 56.570,116.400 56.245 C 116.400 55.919,117.197 54.876,118.170 53.927 C 119.144 52.977,119.999 51.932,120.070 51.604 C 120.142 51.276,120.695 50.529,121.300 49.943 C 121.905 49.358,122.400 48.681,122.400 48.440 C 122.400 48.198,122.540 48.045,122.712 48.100 C 122.883 48.155,124.234 46.985,125.713 45.500 C 127.192 44.015,128.541 42.800,128.712 42.800 C 128.882 42.800,129.613 42.260,130.336 41.600 C 131.058 40.940,131.818 40.400,132.025 40.400 C 132.231 40.400,132.400 40.130,132.400 39.800 C 132.400 39.470,132.636 39.200,132.925 39.200 C 133.213 39.200,133.836 38.840,134.308 38.400 C 134.780 37.960,135.444 37.600,135.783 37.600 C 136.122 37.600,136.400 37.420,136.400 37.200 C 136.400 36.980,136.670 36.800,137.000 36.800 C 137.330 36.800,137.600 36.620,137.600 36.400 C 137.600 36.180,137.960 36.000,138.400 36.000 C 138.844 36.000,139.200 35.733,139.200 35.400 C 139.200 35.054,139.562 34.800,140.056 34.800 C 140.935 34.800,141.965 33.787,141.987 32.900 C 142.002 32.307,140.157 32.223,139.800 32.800 M221.069 217.064 C 220.600 217.534,220.779 218.804,221.300 218.700 C 221.646 218.631,221.777 219.121,221.725 220.292 C 221.676 221.397,221.812 221.951,222.116 221.892 C 222.372 221.841,222.646 222.250,222.724 222.800 C 222.803 223.350,223.032 223.971,223.234 224.180 C 223.435 224.389,223.600 224.884,223.600 225.280 C 223.600 225.676,223.780 226.000,224.000 226.000 C 224.220 226.000,224.400 226.248,224.400 226.551 C 224.400 226.854,224.659 227.317,224.976 227.580 C 225.293 227.843,225.454 228.315,225.333 228.629 C 225.200 228.978,225.365 229.200,225.757 229.200 C 226.111 229.200,226.400 229.346,226.400 229.525 C 226.400 229.703,226.720 230.198,227.111 230.625 C 227.502 231.051,228.234 231.985,228.738 232.700 C 229.242 233.415,229.822 234.000,230.026 234.000 C 230.231 234.000,231.117 234.677,231.995 235.504 L 233.592 237.008 233.696 255.804 L 233.800 274.600 250.400 274.696 C 259.678 274.750,267.248 274.635,267.562 274.435 C 268.238 274.004,268.648 271.452,269.980 259.400 C 270.345 256.096,270.746 252.856,271.810 244.600 C 272.150 241.960,272.607 238.270,272.826 236.400 C 273.044 234.530,273.398 231.560,273.611 229.800 C 274.440 222.970,274.894 218.959,274.946 218.000 L 275.000 217.000 248.169 216.897 C 233.413 216.841,221.218 216.916,221.069 217.064 " stroke="none" fill="#cfd4d4" fill-rule="evenodd"></path><path id="path3" d="M196.800 41.600 C 196.800 41.820,196.181 42.000,195.424 42.000 C 194.667 42.000,193.936 42.180,193.800 42.400 C 193.664 42.620,193.113 42.800,192.576 42.800 C 191.975 42.800,191.600 43.031,191.600 43.400 C 191.600 43.733,191.244 44.000,190.800 44.000 C 190.360 44.000,190.000 44.180,190.000 44.400 C 190.000 44.620,189.550 44.800,189.000 44.800 C 188.450 44.800,188.000 44.968,188.000 45.173 C 188.000 45.378,187.617 45.668,187.150 45.816 C 186.012 46.177,179.200 53.006,179.200 53.786 C 179.200 54.124,179.056 54.400,178.880 54.400 C 178.705 54.400,178.333 55.030,178.054 55.800 C 177.776 56.570,177.394 57.200,177.206 57.200 C 177.018 57.200,176.745 57.738,176.601 58.395 C 176.457 59.053,176.172 59.694,175.969 59.819 C 175.766 59.945,175.600 60.577,175.600 61.224 C 175.600 61.871,175.420 62.400,175.200 62.400 C 174.980 62.400,174.800 63.390,174.800 64.600 C 174.800 65.810,174.620 66.800,174.400 66.800 C 174.160 66.800,174.000 68.400,174.000 70.800 C 174.000 73.200,174.160 74.800,174.400 74.800 C 174.620 74.800,174.800 75.790,174.800 77.000 C 174.800 78.210,174.980 79.200,175.200 79.200 C 175.420 79.200,175.600 79.729,175.600 80.376 C 175.600 81.023,175.780 81.664,176.000 81.800 C 176.220 81.936,176.400 82.384,176.400 82.795 C 176.400 83.206,176.670 83.813,177.000 84.143 C 177.330 84.473,177.600 85.026,177.600 85.371 C 177.600 85.717,177.780 86.000,178.000 86.000 C 178.220 86.000,178.400 86.270,178.400 86.600 C 178.400 86.930,178.580 87.200,178.800 87.200 C 179.020 87.200,179.200 87.494,179.200 87.854 C 179.200 88.938,183.675 93.035,185.190 93.338 C 185.929 93.486,187.088 94.016,187.767 94.517 C 191.876 97.550,197.265 99.234,203.700 99.498 C 206.505 99.612,208.800 99.862,208.800 100.053 C 208.800 100.537,211.497 100.490,211.800 100.000 C 211.936 99.780,212.566 99.600,213.200 99.600 C 213.834 99.600,214.464 99.420,214.600 99.200 C 214.736 98.980,215.184 98.800,215.595 98.800 C 216.006 98.800,216.613 98.530,216.943 98.200 C 217.273 97.870,217.826 97.600,218.171 97.600 C 218.517 97.600,218.800 97.420,218.800 97.200 C 218.800 96.980,219.070 96.800,219.400 96.800 C 219.730 96.800,220.000 96.620,220.000 96.400 C 220.000 96.180,220.320 96.000,220.712 96.000 C 221.103 96.000,221.683 95.640,222.000 95.200 C 222.317 94.760,222.813 94.400,223.101 94.400 C 223.389 94.400,223.729 94.130,223.855 93.800 C 223.982 93.470,224.255 93.200,224.461 93.200 C 225.376 93.200,226.800 91.188,226.800 89.896 C 226.800 89.078,227.202 88.018,227.832 87.178 C 231.033 82.903,232.394 78.485,232.748 71.228 C 232.947 67.165,233.178 65.407,233.532 65.289 C 233.853 65.182,233.901 64.957,233.664 64.661 C 233.461 64.407,233.192 63.570,233.066 62.800 C 232.581 59.824,232.296 58.800,231.955 58.800 C 231.760 58.800,231.600 58.440,231.600 58.000 C 231.600 57.556,231.333 57.200,231.000 57.200 C 230.627 57.200,230.400 56.822,230.400 56.200 C 230.400 55.650,230.220 55.200,230.000 55.200 C 229.780 55.200,229.600 54.915,229.600 54.567 C 229.600 54.218,228.970 53.321,228.200 52.574 C 227.430 51.826,226.800 51.076,226.800 50.907 C 226.799 50.383,224.933 48.400,224.441 48.400 C 224.185 48.400,223.871 48.130,223.745 47.800 C 223.618 47.470,223.303 47.200,223.046 47.200 C 222.788 47.200,222.317 46.840,222.000 46.400 C 221.683 45.960,221.103 45.600,220.712 45.600 C 220.320 45.600,220.000 45.420,220.000 45.200 C 220.000 44.980,219.730 44.800,219.400 44.800 C 219.070 44.800,218.800 44.620,218.800 44.400 C 218.800 44.180,218.462 44.000,218.049 44.000 C 217.636 44.000,217.074 43.730,216.800 43.400 C 216.526 43.070,215.874 42.800,215.351 42.800 C 214.828 42.800,214.400 42.620,214.400 42.400 C 214.400 42.180,213.770 42.000,213.000 42.000 C 212.230 42.000,211.600 41.820,211.600 41.600 C 211.600 41.348,208.867 41.200,204.200 41.200 C 199.533 41.200,196.800 41.348,196.800 41.600 M249.200 41.600 C 249.200 41.820,248.951 42.000,248.646 42.000 C 247.322 42.000,242.800 45.677,242.800 46.753 C 242.800 46.999,242.620 47.200,242.400 47.200 C 242.180 47.200,242.000 47.650,242.000 48.200 C 242.000 48.750,241.820 49.200,241.600 49.200 C 241.040 49.200,241.084 58.109,241.650 59.350 C 241.898 59.894,242.524 60.445,243.042 60.575 C 243.566 60.706,244.723 61.828,245.652 63.105 C 248.069 66.428,251.766 71.367,252.009 71.600 C 252.797 72.353,253.600 74.164,253.600 75.186 C 253.600 75.854,253.780 76.400,254.000 76.400 C 254.220 76.400,254.400 76.745,254.400 77.168 C 254.400 77.590,255.030 78.529,255.800 79.256 C 256.570 79.982,257.200 80.761,257.201 80.988 C 257.201 81.215,257.741 82.030,258.400 82.800 C 259.059 83.570,259.599 84.425,259.599 84.700 C 259.600 84.975,259.870 85.200,260.200 85.200 C 260.530 85.200,260.800 85.470,260.800 85.800 C 260.800 86.130,260.980 86.400,261.200 86.400 C 261.420 86.400,261.600 86.625,261.601 86.900 C 261.601 87.175,262.141 88.030,262.800 88.800 C 263.459 89.570,263.999 90.329,263.999 90.487 C 264.000 90.644,264.639 91.412,265.420 92.193 C 267.001 93.774,266.931 94.400,265.176 94.400 C 264.529 94.400,264.000 94.580,264.000 94.800 C 264.000 95.020,263.381 95.200,262.624 95.200 C 261.867 95.200,261.136 95.380,261.000 95.600 C 260.864 95.820,260.268 96.006,259.676 96.013 C 256.738 96.047,256.717 95.974,263.827 110.211 C 267.442 117.451,270.400 123.678,270.400 124.049 C 270.400 124.528,270.633 124.664,271.200 124.516 C 271.640 124.401,272.000 124.148,272.000 123.953 C 272.000 123.759,272.366 123.600,272.813 123.600 C 273.259 123.600,273.729 123.330,273.855 123.000 C 273.982 122.670,274.426 122.400,274.843 122.400 C 275.259 122.400,275.600 122.220,275.600 122.000 C 275.600 121.780,275.949 121.600,276.376 121.600 C 276.803 121.600,277.264 121.420,277.400 121.200 C 277.536 120.980,277.997 120.800,278.424 120.800 C 278.851 120.800,279.200 120.620,279.200 120.400 C 279.200 120.180,279.560 120.000,280.000 120.000 C 280.440 120.000,280.800 119.840,280.800 119.643 C 280.800 119.447,281.250 119.174,281.800 119.036 C 282.350 118.898,282.800 118.608,282.800 118.392 C 282.800 118.177,283.160 118.000,283.600 118.000 C 284.040 118.000,284.400 117.820,284.400 117.600 C 284.400 117.380,284.659 117.200,284.975 117.200 C 285.550 117.200,289.664 115.100,290.800 114.227 C 291.130 113.973,291.895 113.548,292.500 113.283 C 295.880 111.799,296.800 111.225,296.800 110.600 C 296.800 110.185,297.905 109.200,298.371 109.200 C 298.607 109.200,298.800 108.840,298.800 108.400 C 298.800 107.960,298.980 107.600,299.200 107.600 C 299.420 107.600,299.600 107.150,299.600 106.600 C 299.600 106.050,299.780 105.600,300.000 105.600 C 300.244 105.600,300.400 103.771,300.400 100.912 C 300.400 96.064,299.416 92.426,298.100 92.407 C 297.825 92.403,297.600 92.164,297.600 91.875 C 297.600 91.587,297.240 90.964,296.800 90.492 C 296.360 90.020,296.000 89.446,296.000 89.217 C 296.000 88.988,295.820 88.800,295.600 88.800 C 295.380 88.800,295.200 88.517,295.200 88.171 C 295.200 87.453,294.266 86.400,293.629 86.400 C 293.393 86.400,293.200 86.040,293.200 85.600 C 293.200 85.160,293.020 84.800,292.800 84.800 C 292.580 84.800,292.400 84.570,292.400 84.288 C 292.400 84.007,292.040 83.517,291.600 83.200 C 291.160 82.883,290.800 82.369,290.800 82.058 C 290.800 81.746,290.395 81.110,289.900 80.643 C 289.405 80.176,288.745 79.300,288.432 78.697 C 288.120 78.094,287.715 77.600,287.532 77.600 C 287.350 77.600,287.200 77.330,287.200 77.000 C 287.200 76.670,287.020 76.400,286.800 76.400 C 286.580 76.400,286.400 76.155,286.400 75.856 C 286.400 75.557,285.950 74.974,285.400 74.561 C 284.850 74.148,284.400 73.493,284.400 73.105 C 284.400 72.717,284.220 72.400,284.000 72.400 C 283.780 72.400,283.600 72.170,283.600 71.888 C 283.600 71.607,283.240 71.117,282.800 70.800 C 282.360 70.483,282.000 69.987,282.000 69.699 C 282.000 69.411,281.730 69.071,281.400 68.945 C 281.070 68.818,280.800 68.464,280.800 68.157 C 280.800 67.851,280.620 67.600,280.400 67.600 C 280.180 67.600,280.000 67.364,280.000 67.075 C 280.000 66.787,279.640 66.164,279.200 65.692 C 278.760 65.220,278.400 64.728,278.400 64.600 C 278.400 64.353,277.916 63.729,276.600 62.281 C 276.160 61.796,275.530 60.860,275.200 60.200 C 274.870 59.540,274.240 58.604,273.800 58.119 C 272.344 56.516,272.000 56.038,272.000 55.617 C 272.000 55.388,271.850 55.200,271.668 55.200 C 271.485 55.200,271.082 54.705,270.773 54.100 C 270.464 53.495,269.804 52.604,269.306 52.119 C 268.808 51.635,268.400 51.041,268.400 50.801 C 268.400 50.560,267.964 49.928,267.431 49.395 C 266.898 48.862,266.334 48.023,266.178 47.532 C 265.890 46.623,265.059 45.600,264.610 45.600 C 264.251 45.600,262.401 43.693,262.397 43.318 C 262.393 42.898,260.434 42.000,259.520 42.000 C 259.124 42.000,258.800 41.820,258.800 41.600 C 258.800 41.356,256.933 41.200,254.000 41.200 C 251.067 41.200,249.200 41.356,249.200 41.600 M228.034 233.447 C 228.565 234.133,229.080 234.623,229.179 234.535 C 229.277 234.447,228.843 233.886,228.213 233.288 L 227.069 232.200 228.034 233.447 M306.331 275.002 C 306.220 275.113,289.540 275.204,269.265 275.204 L 232.400 275.204 232.400 277.602 C 232.400 278.934,232.222 280.000,232.000 280.000 C 231.780 280.000,231.600 280.450,231.600 281.000 C 231.600 281.622,231.373 282.000,231.000 282.000 C 230.667 282.000,230.400 282.356,230.400 282.800 C 230.400 283.240,230.220 283.600,230.000 283.600 C 229.780 283.600,229.600 284.050,229.600 284.600 C 229.600 285.150,229.420 285.600,229.200 285.600 C 228.980 285.600,228.800 285.960,228.800 286.400 C 228.800 286.840,228.620 287.200,228.400 287.200 C 228.180 287.200,228.000 287.560,228.000 288.000 C 228.000 288.440,227.823 288.800,227.608 288.800 C 227.392 288.800,227.102 289.250,226.964 289.800 C 226.826 290.350,226.553 290.800,226.357 290.800 C 226.160 290.800,226.000 291.160,226.000 291.600 C 226.000 292.040,225.820 292.400,225.600 292.400 C 225.380 292.400,225.200 292.850,225.200 293.400 C 225.200 293.950,225.020 294.400,224.800 294.400 C 224.580 294.400,224.400 294.760,224.400 295.200 C 224.400 295.640,224.220 296.000,224.000 296.000 C 223.780 296.000,223.600 296.341,223.600 296.757 C 223.600 297.174,223.330 297.618,223.000 297.745 C 222.670 297.871,222.400 298.341,222.400 298.787 C 222.400 299.234,222.220 299.600,222.000 299.600 C 221.780 299.600,221.600 299.960,221.600 300.400 C 221.600 300.840,221.420 301.200,221.200 301.200 C 220.980 301.200,220.800 301.650,220.800 302.200 C 220.800 302.750,220.620 303.200,220.400 303.200 C 220.180 303.200,220.000 303.560,220.000 304.000 C 220.000 304.440,219.820 304.800,219.600 304.800 C 219.380 304.800,219.200 305.250,219.200 305.800 C 219.200 306.422,218.973 306.800,218.600 306.800 C 218.267 306.800,218.000 307.156,218.000 307.600 C 218.000 308.040,217.820 308.400,217.600 308.400 C 217.380 308.400,217.200 308.749,217.200 309.176 C 217.200 309.603,217.020 310.064,216.800 310.200 C 216.580 310.336,216.400 310.797,216.400 311.224 C 216.400 311.651,216.220 312.000,216.000 312.000 C 215.780 312.000,215.600 312.360,215.600 312.800 C 215.600 313.240,215.420 313.600,215.200 313.600 C 214.980 313.600,214.800 314.050,214.800 314.600 C 214.800 315.222,214.573 315.600,214.200 315.600 C 213.867 315.600,213.600 315.956,213.600 316.400 C 213.600 316.840,213.420 317.200,213.200 317.200 C 212.980 317.200,212.800 317.650,212.800 318.200 C 212.800 318.750,212.620 319.200,212.400 319.200 C 212.180 319.200,212.000 319.560,212.000 320.000 C 212.000 320.440,211.820 320.800,211.600 320.800 C 211.380 320.800,211.200 321.141,211.200 321.557 C 211.200 321.974,210.930 322.418,210.600 322.545 C 210.270 322.671,210.000 323.141,210.000 323.587 C 210.000 324.034,209.820 324.400,209.600 324.400 C 209.380 324.400,209.200 324.760,209.200 325.200 C 209.200 325.640,209.020 326.000,208.800 326.000 C 208.580 326.000,208.400 326.450,208.400 327.000 C 208.400 327.550,208.220 328.000,208.000 328.000 C 207.780 328.000,207.600 328.360,207.600 328.800 C 207.600 329.240,207.420 329.600,207.200 329.600 C 206.980 329.600,206.800 330.050,206.800 330.600 C 206.800 331.222,206.573 331.600,206.200 331.600 C 205.867 331.600,205.600 331.956,205.600 332.400 C 205.600 332.840,205.420 333.200,205.200 333.200 C 204.980 333.200,204.800 333.560,204.800 334.000 C 204.800 334.440,204.620 334.800,204.400 334.800 C 204.180 334.800,204.000 335.250,204.000 335.800 C 204.000 336.350,203.820 336.800,203.600 336.800 C 203.380 336.800,203.200 337.160,203.200 337.600 C 203.200 338.040,203.020 338.400,202.800 338.400 C 202.580 338.400,202.400 338.850,202.400 339.400 C 202.400 340.022,202.173 340.400,201.800 340.400 C 201.467 340.400,201.200 340.756,201.200 341.200 C 201.200 341.640,201.020 342.000,200.800 342.000 C 200.580 342.000,200.400 342.435,200.400 342.967 C 200.400 343.498,200.208 343.997,199.974 344.075 C 199.378 344.274,199.365 355.722,199.961 355.920 C 200.203 356.001,200.400 356.502,200.400 357.033 C 200.400 357.565,200.580 358.000,200.800 358.000 C 201.020 358.000,201.200 358.360,201.200 358.800 C 201.200 359.240,201.426 359.600,201.702 359.600 C 201.979 359.600,202.463 360.185,202.778 360.900 C 203.428 362.374,204.143 363.200,204.771 363.200 C 205.007 363.200,205.200 363.380,205.200 363.600 C 205.200 363.820,205.560 364.000,206.000 364.000 C 206.440 364.000,206.800 364.248,206.800 364.551 C 206.800 364.855,207.385 365.320,208.100 365.585 C 208.815 365.850,209.713 366.232,210.095 366.433 C 210.477 366.635,211.231 366.800,211.771 366.800 C 212.311 366.800,212.864 366.980,213.000 367.200 C 213.136 367.420,214.767 367.600,216.624 367.600 C 218.608 367.600,220.000 367.435,220.000 367.200 C 220.000 366.980,220.709 366.800,221.576 366.800 C 222.443 366.800,223.264 366.620,223.400 366.400 C 223.536 366.180,223.997 366.000,224.424 366.000 C 224.851 366.000,225.200 365.820,225.200 365.600 C 225.200 365.380,225.476 365.200,225.813 365.200 C 226.149 365.200,226.529 364.930,226.655 364.600 C 226.782 364.270,227.045 364.000,227.241 364.000 C 227.769 364.000,231.600 360.153,231.600 359.623 C 231.600 359.372,231.960 358.780,232.400 358.308 C 232.840 357.836,233.200 357.123,233.200 356.725 C 233.200 356.326,233.380 356.000,233.600 356.000 C 233.820 356.000,234.000 355.640,234.000 355.200 C 234.000 354.760,234.180 354.400,234.400 354.400 C 234.620 354.400,234.800 353.965,234.800 353.433 C 234.800 352.902,234.953 352.407,235.139 352.333 C 235.622 352.144,237.600 348.488,237.600 347.786 C 237.600 347.464,237.780 347.200,238.000 347.200 C 238.220 347.200,238.400 346.840,238.400 346.400 C 238.400 345.960,238.580 345.600,238.800 345.600 C 239.020 345.600,239.200 345.150,239.200 344.600 C 239.200 343.978,239.427 343.600,239.800 343.600 C 240.133 343.600,240.400 343.244,240.400 342.800 C 240.400 342.360,240.580 342.000,240.800 342.000 C 241.020 342.000,241.200 341.651,241.200 341.224 C 241.200 340.797,241.380 340.336,241.600 340.200 C 241.820 340.064,242.000 339.603,242.000 339.176 C 242.000 338.749,242.180 338.400,242.400 338.400 C 242.620 338.400,242.800 338.040,242.800 337.600 C 242.800 337.160,242.977 336.800,243.192 336.800 C 243.408 336.800,243.698 336.350,243.836 335.800 C 243.974 335.250,244.247 334.800,244.443 334.800 C 244.640 334.800,244.800 334.440,244.800 334.000 C 244.800 333.560,244.980 333.200,245.200 333.200 C 245.420 333.200,245.600 332.851,245.600 332.424 C 245.600 331.997,245.780 331.536,246.000 331.400 C 246.220 331.264,246.400 330.803,246.400 330.376 C 246.400 329.949,246.580 329.600,246.800 329.600 C 247.020 329.600,247.200 329.259,247.200 328.843 C 247.200 328.426,247.470 327.982,247.800 327.855 C 248.130 327.729,248.400 327.259,248.400 326.813 C 248.400 326.366,248.580 326.000,248.800 326.000 C 249.020 326.000,249.200 325.640,249.200 325.200 C 249.200 324.760,249.380 324.400,249.600 324.400 C 249.820 324.400,250.000 323.950,250.000 323.400 C 250.000 322.850,250.180 322.400,250.400 322.400 C 250.620 322.400,250.800 322.040,250.800 321.600 C 250.800 321.160,250.980 320.800,251.200 320.800 C 251.420 320.800,251.600 320.459,251.600 320.043 C 251.600 319.626,251.870 319.182,252.200 319.055 C 252.530 318.929,252.800 318.459,252.800 318.013 C 252.800 317.566,252.980 317.200,253.200 317.200 C 253.420 317.200,253.600 316.840,253.600 316.400 C 253.600 315.960,253.780 315.600,254.000 315.600 C 254.220 315.600,254.400 315.150,254.400 314.600 C 254.400 314.050,254.580 313.600,254.800 313.600 C 255.020 313.600,255.200 313.240,255.200 312.800 C 255.200 312.360,255.380 312.000,255.600 312.000 C 255.820 312.000,256.000 311.550,256.000 311.000 C 256.000 310.378,256.227 310.000,256.600 310.000 C 256.933 310.000,257.200 309.644,257.200 309.200 C 257.200 308.760,257.380 308.400,257.600 308.400 C 257.820 308.400,258.000 308.040,258.000 307.600 C 258.000 307.160,258.180 306.800,258.400 306.800 C 258.620 306.800,258.800 306.350,258.800 305.800 C 258.800 305.250,258.959 304.800,259.153 304.800 C 259.348 304.800,259.616 304.485,259.749 304.100 C 259.882 303.715,260.340 302.860,260.766 302.200 C 261.193 301.540,261.555 300.700,261.571 300.333 C 261.587 299.967,261.735 299.607,261.900 299.533 C 262.332 299.341,264.000 296.028,264.000 295.362 C 264.000 295.053,264.147 294.800,264.326 294.800 C 264.724 294.800,266.000 292.199,266.000 291.386 C 266.000 291.064,266.180 290.800,266.400 290.800 C 266.620 290.800,266.800 290.080,266.800 289.200 C 266.800 288.320,266.980 287.600,267.200 287.600 C 267.435 287.600,267.600 286.200,267.600 284.200 C 267.600 282.200,267.765 280.800,268.000 280.800 C 268.220 280.800,268.400 280.328,268.400 279.751 C 268.400 278.864,268.493 278.779,269.000 279.200 C 269.330 279.474,269.600 280.216,269.600 280.849 C 269.600 281.482,269.741 282.000,269.913 282.000 C 270.085 282.000,270.471 282.855,270.771 283.900 C 271.071 284.945,271.445 285.980,271.603 286.200 C 271.761 286.420,272.008 287.095,272.152 287.700 C 272.297 288.305,272.592 288.800,272.808 288.800 C 273.023 288.800,273.200 289.250,273.200 289.800 C 273.200 290.350,273.380 290.800,273.600 290.800 C 273.820 290.800,274.000 291.340,274.000 292.000 C 274.000 292.660,274.180 293.200,274.400 293.200 C 274.620 293.200,274.800 293.650,274.800 294.200 C 274.800 294.750,274.980 295.200,275.200 295.200 C 275.420 295.200,275.600 295.740,275.600 296.400 C 275.600 297.060,275.780 297.600,276.000 297.600 C 276.220 297.600,276.400 298.050,276.400 298.600 C 276.400 299.222,276.627 299.600,277.000 299.600 C 277.400 299.600,277.600 300.000,277.600 300.800 C 277.600 301.460,277.780 302.000,278.000 302.000 C 278.220 302.000,278.400 302.439,278.400 302.976 C 278.400 303.513,278.580 304.064,278.800 304.200 C 279.020 304.336,279.200 304.799,279.200 305.229 C 279.200 305.659,279.359 306.323,279.553 306.705 C 280.124 307.828,280.731 309.334,281.002 310.300 C 281.140 310.795,281.422 311.200,281.627 311.200 C 281.832 311.200,282.000 311.740,282.000 312.400 C 282.000 313.060,282.180 313.600,282.400 313.600 C 282.620 313.600,282.800 314.050,282.800 314.600 C 282.800 315.150,282.980 315.600,283.200 315.600 C 283.420 315.600,283.600 316.140,283.600 316.800 C 283.600 317.460,283.780 318.000,284.000 318.000 C 284.220 318.000,284.400 318.431,284.400 318.957 C 284.400 319.484,284.670 320.018,285.000 320.145 C 285.330 320.271,285.600 320.831,285.600 321.387 C 285.600 321.944,285.780 322.400,286.000 322.400 C 286.220 322.400,286.400 322.850,286.400 323.400 C 286.400 323.950,286.580 324.400,286.800 324.400 C 287.020 324.400,287.200 324.940,287.200 325.600 C 287.200 326.260,287.380 326.800,287.600 326.800 C 287.820 326.800,288.000 327.250,288.000 327.800 C 288.000 328.350,288.180 328.800,288.400 328.800 C 288.620 328.800,288.800 329.321,288.800 329.957 C 288.800 330.617,289.058 331.213,289.400 331.345 C 289.730 331.471,290.000 331.943,290.000 332.393 C 290.000 332.843,290.208 333.613,290.462 334.105 C 291.434 335.984,291.600 336.407,291.600 337.000 C 291.600 337.336,291.759 337.923,291.953 338.305 C 292.524 339.428,293.131 340.934,293.402 341.900 C 293.540 342.395,293.822 342.800,294.027 342.800 C 294.232 342.800,294.400 343.250,294.400 343.800 C 294.400 344.350,294.580 344.800,294.800 344.800 C 295.020 344.800,295.200 345.340,295.200 346.000 C 295.200 346.660,295.380 347.200,295.600 347.200 C 295.820 347.200,296.000 347.650,296.000 348.200 C 296.000 348.750,296.180 349.200,296.400 349.200 C 296.620 349.200,296.800 349.740,296.800 350.400 C 296.800 351.060,296.980 351.600,297.200 351.600 C 297.420 351.600,297.600 351.938,297.600 352.351 C 297.600 352.764,297.870 353.326,298.200 353.600 C 298.530 353.874,298.800 354.526,298.800 355.049 C 298.800 355.572,298.980 356.000,299.200 356.000 C 299.420 356.000,299.600 356.450,299.600 357.000 C 299.600 357.550,299.780 358.000,300.000 358.000 C 300.220 358.000,300.400 358.278,300.400 358.617 C 300.400 358.957,300.850 359.720,301.400 360.313 C 301.950 360.907,302.400 361.553,302.400 361.749 C 302.400 362.158,304.446 363.999,304.900 364.000 C 305.065 364.000,305.566 364.366,306.012 364.813 C 306.459 365.259,307.359 365.732,308.013 365.863 C 308.666 365.993,309.200 366.257,309.200 366.450 C 309.200 366.643,309.830 366.800,310.600 366.800 C 311.370 366.800,312.000 366.980,312.000 367.200 C 312.000 367.437,313.459 367.600,315.576 367.600 C 317.543 367.600,319.264 367.420,319.400 367.200 C 319.536 366.980,320.267 366.800,321.024 366.800 C 321.781 366.800,322.400 366.620,322.400 366.400 C 322.400 366.180,322.850 366.000,323.400 366.000 C 323.950 366.000,324.400 365.820,324.400 365.600 C 324.400 365.380,324.645 365.200,324.944 365.200 C 325.243 365.200,325.826 364.750,326.239 364.200 C 326.652 363.650,327.133 363.200,327.308 363.200 C 327.678 363.200,330.400 360.545,330.400 360.185 C 330.400 360.052,330.625 359.692,330.900 359.385 C 332.174 357.965,332.400 357.581,332.400 356.840 C 332.400 356.404,332.580 355.936,332.800 355.800 C 333.020 355.664,333.200 354.933,333.200 354.176 C 333.200 353.419,333.380 352.800,333.600 352.800 C 333.846 352.800,334.000 350.808,334.000 347.624 C 334.000 344.604,333.833 342.344,333.600 342.200 C 333.380 342.064,333.200 341.603,333.200 341.176 C 333.200 340.749,333.020 340.400,332.800 340.400 C 332.580 340.400,332.400 339.871,332.400 339.224 C 332.400 338.577,332.220 337.936,332.000 337.800 C 331.780 337.664,331.600 337.203,331.600 336.776 C 331.600 336.349,331.330 336.000,331.000 336.000 C 330.581 336.000,330.400 335.578,330.400 334.600 C 330.400 333.830,330.220 333.200,330.000 333.200 C 329.780 333.200,329.600 332.761,329.600 332.224 C 329.600 331.687,329.420 331.136,329.200 331.000 C 328.980 330.864,328.800 330.313,328.800 329.776 C 328.800 329.239,328.620 328.800,328.400 328.800 C 328.180 328.800,328.000 328.372,328.000 327.849 C 328.000 327.326,327.730 326.674,327.400 326.400 C 327.070 326.126,326.800 325.564,326.800 325.151 C 326.800 324.738,326.620 324.400,326.400 324.400 C 326.180 324.400,326.000 323.871,326.000 323.224 C 326.000 322.577,325.820 321.936,325.600 321.800 C 325.380 321.664,325.200 321.203,325.200 320.776 C 325.200 320.349,325.020 320.000,324.800 320.000 C 324.580 320.000,324.400 319.471,324.400 318.824 C 324.400 318.177,324.220 317.536,324.000 317.400 C 323.780 317.264,323.600 316.823,323.600 316.419 C 323.600 316.016,323.330 315.582,323.000 315.455 C 322.649 315.321,322.400 314.721,322.400 314.013 C 322.400 313.346,322.220 312.800,322.000 312.800 C 321.780 312.800,321.600 312.361,321.600 311.824 C 321.600 311.287,321.420 310.736,321.200 310.600 C 320.980 310.464,320.800 309.913,320.800 309.376 C 320.800 308.839,320.620 308.400,320.400 308.400 C 320.180 308.400,320.000 307.961,320.000 307.424 C 320.000 306.887,319.820 306.336,319.600 306.200 C 319.380 306.064,319.200 305.598,319.200 305.164 C 319.200 304.730,318.930 304.271,318.600 304.145 C 318.262 304.015,318.000 303.419,318.000 302.781 C 318.000 302.157,317.820 301.536,317.600 301.400 C 317.380 301.264,317.200 300.803,317.200 300.376 C 317.200 299.949,317.020 299.600,316.800 299.600 C 316.580 299.600,316.400 299.071,316.400 298.424 C 316.400 297.777,316.220 297.136,316.000 297.000 C 315.780 296.864,315.600 296.403,315.600 295.976 C 315.600 295.549,315.420 295.200,315.200 295.200 C 314.980 295.200,314.800 294.763,314.800 294.229 C 314.800 293.694,314.530 292.987,314.200 292.657 C 313.870 292.327,313.600 291.695,313.600 291.252 C 313.600 290.809,313.420 290.336,313.200 290.200 C 312.980 290.064,312.800 289.513,312.800 288.976 C 312.800 288.439,312.620 288.000,312.400 288.000 C 312.180 288.000,312.000 287.561,312.000 287.024 C 312.000 286.487,311.820 285.936,311.600 285.800 C 311.380 285.664,311.200 285.113,311.200 284.576 C 311.200 283.975,310.969 283.600,310.600 283.600 C 310.200 283.600,310.000 283.200,310.000 282.400 C 310.000 281.740,309.820 281.200,309.600 281.200 C 309.380 281.200,309.200 280.750,309.200 280.200 C 309.200 279.650,309.020 279.200,308.800 279.200 C 308.580 279.200,308.400 278.671,308.400 278.024 C 308.400 277.377,308.220 276.736,308.000 276.600 C 307.780 276.464,307.600 276.003,307.600 275.576 C 307.600 274.867,306.819 274.514,306.331 275.002 " stroke="none" fill="#fcbc54" fill-rule="evenodd"></path><path id="path4" d="M243.216 60.878 C 243.555 61.165,244.364 62.120,245.014 63.000 C 245.664 63.880,246.292 64.690,246.411 64.800 C 247.363 65.686,253.054 73.994,253.253 74.788 C 253.493 75.752,253.508 75.757,253.553 74.886 C 253.593 74.109,252.731 72.279,252.005 71.600 C 251.733 71.346,246.447 64.227,245.248 62.499 C 244.751 61.784,243.952 61.009,243.472 60.777 C 242.733 60.420,242.694 60.436,243.216 60.878 M232.719 71.600 C 232.426 78.418,231.009 82.935,227.832 87.178 C 226.787 88.573,226.468 90.000,227.200 90.000 C 227.420 90.000,227.600 89.627,227.600 89.172 C 227.600 88.717,228.100 87.592,228.712 86.672 C 230.166 84.485,231.615 81.460,232.076 79.649 C 233.436 74.299,233.837 70.038,233.228 67.400 C 233.055 66.649,232.864 68.220,232.719 71.600 M187.186 94.650 C 187.872 95.227,188.527 95.607,188.640 95.493 C 188.852 95.282,186.691 93.600,186.208 93.600 C 186.060 93.600,186.500 94.072,187.186 94.650 M189.200 95.760 C 189.200 96.406,195.930 99.204,197.400 99.169 C 197.840 99.159,197.300 98.870,196.200 98.527 C 195.100 98.183,193.212 97.430,192.005 96.851 C 189.110 95.465,189.200 95.500,189.200 95.760 M256.100 97.065 C 255.330 97.376,255.508 98.000,256.367 98.000 C 257.338 98.000,270.526 124.016,269.698 124.297 C 269.421 124.391,269.299 124.636,269.425 124.841 C 269.756 125.376,270.400 124.872,270.402 124.076 C 270.404 123.264,257.250 96.786,256.867 96.832 C 256.720 96.849,256.375 96.954,256.100 97.065 M254.200 97.885 C 252.876 98.204,252.535 98.800,253.677 98.800 C 254.248 98.800,254.818 98.530,254.945 98.200 C 255.071 97.870,255.136 97.621,255.087 97.646 C 255.039 97.672,254.640 97.779,254.200 97.885 M199.000 99.537 C 200.050 100.006,208.800 100.357,208.800 99.930 C 208.800 99.748,207.135 99.598,205.100 99.596 C 203.065 99.593,200.680 99.499,199.800 99.385 C 198.664 99.239,198.432 99.283,199.000 99.537 M220.087 108.862 C 220.295 109.485,221.190 109.594,221.221 109.000 C 221.233 108.780,220.942 108.538,220.575 108.462 C 220.158 108.375,219.975 108.525,220.087 108.862 M217.400 109.533 C 216.955 109.979,217.246 110.400,218.000 110.400 C 218.440 110.400,218.800 110.160,218.800 109.867 C 218.800 109.354,217.814 109.120,217.400 109.533 M215.810 110.384 C 215.471 110.933,215.771 111.345,216.362 111.142 C 216.604 111.058,216.635 110.776,216.437 110.457 C 216.187 110.055,216.025 110.036,215.810 110.384 M213.600 111.600 C 213.600 111.820,213.870 112.000,214.200 112.000 C 214.530 112.000,214.800 111.820,214.800 111.600 C 214.800 111.380,214.530 111.200,214.200 111.200 C 213.870 111.200,213.600 111.380,213.600 111.600 M211.896 112.580 C 211.139 113.133,210.958 114.000,211.600 114.000 C 211.820 114.000,212.000 113.743,212.000 113.429 C 212.000 113.115,212.315 112.796,212.700 112.720 C 213.085 112.644,213.218 112.466,212.996 112.326 C 212.773 112.186,212.278 112.300,211.896 112.580 M206.718 117.196 C 206.122 118.057,205.872 118.671,206.161 118.560 C 206.451 118.448,206.923 117.917,207.211 117.379 C 207.499 116.840,207.885 116.400,208.068 116.400 C 208.250 116.400,208.400 116.220,208.400 116.000 C 208.400 115.216,207.784 115.654,206.718 117.196 M204.700 119.757 C 203.938 120.335,203.759 121.200,204.400 121.200 C 204.620 121.200,204.800 120.930,204.800 120.600 C 204.800 120.270,205.070 120.000,205.400 120.000 C 205.730 120.000,206.000 119.820,206.000 119.600 C 206.000 119.061,205.544 119.116,204.700 119.757 M203.097 122.395 C 202.714 122.843,202.400 123.418,202.400 123.673 C 202.400 123.928,202.112 124.455,201.761 124.843 C 201.409 125.232,201.242 125.744,201.388 125.981 C 201.769 126.597,202.400 126.094,202.400 125.176 C 202.400 124.749,202.580 124.400,202.800 124.400 C 203.020 124.400,203.200 124.055,203.200 123.633 C 203.200 123.212,203.407 122.798,203.660 122.713 C 203.913 122.629,204.047 122.340,203.957 122.071 C 203.848 121.744,203.561 121.853,203.097 122.395 M266.000 126.400 C 266.000 126.620,265.640 126.800,265.200 126.800 C 264.756 126.800,264.400 127.067,264.400 127.400 C 264.400 127.730,264.558 128.000,264.751 128.000 C 264.944 128.000,265.326 127.730,265.600 127.400 C 265.874 127.070,266.346 126.800,266.649 126.800 C 266.952 126.800,267.200 126.620,267.200 126.400 C 267.200 126.180,266.930 126.000,266.600 126.000 C 266.270 126.000,266.000 126.180,266.000 126.400 M200.400 127.800 C 200.400 128.167,200.594 128.402,200.830 128.323 C 201.067 128.244,201.260 128.009,201.260 127.800 C 201.260 127.591,201.067 127.356,200.830 127.277 C 200.594 127.198,200.400 127.433,200.400 127.800 M262.720 128.480 C 263.093 128.853,263.307 128.853,263.680 128.480 C 264.053 128.107,263.947 128.000,263.200 128.000 C 262.453 128.000,262.347 128.107,262.720 128.480 M199.600 131.224 C 199.600 131.937,199.767 132.344,200.000 132.200 C 200.220 132.064,200.400 131.513,200.400 130.976 C 200.400 130.439,200.220 130.000,200.000 130.000 C 199.780 130.000,199.600 130.551,199.600 131.224 M258.000 131.200 C 258.000 131.640,258.180 132.000,258.400 132.000 C 258.620 132.000,258.800 131.640,258.800 131.200 C 258.800 130.760,258.620 130.400,258.400 130.400 C 258.180 130.400,258.000 130.760,258.000 131.200 M258.800 134.176 C 258.800 134.739,258.980 135.200,259.200 135.200 C 259.420 135.200,259.600 134.851,259.600 134.424 C 259.600 133.997,259.420 133.536,259.200 133.400 C 258.973 133.260,258.800 133.596,258.800 134.176 M259.600 137.000 C 259.600 137.577,259.830 138.000,260.145 138.000 C 260.510 138.000,260.626 137.671,260.498 137.000 C 260.393 136.450,260.148 136.000,259.953 136.000 C 259.759 136.000,259.600 136.450,259.600 137.000 M260.475 140.025 C 260.571 140.314,260.886 140.629,261.175 140.725 C 261.475 140.825,261.625 140.675,261.525 140.375 C 261.429 140.086,261.114 139.771,260.825 139.675 C 260.525 139.575,260.375 139.725,260.475 140.025 M261.600 143.000 C 261.600 143.596,261.772 143.941,262.000 143.800 C 262.220 143.664,262.400 143.304,262.400 143.000 C 262.400 142.696,262.220 142.336,262.000 142.200 C 261.772 142.059,261.600 142.404,261.600 143.000 M199.600 143.776 C 199.600 144.313,199.780 144.864,200.000 145.000 C 200.233 145.144,200.400 144.737,200.400 144.024 C 200.400 143.351,200.220 142.800,200.000 142.800 C 199.780 142.800,199.600 143.239,199.600 143.776 M262.400 145.800 C 262.400 146.350,262.580 146.800,262.800 146.800 C 263.020 146.800,263.200 146.350,263.200 145.800 C 263.200 145.250,263.020 144.800,262.800 144.800 C 262.580 144.800,262.400 145.250,262.400 145.800 M200.400 146.976 C 200.400 147.293,200.580 147.664,200.800 147.800 C 201.020 147.936,201.200 147.677,201.200 147.224 C 201.200 146.771,201.020 146.400,200.800 146.400 C 200.580 146.400,200.400 146.659,200.400 146.976 M263.206 148.500 C 263.203 149.105,263.380 149.600,263.600 149.600 C 264.106 149.600,264.106 148.783,263.600 148.000 C 263.298 147.532,263.211 147.643,263.206 148.500 M201.400 149.600 C 201.108 150.072,201.487 150.800,202.024 150.800 C 202.231 150.800,202.400 150.440,202.400 150.000 C 202.400 149.156,201.818 148.924,201.400 149.600 M264.000 151.800 C 264.000 152.422,264.227 152.800,264.600 152.800 C 265.246 152.800,265.341 152.434,264.957 151.433 C 264.584 150.459,264.000 150.683,264.000 151.800 M202.400 153.400 C 202.400 153.950,202.580 154.400,202.800 154.400 C 203.020 154.400,203.200 153.950,203.200 153.400 C 203.200 152.850,203.020 152.400,202.800 152.400 C 202.580 152.400,202.400 152.850,202.400 153.400 M265.200 153.944 C 265.200 154.159,265.091 154.619,264.957 154.967 C 264.798 155.382,264.935 155.600,265.357 155.600 C 266.063 155.600,266.252 154.203,265.600 153.800 C 265.380 153.664,265.200 153.729,265.200 153.944 M203.200 156.600 C 203.200 157.150,203.380 157.600,203.600 157.600 C 203.820 157.600,204.000 157.150,204.000 156.600 C 204.000 156.050,203.820 155.600,203.600 155.600 C 203.380 155.600,203.200 156.050,203.200 156.600 M266.000 157.576 C 266.000 158.029,266.180 158.400,266.400 158.400 C 266.620 158.400,266.800 158.141,266.800 157.824 C 266.800 157.507,266.620 157.136,266.400 157.000 C 266.180 156.864,266.000 157.123,266.000 157.576 M204.000 159.600 C 204.000 160.040,204.180 160.400,204.400 160.400 C 204.620 160.400,204.800 160.040,204.800 159.600 C 204.800 159.160,204.620 158.800,204.400 158.800 C 204.180 158.800,204.000 159.160,204.000 159.600 M266.800 160.576 C 266.800 161.139,266.980 161.600,267.200 161.600 C 267.420 161.600,267.600 161.251,267.600 160.824 C 267.600 160.397,267.420 159.936,267.200 159.800 C 266.973 159.660,266.800 159.996,266.800 160.576 M204.800 162.367 C 204.800 163.358,205.314 164.064,205.650 163.534 C 206.175 162.704,206.060 162.000,205.400 162.000 C 205.070 162.000,204.800 162.165,204.800 162.367 M267.600 163.376 C 267.600 163.939,267.780 164.400,268.000 164.400 C 268.220 164.400,268.400 164.051,268.400 163.624 C 268.400 163.197,268.220 162.736,268.000 162.600 C 267.773 162.460,267.600 162.796,267.600 163.376 M205.741 165.693 C 205.814 166.169,206.082 166.627,206.337 166.712 C 207.027 166.942,206.898 165.323,206.205 165.057 C 205.771 164.891,205.645 165.064,205.741 165.693 M268.400 166.324 C 268.400 166.759,268.668 167.217,268.995 167.343 C 269.429 167.509,269.555 167.336,269.459 166.707 C 269.290 165.600,268.400 165.278,268.400 166.324 M206.800 169.400 C 206.800 169.950,206.980 170.400,207.200 170.400 C 207.420 170.400,207.600 169.950,207.600 169.400 C 207.600 168.850,207.420 168.400,207.200 168.400 C 206.980 168.400,206.800 168.850,206.800 169.400 M269.600 169.600 C 269.600 170.040,269.780 170.400,270.000 170.400 C 270.220 170.400,270.400 170.040,270.400 169.600 C 270.400 169.160,270.220 168.800,270.000 168.800 C 269.780 168.800,269.600 169.160,269.600 169.600 M270.400 172.176 C 270.400 172.739,270.580 173.200,270.800 173.200 C 271.020 173.200,271.200 172.851,271.200 172.424 C 271.200 171.997,271.020 171.536,270.800 171.400 C 270.573 171.260,270.400 171.596,270.400 172.176 M207.600 172.176 C 207.600 172.493,207.780 172.864,208.000 173.000 C 208.220 173.136,208.400 172.877,208.400 172.424 C 208.400 171.971,208.220 171.600,208.000 171.600 C 207.780 171.600,207.600 171.859,207.600 172.176 M271.200 175.176 C 271.200 175.629,271.380 176.000,271.600 176.000 C 271.820 176.000,272.000 175.741,272.000 175.424 C 272.000 175.107,271.820 174.736,271.600 174.600 C 271.380 174.464,271.200 174.723,271.200 175.176 M208.400 175.600 C 208.400 176.040,208.580 176.400,208.800 176.400 C 209.020 176.400,209.200 176.040,209.200 175.600 C 209.200 175.160,209.020 174.800,208.800 174.800 C 208.580 174.800,208.400 175.160,208.400 175.600 M272.000 178.324 C 272.000 178.759,272.239 179.206,272.530 179.318 C 272.876 179.451,273.039 179.230,272.999 178.684 C 272.919 177.607,272.000 177.276,272.000 178.324 M209.357 178.633 C 209.491 178.981,209.600 179.441,209.600 179.656 C 209.600 179.871,209.780 179.936,210.000 179.800 C 210.652 179.397,210.463 178.000,209.757 178.000 C 209.335 178.000,209.198 178.218,209.357 178.633 M273.073 180.261 C 272.565 180.769,272.796 182.000,273.400 182.000 C 273.730 182.000,273.997 181.775,273.994 181.500 C 273.985 180.755,273.385 179.948,273.073 180.261 M210.000 181.180 C 210.000 181.861,210.488 182.800,210.843 182.800 C 211.447 182.800,211.238 181.300,210.600 181.055 C 210.270 180.929,210.000 180.985,210.000 181.180 M274.000 184.200 C 274.000 184.796,274.172 185.141,274.400 185.000 C 274.620 184.864,274.800 184.504,274.800 184.200 C 274.800 183.896,274.620 183.536,274.400 183.400 C 274.172 183.259,274.000 183.604,274.000 184.200 M211.200 185.176 C 211.200 185.603,211.380 186.064,211.600 186.200 C 211.827 186.340,212.000 186.004,212.000 185.424 C 212.000 184.861,211.820 184.400,211.600 184.400 C 211.380 184.400,211.200 184.749,211.200 185.176 M274.800 187.200 C 274.800 187.640,274.980 188.000,275.200 188.000 C 275.420 188.000,275.600 187.640,275.600 187.200 C 275.600 186.760,275.420 186.400,275.200 186.400 C 274.980 186.400,274.800 186.760,274.800 187.200 M212.006 188.100 C 212.020 189.242,212.788 189.826,212.794 188.700 C 212.797 188.095,212.620 187.600,212.400 187.600 C 212.180 187.600,212.003 187.825,212.006 188.100 M275.600 190.000 C 275.600 190.440,275.780 190.800,276.000 190.800 C 276.220 190.800,276.400 190.440,276.400 190.000 C 276.400 189.560,276.220 189.200,276.000 189.200 C 275.780 189.200,275.600 189.560,275.600 190.000 M212.800 191.376 C 212.800 191.693,212.980 192.064,213.200 192.200 C 213.420 192.336,213.600 192.077,213.600 191.624 C 213.600 191.171,213.420 190.800,213.200 190.800 C 212.980 190.800,212.800 191.059,212.800 191.376 M276.400 193.000 C 276.400 193.594,276.629 194.000,276.965 194.000 C 277.287 194.000,277.472 193.699,277.395 193.300 C 277.322 192.915,277.247 192.465,277.231 192.300 C 277.149 191.498,276.400 192.129,276.400 193.000 M213.757 194.633 C 213.891 194.981,214.000 195.431,214.000 195.633 C 214.000 195.835,214.180 196.000,214.400 196.000 C 214.620 196.000,214.800 195.550,214.800 195.000 C 214.800 194.348,214.576 194.000,214.157 194.000 C 213.735 194.000,213.598 194.218,213.757 194.633 M277.600 195.976 C 277.600 196.429,277.780 196.800,278.000 196.800 C 278.220 196.800,278.400 196.541,278.400 196.224 C 278.400 195.907,278.220 195.536,278.000 195.400 C 277.780 195.264,277.600 195.523,277.600 195.976 M214.800 198.000 C 214.800 198.440,214.980 198.800,215.200 198.800 C 215.420 198.800,215.600 198.440,215.600 198.000 C 215.600 197.560,215.420 197.200,215.200 197.200 C 214.980 197.200,214.800 197.560,214.800 198.000 M278.400 198.776 C 278.400 199.203,278.580 199.664,278.800 199.800 C 279.027 199.940,279.200 199.604,279.200 199.024 C 279.200 198.461,279.020 198.000,278.800 198.000 C 278.580 198.000,278.400 198.349,278.400 198.776 M215.600 201.200 C 215.600 201.640,215.780 202.000,216.000 202.000 C 216.220 202.000,216.400 201.640,216.400 201.200 C 216.400 200.760,216.220 200.400,216.000 200.400 C 215.780 200.400,215.600 200.760,215.600 201.200 M279.200 201.776 C 279.200 202.339,279.380 202.800,279.600 202.800 C 279.820 202.800,280.000 202.451,280.000 202.024 C 280.000 201.597,279.820 201.136,279.600 201.000 C 279.373 200.860,279.200 201.196,279.200 201.776 M216.400 204.376 C 216.400 204.803,216.580 205.264,216.800 205.400 C 217.027 205.540,217.200 205.204,217.200 204.624 C 217.200 204.061,217.020 203.600,216.800 203.600 C 216.580 203.600,216.400 203.949,216.400 204.376 M280.000 205.024 C 280.000 205.604,280.173 205.940,280.400 205.800 C 280.620 205.664,280.800 205.203,280.800 204.776 C 280.800 204.349,280.620 204.000,280.400 204.000 C 280.180 204.000,280.000 204.461,280.000 205.024 M217.200 207.176 C 217.200 207.603,217.365 208.055,217.566 208.179 C 218.004 208.450,218.357 207.603,218.098 206.900 C 217.813 206.123,217.200 206.311,217.200 207.176 M280.800 207.800 C 280.800 208.788,281.342 209.141,281.778 208.436 C 282.067 207.968,281.624 206.800,281.157 206.800 C 280.961 206.800,280.800 207.250,280.800 207.800 M282.006 210.500 C 282.003 211.105,282.180 211.600,282.400 211.600 C 282.906 211.600,282.906 210.783,282.400 210.000 C 282.098 209.532,282.011 209.643,282.006 210.500 M218.400 211.000 C 218.400 211.550,218.580 212.000,218.800 212.000 C 219.020 212.000,219.200 211.550,219.200 211.000 C 219.200 210.450,219.020 210.000,218.800 210.000 C 218.580 210.000,218.400 210.450,218.400 211.000 M219.206 213.500 C 219.209 213.885,219.387 214.470,219.600 214.800 C 219.894 215.255,219.989 215.086,219.994 214.100 C 219.997 213.385,219.820 212.800,219.600 212.800 C 219.380 212.800,219.203 213.115,219.206 213.500 M282.800 213.824 C 282.800 214.404,282.973 214.740,283.200 214.600 C 283.420 214.464,283.600 214.003,283.600 213.576 C 283.600 213.149,283.420 212.800,283.200 212.800 C 282.980 212.800,282.800 213.261,282.800 213.824 M283.270 216.437 C 282.788 217.209,282.449 217.263,278.874 217.137 L 275.000 217.000 274.955 218.000 C 274.914 218.922,274.655 221.199,273.611 229.800 C 273.398 231.560,273.044 234.530,272.826 236.400 C 272.607 238.270,272.150 241.960,271.810 244.600 C 270.746 252.856,270.345 256.096,269.980 259.400 C 268.648 271.452,268.238 274.004,267.562 274.435 C 267.248 274.635,259.678 274.750,250.400 274.696 L 233.800 274.600 233.696 255.804 L 233.592 237.008 231.995 235.504 C 231.117 234.677,230.231 234.000,230.026 234.000 C 229.822 234.000,229.242 233.415,228.738 232.700 C 228.234 231.985,227.502 231.051,227.111 230.625 C 226.720 230.198,226.400 229.703,226.400 229.525 C 226.400 229.346,226.111 229.200,225.757 229.200 C 225.365 229.200,225.200 228.978,225.333 228.629 C 225.454 228.315,225.293 227.843,224.976 227.580 C 224.659 227.317,224.400 226.854,224.400 226.551 C 224.400 226.248,224.220 226.000,224.000 226.000 C 223.780 226.000,223.600 225.651,223.600 225.224 C 223.600 224.797,223.420 224.336,223.200 224.200 C 222.980 224.064,222.800 223.524,222.800 223.000 C 222.800 221.840,222.090 221.301,221.745 222.199 C 221.488 222.869,222.765 225.987,223.300 225.995 C 223.465 225.998,223.600 226.234,223.600 226.520 C 223.600 227.256,224.541 229.193,224.900 229.197 C 225.065 229.199,225.200 229.387,225.200 229.615 C 225.200 229.844,226.100 230.969,227.200 232.115 C 228.299 233.262,229.199 234.335,229.200 234.500 C 229.200 234.665,229.374 234.800,229.586 234.800 C 229.799 234.800,230.519 235.334,231.186 235.987 L 232.400 237.173 232.400 256.182 L 232.400 275.192 250.300 275.296 C 287.427 275.512,306.403 275.257,306.678 274.540 C 306.895 273.975,306.566 273.059,305.156 270.305 C 304.960 269.923,304.800 269.259,304.800 268.829 C 304.800 268.399,304.620 267.936,304.400 267.800 C 304.180 267.664,304.000 267.203,304.000 266.776 C 304.000 266.349,303.820 266.000,303.600 266.000 C 303.380 266.000,303.200 265.471,303.200 264.824 C 303.200 264.177,303.020 263.536,302.800 263.400 C 302.580 263.264,302.400 262.825,302.400 262.425 C 302.400 262.025,302.130 261.474,301.800 261.200 C 301.470 260.926,301.200 260.274,301.200 259.751 C 301.200 259.228,301.020 258.800,300.800 258.800 C 300.580 258.800,300.400 258.260,300.400 257.600 C 300.400 256.940,300.220 256.400,300.000 256.400 C 299.780 256.400,299.600 255.950,299.600 255.400 C 299.600 254.850,299.420 254.400,299.200 254.400 C 298.980 254.400,298.800 253.944,298.800 253.387 C 298.800 252.831,298.530 252.271,298.200 252.145 C 297.870 252.018,297.600 251.494,297.600 250.981 C 297.600 250.467,297.420 249.936,297.200 249.800 C 296.980 249.664,296.800 249.124,296.800 248.600 C 296.800 248.076,296.620 247.536,296.400 247.400 C 296.180 247.264,296.000 246.801,296.000 246.371 C 296.000 245.941,295.841 245.277,295.647 244.895 C 295.452 244.513,295.071 243.660,294.800 243.000 C 294.529 242.340,294.147 241.530,293.951 241.200 C 293.755 240.870,293.493 240.330,293.368 240.000 C 293.244 239.670,292.975 239.087,292.771 238.705 C 292.567 238.323,292.400 237.558,292.400 237.005 C 292.400 236.452,292.220 236.000,292.000 236.000 C 291.780 236.000,291.600 235.550,291.600 235.000 C 291.600 234.450,291.420 234.000,291.200 234.000 C 290.980 234.000,290.800 233.460,290.800 232.800 C 290.800 232.140,290.640 231.600,290.443 231.600 C 290.247 231.600,289.974 231.150,289.836 230.600 C 289.698 230.050,289.408 229.600,289.192 229.600 C 288.977 229.600,288.800 229.060,288.800 228.400 C 288.800 227.740,288.620 227.200,288.400 227.200 C 288.180 227.200,288.000 226.761,288.000 226.224 C 288.000 225.687,287.820 225.136,287.600 225.000 C 287.380 224.864,287.200 224.313,287.200 223.776 C 287.200 223.239,287.020 222.800,286.800 222.800 C 286.580 222.800,286.400 222.363,286.400 221.829 C 286.400 221.294,286.130 220.587,285.800 220.257 C 285.470 219.927,285.200 219.284,285.200 218.829 C 285.200 218.373,285.020 218.000,284.800 218.000 C 284.580 218.000,284.400 217.460,284.400 216.800 C 284.400 215.394,284.001 215.266,283.270 216.437 M220.000 216.776 C 220.000 217.867,220.555 218.085,221.101 217.210 C 221.470 216.620,221.439 216.424,220.948 216.236 C 220.054 215.892,220.000 215.923,220.000 216.776 M220.954 218.976 C 220.577 219.959,221.165 221.901,221.621 221.179 C 222.112 220.404,222.098 218.908,221.597 218.598 C 221.376 218.461,221.086 218.631,220.954 218.976 " stroke="none" fill="#ccb48c" fill-rule="evenodd"></path></g></svg>