<?xml version="1.0" encoding="UTF-8"?>
<svg width="136px" height="136px" viewBox="0 0 136 136" version="1.1" xmlns="http://www.w3.org/2000/svg">
    <g id="ico-divisa" stroke="none" stroke-width="1" fill="none" fill-rule="evenodd">
        <g id="dollar-symbol" transform="translate(6.000000, 6.000000)" fill-rule="nonzero">
            <path d="M123.351664,53.1211641 C123.200055,52.0763672 122.282891,51.3103281 121.227195,51.3103281 L116.548617,51.3103281 C115.105422,43.9047188 112.200625,37.0222344 108.13357,30.9840156 L111.43507,27.6825156 C112.182219,26.9353672 112.287813,25.741625 111.654734,24.8954219 C108.092641,20.1359531 103.864047,15.9073594 99.1043359,12.3450234 C98.2586172,11.7119453 97.0646328,11.8177812 96.3174844,12.5649297 L93.0157422,15.8666719 C86.9780078,11.799375 80.0955234,8.89457812 72.6899141,7.451625 L72.6899141,2.77280469 C72.6899141,1.71686719 71.9241172,0.799703125 70.8790781,0.648335937 C67.9786406,0.22765625 65.0166875,0 62,0 C58.9833125,0 56.0213594,0.22765625 53.1211641,0.648335937 C52.0763672,0.799945313 51.3103281,1.71710937 51.3103281,2.77280469 L51.3103281,7.45138281 C43.9047188,8.89457812 37.0222344,11.7991328 30.9842578,15.8664297 L27.6827578,12.5646875 C26.9356094,11.8175391 25.7418672,11.7117031 24.8956641,12.3447813 C20.1361953,15.9071172 15.9076016,20.1357109 12.3452656,24.8951797 C11.7121875,25.7413828 11.8180234,26.935125 12.5651719,27.6822734 L15.8669141,30.9840156 C11.7991328,37.0219922 8.89457812,43.9047188 7.45138281,51.3100859 L2.77280469,51.3100859 C1.71686719,51.3100859 0.799703125,52.0758828 0.648335937,53.1209219 C0.227898437,56.0213594 0,58.9833125 0,62 C0,65.0166875 0.227898437,67.9786406 0.648335937,70.8785937 C0.799945313,71.9233906 1.71710937,72.6896719 2.77280469,72.6896719 L7.45138281,72.6896719 C8.89457812,80.0952812 11.7991328,86.9777656 15.8664297,93.0157422 L12.5646875,96.3174844 C11.8175391,97.0646328 11.7117031,98.258375 12.3447813,99.1045781 C15.9071172,103.864047 20.1354688,108.092641 24.8951797,111.654734 C25.7413828,112.287812 26.9348828,112.181977 27.6822734,111.434828 L30.9837734,108.133328 C37.02175,112.200625 43.9044766,115.105422 51.3098438,116.548375 L51.3098438,121.226953 C51.3098438,122.282891 52.0756406,123.200055 53.1206797,123.351422 C56.0213594,123.772102 58.9833125,124 62,124 C65.0166875,124 67.9786406,123.772102 70.8788359,123.351664 C71.923875,123.200055 72.6896719,122.282891 72.6896719,121.227195 L72.6896719,116.548617 C80.0952812,115.105422 86.9777656,112.200867 93.0157422,108.13357 L96.3174844,111.43507 C97.0646328,112.182219 98.258375,112.288055 99.1043359,111.654977 C103.864289,108.092641 108.092641,103.864289 111.654734,99.1048203 C112.288055,98.2588594 112.182461,97.064875 111.43507,96.3177266 L108.13357,93.0162266 C112.200867,86.97825 115.105664,80.0957656 116.548617,72.6901563 L121.227195,72.6901563 C122.283133,72.6901563 123.200297,71.923875 123.351664,70.8790781 C123.772102,67.9786406 124,65.0166875 124,62 C124,58.9833125 123.772102,56.0213594 123.351664,53.1211641 Z M62,104.758688 C38.3850234,104.758688 19.2413125,85.6147344 19.2413125,62 C19.2413125,38.3850234 38.3847813,19.2413125 62,19.2413125 C85.6152187,19.2413125 104.758688,38.3850234 104.758688,62 C104.758688,85.6147344 85.6149766,104.758688 62,104.758688 Z" id="Shape" fill="#FFD782"></path>
            <g id="Group" transform="translate(12.593750, 12.593750)" fill="#FFC36E">
                <path d="M49.40625,0.233953125 C22.2487969,0.233953125 0.233953125,22.2487969 0.233953125,49.40625 C0.233953125,76.5632188 22.2490391,98.5785469 49.40625,98.5785469 C76.5634609,98.5785469 98.5785469,76.5632188 98.5785469,49.40625 C98.5785469,22.2487969 76.5637031,0.233953125 49.40625,0.233953125 Z M49.40625,92.1649375 C25.7912734,92.1649375 6.6475625,73.0209844 6.6475625,49.40625 C6.6475625,25.7912734 25.7910313,6.6475625 49.40625,6.6475625 C73.0214687,6.6475625 92.1649375,25.7912734 92.1649375,49.40625 C92.1649375,73.0209844 73.0212266,92.1649375 49.40625,92.1649375 Z" id="Shape"></path>
                <path d="M68.2644219,59.8263672 C68.2644219,52.4398906 63.9072266,47.9124375 55.1930781,46.0061797 L52.1257734,45.4041016 L52.1257734,32.7076641 C54.4672422,33.1980937 56.315375,34.5858281 57.2373828,36.4356562 C58.0174687,38.0009141 59.609125,38.9936406 61.3582031,38.9936406 C64.9215078,38.9936406 67.2331875,35.0658437 65.3358906,32.0493984 C62.8592812,28.1119141 58.2177578,25.4718281 52.1257734,24.7951562 L52.1257734,22.6021484 C52.1257734,20.8748672 50.7256875,19.4752656 48.9988906,19.4752656 C47.2720937,19.4752656 45.8720078,20.8753516 45.8720078,22.6021484 L45.8720078,24.7939453 C36.204125,25.8464922 30.5485625,31.1378047 30.5485625,39.2317109 C30.5485625,46.3120625 34.9396641,51.0434375 43.1432812,52.9496953 L45.8717656,53.5931875 L45.8717656,66.9357812 C43.1086484,66.4221016 41.0067031,65.0057891 39.9691719,63.0167031 C39.1631719,61.4708203 37.5974297,60.4725234 35.8539219,60.4725234 L35.3940078,60.4725234 C31.8282812,60.4725234 29.5434844,64.3884531 31.4172891,67.4223359 C33.9697031,71.5550234 39.0067187,74.1590234 45.8715234,74.7351875 L45.8715234,76.2098672 C45.8715234,77.9366641 47.2716094,79.33675 48.9984062,79.33675 C50.7252031,79.33675 52.1252891,77.9366641 52.1252891,76.2098672 L52.1252891,74.7034609 C62.4478047,73.6405 68.2644219,68.3131016 68.2644219,59.8263672 Z M40.3854922,38.3811484 C40.3854922,35.4102344 42.6296016,33.1624922 45.8715234,32.6575312 L45.8715234,44.0885391 C42.2888437,43.1122812 40.3854922,41.1568594 40.3854922,38.3811484 Z M52.1257734,67.0580859 L52.1257734,54.7777266 C56.5582891,55.7750547 58.6311719,57.749125 58.6311719,60.9157266 C58.6311719,64.3644766 56.2315781,66.62675 52.1257734,67.0580859 Z" id="Shape"></path>
            </g>
        </g>
    </g>
</svg>