<?xml version="1.0" encoding="UTF-8"?>
<svg width="136px" height="136px" viewBox="0 0 136 136" version="1.1" xmlns="http://www.w3.org/2000/svg" xmlns:xlink="http://www.w3.org/1999/xlink">
    <defs>
        <linearGradient x1="0%" y1="0%" x2="100%" y2="100%" id="linearGradient-1">
            <stop stop-color="#2789C4" offset="0%"></stop>
            <stop stop-color="#115191" offset="100%"></stop>
        </linearGradient>
        <rect id="path-2" x="0" y="0" width="136" height="136" rx="68"></rect>
        <linearGradient x1="70.2490589%" y1="78.133132%" x2="48.7541308%" y2="55.0020028%" id="linearGradient-4">
            <stop stop-color="#000000" stop-opacity="0" offset="0%"></stop>
            <stop stop-color="#000000" stop-opacity="0.2" offset="100%"></stop>
        </linearGradient>
    </defs>
    <g id="ico-consulta" stroke="none" stroke-width="1" fill="none" fill-rule="evenodd">
        <g id="bar-chart">
            <mask id="mask-3" fill="white">
                <use xlink:href="#path-2"></use>
            </mask>
            <use id="Mask" fill="url(#linearGradient-1)" fill-rule="nonzero" xlink:href="#path-2"></use>
            <g mask="url(#mask-3)">
                <g transform="translate(15.000000, 36.000000)">
                    <path d="M113.934955,91.0410152 C123.005758,81.9702121 129.309222,71.1818535 132.856076,59.7239343 L73.5443005,8 L80.8608081,27.4674242 L53,2 L36,8 L29,51 L17,66 L5,87 L60.6296465,113.375495 C79.9393333,113.21697 99.2013434,105.774924 113.934955,91.0410152 Z" id="Shape" fill="url(#linearGradient-4)" fill-rule="nonzero" opacity="0.498604911"></path>
                    <g id="search-(2)" stroke-width="1" fill="none" fill-rule="evenodd">
                        <g id="Group-21" fill-rule="nonzero">
                            <path d="M75.5943425,55.6274377 C87.9458904,42.9386313 87.9510137,22.3709072 75.5994658,9.68163395 C63.2479178,-3.00763926 43.2144658,-3.01534218 30.8631507,9.67346419 C19.6561918,21.1867586 18.6692603,39.2430981 27.7400411,51.8980584 L17.9657397,61.9396286 C17.2640822,62.6609019 17.2501096,63.8868329 17.952,64.6076393 L22.081137,68.850313 C22.7830274,69.5711194 23.9346027,69.5136976 24.636726,68.7926578 L34.4019452,58.7608912 C46.7993699,68.2158727 64.3654932,67.1636074 75.5943425,55.6274377 Z" id="Shape" fill="#ECF0F0"></path>
                            <path d="M18.1150137,61.9396286 C17.4131233,62.6609019 17.3250959,63.8868329 18.0262877,64.6076393 L22.1186301,68.850313 C22.8205205,69.5711194 24.1027397,69.5136976 24.804863,68.7926578 L26.6995479,66.9799045 L26.6995479,53.2733793 L18.1150137,61.9396286 Z" id="Shape" fill="#5D5D5D" opacity="0.3"></path>
                            <path d="M70.0786575,49.9611247 C60.7791918,59.5150769 45.7018219,59.5150769 36.4023562,49.9611247 C27.1031233,40.4074058 27.1031233,24.9180053 36.4028219,15.3647533 C45.7020548,5.81103448 60.7791918,5.81103448 70.0786575,15.3647533 C79.3778904,24.9177719 79.3778904,40.4074058 70.0786575,49.9611247 Z" id="Shape" fill="#76BED6"></path>
                            <path d="M37.4612466,48.8736127 C28.7607397,39.9347268 28.7607397,25.3909178 37.4612466,16.4527321 C46.1617534,7.51384615 60.3190274,7.51361273 69.0197671,16.4522653 C77.720274,25.3909178 77.720274,39.9349602 69.0197671,48.8738462 C60.3190274,57.8122653 46.1617534,57.8122653 37.4612466,48.8736127 Z" id="Shape" fill="#83D2ED"></path>
                            <path d="M73.4018082,10.6879151 C68.3800548,6.25290186 62.1287123,3.65515119 55.5192055,3.24386207 C48.9877123,2.83724138 42.3565479,4.77627586 36.9784932,8.58992042 C35.7940822,9.42953846 36.8969863,11.4414005 38.0879178,10.5968806 C43.0929041,7.04793634 49.0398767,5.28396817 55.1149315,5.53046154 C61.2251507,5.77835544 67.1830685,8.22975066 71.813589,12.3195332 C72.9053151,13.2833316 74.5012192,11.6587162 73.4018082,10.6879151 Z" id="Shape" fill="#FBFFFF"></path>
                            <path d="M69.1753288,44.9593634 C65.550137,48.6836074 59.6723288,48.6836074 56.047137,44.9593634 C52.4219452,41.2348859 52.4219452,35.1971989 56.047137,31.4727215 C59.6723288,27.7480106 65.550137,27.7480106 69.1753288,31.4727215 C72.8005205,35.1971989 72.8005205,41.2348859 69.1753288,44.9593634 Z" id="Shape" fill="#B0EBFF"></path>
                            <path d="M68.7540548,24.5153528 C67.7589726,25.5372732 66.1460685,25.5372732 65.1512192,24.5148859 C64.1563699,23.4929655 64.1563699,21.8361379 65.1512192,20.8139841 C66.1460685,19.7918302 67.7589726,19.7918302 68.7538219,20.8144509 C69.7484384,21.8363714 69.7489041,23.4931989 68.7540548,24.5153528 Z" id="Shape" fill="#B0EBFF"></path>
                            <path d="M19.6252192,58.9291883 L0.110150685,78.9780159 C2.52647945,82.2638939 5.26534247,85.2848382 8.27946575,87.9906631 L28.0961096,67.6323183 C30.4258082,65.2390451 21.9551507,56.536382 19.6252192,58.9291883 Z" id="Shape" fill="#334D5C"></path>
                            <path d="M27.9966712,67.6325517 C30.326137,65.2390451 21.918589,56.536382 19.5888904,58.9294218 L13.1924658,65.5663024 L13.1924658,82.9713952 L27.9966712,67.6325517 Z" id="Shape" fill="#5D5D5D" opacity="0.3"></path>
                            <path d="M29.3666849,69.5902599 C28.7821644,70.1910875 27.8338904,70.1910875 27.249137,69.5902599 L17.6133973,59.6908435 C17.0286438,59.0902493 17.0286438,58.1159469 17.6133973,57.5153528 L20.0488219,55.013305 C20.6335753,54.4127109 21.5818493,54.4127109 22.1663699,55.013305 L31.8021096,64.9127215 C32.3873288,65.5135491 32.3873288,66.4873846 31.8021096,67.0884456 L29.3666849,69.5902599 Z" id="Shape" fill="#EFC84A"></path>
                        </g>
                    </g>
                </g>
            </g>
        </g>
    </g>
</svg>