<svg height="397pt" viewBox="-39 0 397 397.22" width="397pt" xmlns="http://www.w3.org/2000/svg"><path d="m319.742188 153.378906c1.390624 22.058594-1.855469 44.164063-9.53125 64.890625-7.898438 21.671875-20.777344 41.179688-36.566407 58l-113.5625 120.949219-113.558593-120.949219c-15.789063-16.820312-28.671876-36.328125-36.570313-58-7.671875-20.726562-10.917969-42.832031-9.53125-64.890625 5.429687-81.339844 70.390625-153.378906 159.660156-153.378906s154.230469 72.039062 159.660157 153.378906zm-50.738282-1.917968c0-61.769532-48.761718-111.851563-108.921875-111.851563-60.160156 0-108.917969 50.082031-108.917969 111.851563 0 61.769531 48.757813 111.839843 108.917969 111.839843 60.160157 0 108.921875-50.070312 108.921875-111.839843zm0 0" fill="#e48e66"/><path d="m160.082031 39.609375c60.160157 0 108.921875 50.082031 108.921875 111.851563 0 61.769531-48.761718 111.839843-108.921875 111.839843-60.160156 0-108.917969-50.070312-108.917969-111.839843 0-61.769532 48.757813-111.851563 108.917969-111.851563zm0 0" fill="#f8ec7d"/><path d="m146.273438 188.929688c-1.859376.003906-3.640626-.734376-4.949219-2.050782l-36.191407-36.1875c-2.734374-2.734375-2.734374-7.167968 0-9.902344 2.734376-2.734374 7.167969-2.734374 9.902344 0l31.347656 31.355469 58.863282-56.226562c2.792968-2.671875 7.226562-2.570313 9.894531.226562 2.671875 2.796875 2.570313 7.226563-.226563 9.898438l-63.808593 60.949219c-1.300781 1.246093-3.03125 1.9375-4.832031 1.9375zm0 0" fill="#af593c"/></svg>