<?xml version="1.0" encoding="UTF-8"?>
<svg width="136px" height="136px" viewBox="0 0 136 136" version="1.1" xmlns="http://www.w3.org/2000/svg">
    <defs>
        <linearGradient x1="93.4051962%" y1="6.59492046%" x2="22.177553%" y2="77.8217296%" id="linearGradient-1">
            <stop stop-color="#5B6A6A" offset="0%"></stop>
            <stop stop-color="#C2CECE" stop-opacity="0" offset="31.1%"></stop>
            <stop stop-color="#CAD5D5" stop-opacity="0.157" offset="34.8%"></stop>
            <stop stop-color="#E0E8E7" stop-opacity="0.669" offset="47%"></stop>
            <stop stop-color="#E8EFEE" offset="54.9%"></stop>
            <stop stop-color="#97AAAA" offset="78.8%"></stop>
            <stop stop-color="#9CAEAE" stop-opacity="0.724" offset="86.1%"></stop>
            <stop stop-color="#AAB9B9" stop-opacity="0.402" offset="94.6%"></stop>
            <stop stop-color="#B7C3C3" stop-opacity="0.196" offset="100%"></stop>
        </linearGradient>
        <linearGradient x1="50.0015636%" y1="33.5776184%" x2="50.0015636%" y2="98.3210214%" id="linearGradient-2">
            <stop stop-color="#C2CECE" offset="0%"></stop>
            <stop stop-color="#97AAAA" offset="100%"></stop>
        </linearGradient>
        <linearGradient x1="76.7271587%" y1="76.7246138%" x2="2.27073429%" y2="2.26672747%" id="linearGradient-3">
            <stop stop-color="#363F3E" stop-opacity="0" offset="0%"></stop>
            <stop stop-color="#303033" offset="100%"></stop>
        </linearGradient>
        <linearGradient x1="75.2331027%" y1="75.2277487%" x2="21.3526377%" y2="21.3472837%" id="linearGradient-4">
            <stop stop-color="#C2CECE" offset="0%"></stop>
            <stop stop-color="#BBC8C8" offset="29.3%"></stop>
            <stop stop-color="#A8B8B8" offset="72%"></stop>
            <stop stop-color="#97AAAA" offset="100%"></stop>
        </linearGradient>
        <linearGradient x1="50.0015636%" y1="33.5776184%" x2="50.0015636%" y2="98.3210214%" id="linearGradient-5">
            <stop stop-color="#A9B5B5" offset="0%"></stop>
            <stop stop-color="#97AAAA" offset="100%"></stop>
        </linearGradient>
        <linearGradient x1="50.0040236%" y1="37.9429663%" x2="50.0040236%" y2="93.0391321%" id="linearGradient-6">
            <stop stop-color="#C2CECE" offset="0%"></stop>
            <stop stop-color="#97AAAA" offset="100%"></stop>
        </linearGradient>
        <linearGradient x1="75.2354708%" y1="75.2267705%" x2="21.3532118%" y2="21.3445115%" id="linearGradient-7">
            <stop stop-color="#C2CECE" offset="0%"></stop>
            <stop stop-color="#BBC8C8" offset="29.3%"></stop>
            <stop stop-color="#A8B8B8" offset="72%"></stop>
            <stop stop-color="#97AAAA" offset="100%"></stop>
        </linearGradient>
    </defs>
    <g id="ico-config" stroke="none" stroke-width="1" fill="none" fill-rule="evenodd">
        <g id="settings-(2)" transform="translate(6.000000, 6.000000)" fill-rule="nonzero">
            <path d="M55.2727578,124 C51.6639219,124 48.7273984,121.063719 48.7273984,117.454641 L48.7273984,114.392422 C48.7273984,112.519586 47.5237266,110.855031 45.73275,110.251258 C43.5726797,109.523 41.4404609,108.639258 39.3954297,107.624008 C38.7824531,107.319578 38.0994844,107.158766 37.4199062,107.158766 C36.2537734,107.158766 35.1600547,107.610687 34.3400078,108.430492 L32.1731562,110.597344 C30.9370312,111.833711 29.2933047,112.514742 27.5449531,112.514742 C25.7963594,112.514742 24.1526328,111.833711 22.9165078,110.597586 L13.4031406,101.083734 C12.1667734,99.8476094 11.4857422,98.2038828 11.4857422,96.4555312 C11.4857422,94.7074219 12.1665312,93.0636953 13.4031406,91.8273281 L15.5699922,89.6604766 C16.8952422,88.3352266 17.2195312,86.3037578 16.3759922,84.6050547 C15.3609844,82.5605078 14.4772422,80.4282891 13.7492266,78.2679766 C13.1454531,76.4767578 11.4811406,75.2733281 9.60782031,75.2733281 L6.54560156,75.2733281 C2.93676563,75.2728437 0.0002421875,72.3365625 0.0002421875,68.7274844 L0.0002421875,55.273 C0.0002421875,51.6639219 2.93676563,48.7276406 6.54560156,48.7276406 L9.60757812,48.7276406 C11.4806562,48.7276406 13.1452109,47.5239687 13.7489844,45.7329922 C14.477,43.5724375 15.3607422,41.4402187 16.37575,39.3959141 C17.2192891,37.6974531 16.895,35.6657422 15.56975,34.3404922 L13.4028984,32.1733984 C12.1665312,30.9372734 11.4855,29.2935469 11.4855,27.5451953 C11.4855,25.7968437 12.1662891,24.1531172 13.4028984,22.91675 L22.9160234,13.4026563 C24.1521484,12.1662891 25.795875,11.4852578 27.5444687,11.4852578 C29.2925781,11.4852578 30.9365469,12.1662891 32.1726719,13.4024141 L34.3395234,15.5695078 C35.1595703,16.3893125 36.2532891,16.8409922 37.4194219,16.8409922 C38.0987578,16.8409922 38.7819687,16.6799375 39.3949453,16.37575 C41.4402187,15.3607422 43.5721953,14.4767578 45.7322656,13.7485 C47.5234844,13.1447266 48.7269141,11.4806562 48.7269141,9.60733594 L48.7269141,6.54535938 C48.7273984,2.93628125 51.6639219,0 55.2727578,0 L68.7272422,0 C72.3360781,0 75.2726016,2.93628125 75.2726016,6.54535938 L75.2726016,9.60757812 C75.2726016,11.4806563 76.4762734,13.1449688 78.26725,13.7487422 C80.4273203,14.477 82.5595391,15.3607422 84.6045703,16.3759922 C85.2175469,16.6804219 85.9005156,16.8412344 86.5800937,16.8412344 C87.7462266,16.8409922 88.8399453,16.3893125 89.6599922,15.5695078 L91.8268437,13.4026563 C93.0629687,12.1662891 94.7066953,11.4852578 96.4552891,11.4852578 C98.2033984,11.4852578 99.847125,12.1662891 101.083492,13.4024141 L110.596859,22.9162656 C111.833227,24.1523906 112.514258,25.7961172 112.514258,27.5444688 C112.514258,29.2925781 111.833469,30.9365469 110.596859,32.1726719 L108.430008,34.3395234 C107.104758,35.6647734 106.780469,37.6962422 107.624008,39.3949453 C108.639016,41.4394922 109.522758,43.5717109 110.250773,45.7320234 C110.854547,47.5232422 112.518859,48.7266719 114.39218,48.7266719 L117.454156,48.7266719 C121.062992,48.7266719 123.999516,51.6629531 123.999516,55.2720312 L123.999516,68.7265156 C123.999516,72.3355938 121.062992,75.271875 117.454156,75.271875 L114.392422,75.271875 C112.519344,75.271875 110.854789,76.4755469 110.251016,78.2665234 C109.523,80.4270781 108.639258,82.5592969 107.62425,84.6036016 C106.780711,86.3020625 107.105,88.3337734 108.43025,89.6590234 L110.597102,91.8261172 C111.833469,93.0622422 112.5145,94.7059688 112.5145,96.4543203 C112.5145,98.2026719 111.833711,99.8463984 110.597102,101.082766 L101.083734,110.596375 C99.8476094,111.832742 98.2038828,112.513773 96.4555312,112.513773 C94.7069375,112.513773 93.0632109,111.832742 91.8270859,110.596617 L89.6602344,108.429523 C88.8401875,107.609719 87.7464687,107.158039 86.5803359,107.158039 C85.901,107.158039 85.2177891,107.318852 84.6048125,107.623281 C82.5595391,108.638289 80.4275625,109.522273 78.2674922,110.250531 C76.4762734,110.854305 75.2728437,112.518375 75.2728437,114.391695 L75.2728437,117.453914 C75.2728437,121.062992 72.3363203,123.999273 68.7274844,123.999273 L55.2727578,124 Z M62.0002422,42.0001563 C57.2112266,42.0001563 52.3156484,43.7124219 47.8422031,46.9516797 C47.4999922,47.1996797 47.2001641,47.4992656 46.9519219,47.8422031 C41.4947109,55.3783516 40.482125,63.848375 44.1742734,71.0803359 C47.6128516,77.8158125 54.4435078,82.0003281 62.0002422,82.0003281 C66.7892578,82.0003281 71.6848359,80.2880625 76.1582813,77.0488047 C76.5004922,76.8008047 76.8003203,76.5012187 77.0485625,76.1582812 C82.5057734,68.6221328 83.5183594,60.1521094 79.8262109,52.9201484 C76.3873906,46.1844297 69.5569766,42.0001563 62.0002422,42.0001563 Z" id="Shape" fill="url(#linearGradient-1)"></path>
            <path d="M122.909188,68.7272422 L122.909188,55.2727578 C122.909188,52.2604297 120.467211,49.8182109 117.454641,49.8182109 L114.392422,49.8182109 C112.041992,49.8182109 109.968141,48.3081719 109.217844,46.0810156 C108.498063,43.9456484 107.63757,41.8754297 106.647508,39.8805312 C105.600531,37.7715625 105.994813,35.2336797 107.659609,33.5686406 L109.826703,31.4015469 C111.956984,29.2712656 111.956984,25.8176719 109.826703,23.6876328 L100.312852,14.1737812 C98.1825703,12.0435 94.7289766,12.0435 92.5989375,14.1737812 L90.4318437,16.340875 C88.7668047,18.0059141 86.2289219,18.3997109 84.1199531,17.3529766 C82.1250547,16.3626719 80.0548359,15.5021797 77.9194688,14.7826406 C75.6920703,14.0318594 74.1822734,11.95825 74.1822734,9.6080625 L74.1822734,6.54535937 C74.1822734,3.53303125 71.7402969,1.0908125 68.7277266,1.0908125 L55.2732422,1.0908125 C52.2609141,1.0908125 49.8186953,3.53278906 49.8186953,6.54535937 L49.8186953,9.60757812 C49.8186953,11.9580078 48.3086562,14.0316172 46.0815,14.7821562 C43.9461328,15.5019375 41.8759141,16.3624297 39.8810156,17.3524922 C37.7720469,18.3994687 35.2341641,18.0051875 33.569125,16.3403906 L31.4020312,14.1732969 C29.27175,12.0430156 25.8181562,12.0430156 23.6881172,14.1732969 L14.1740234,23.6876328 C12.0437422,25.8179141 12.0437422,29.2715078 14.1740234,31.4015469 L16.3411172,33.5686406 C18.0061562,35.2336797 18.3999531,37.7715625 17.3532187,39.8805313 C16.3629141,41.8754297 15.5024219,43.9456484 14.7828828,46.0810156 C14.0321016,48.3084141 11.9584922,49.8182109 9.60830469,49.8182109 L6.54560156,49.8182109 C3.53327344,49.8182109 1.09105469,52.2601875 1.09105469,55.2727578 L1.09105469,68.7272422 C1.09105469,71.7395703 3.53303125,74.1817891 6.54560156,74.1817891 L9.60782031,74.1817891 C11.95825,74.1817891 14.0318594,75.6918281 14.7823984,77.9189844 C15.5021797,80.0543516 16.3626719,82.1245703 17.3527344,84.1194687 C18.3997109,86.2284375 18.0054297,88.7663203 16.3406328,90.4313594 L14.1735391,92.5984531 C12.0432578,94.7287344 12.0432578,98.1823281 14.1735391,100.312367 L23.6873906,109.826219 C25.8176719,111.9565 29.2712656,111.9565 31.4013047,109.826219 L33.5683984,107.659125 C35.2334375,105.994086 37.7713203,105.600289 39.8802891,106.647023 C41.8751875,107.637328 43.9454063,108.49782 46.0807734,109.217359 C48.3081719,109.968141 49.8179688,112.04175 49.8179688,114.391937 L49.8179688,117.454156 C49.8179688,120.466484 52.2599453,122.908703 55.2725156,122.908703 L68.727,122.908703 C71.7393281,122.908703 74.1815469,120.466727 74.1815469,117.454156 L74.1815469,114.391937 C74.1815469,112.041508 75.6915859,109.967656 77.9187422,109.217359 C80.0541094,108.497578 82.1243281,107.637086 84.1192266,106.647023 C86.2281953,105.600047 88.7660781,105.994328 90.4311172,107.659125 L92.5982109,109.826219 C94.7284922,111.9565 98.1820859,111.9565 100.312125,109.826219 L109.825977,100.312367 C111.956258,98.1820859 111.956258,94.7284922 109.825977,92.5984531 L107.658883,90.4313594 C105.993844,88.7663203 105.600047,86.2284375 106.646781,84.1194687 C107.637086,82.1245703 108.497578,80.0543516 109.217117,77.9189844 C109.967898,75.6915859 112.041508,74.1817891 114.391695,74.1817891 L117.453914,74.1817891 C120.467211,74.1817891 122.909188,71.7395703 122.909188,68.7272422 Z M76.7978984,77.9318203 C54.6094062,93.99975 30.00025,69.3905937 46.0681797,47.2021016 C46.3830234,46.7671328 46.7671328,46.3830234 47.2023437,46.0679375 C69.3908359,30.0000078 93.9999922,54.6091641 77.9320625,76.7976563 C77.6172187,77.2328672 77.2331094,77.6169766 76.7978984,77.9318203 Z" id="Shape" fill="url(#linearGradient-2)"></path>
            <path d="M122.864141,69.3951953 C122.845492,69.3772734 122.828055,69.3581406 122.809164,69.3404609 C122.432563,68.9473906 122.047242,68.5620703 121.654172,68.1854687 C121.27757,67.7923984 120.89225,67.4070781 120.49918,67.0304766 C120.122578,66.6374062 119.737258,66.2520859 119.344188,65.8754844 C118.967586,65.4824141 118.582266,65.0970937 118.189195,64.7204922 C117.812594,64.3274219 117.427273,63.9421016 117.034203,63.5655 C116.657602,63.1724297 116.272281,62.7871094 115.879211,62.4105078 C115.502609,62.0174375 115.117289,61.6321172 114.724219,61.2555156 C114.347617,60.8624453 113.962297,60.477125 113.569227,60.1005234 C113.192625,59.7074531 112.807305,59.3221328 112.414234,58.9455312 C112.037633,58.5524609 111.652313,58.1671406 111.259242,57.7905391 C110.882641,57.3974687 110.49732,57.0121484 110.10425,56.6355469 C109.727648,56.2424766 109.342328,55.8571562 108.949258,55.4805547 C108.572656,55.0874844 108.187336,54.7021641 107.794266,54.3255625 C107.417664,53.9324922 107.032344,53.5471719 106.639273,53.1705703 C106.262672,52.7775 105.877352,52.3921797 105.484281,52.0155781 C105.10768,51.6225078 104.722359,51.2371875 104.329289,50.8605859 C103.952688,50.4675156 103.567367,50.0821953 103.174297,49.7055937 C102.797695,49.3125234 102.412375,48.9272031 102.019305,48.5506016 C101.642703,48.1575312 101.257383,47.7722109 100.864313,47.3956094 C100.487711,47.0025391 100.102391,46.6172187 99.7093203,46.2406172 C99.3327188,45.8475469 98.9473984,45.4622266 98.5543281,45.085625 C98.1777266,44.6925547 97.7924063,44.3072344 97.3993359,43.9306328 C97.0227344,43.5375625 96.6374141,43.1522422 96.2443438,42.7756406 C95.8677422,42.3825703 95.4824219,41.99725 95.0893516,41.6206484 C94.71275,41.2275781 94.3274297,40.8422578 93.9343594,40.4656562 C93.5577578,40.0725859 93.1724375,39.6872656 92.7793672,39.3106641 C92.4027656,38.9175937 92.0174453,38.5322734 91.624375,38.1556719 C91.2477734,37.7626016 90.8624531,37.3772812 90.4693828,37.0006797 C90.0927812,36.6076094 89.7074609,36.2222891 89.3143906,35.8456875 C82.4282734,28.6575625 72.7371406,24.1821797 62.0007266,24.1821797 C41.1152031,24.1821797 24.1824219,41.1149609 24.1824219,62.0004844 C24.1824219,72.7371406 28.6578047,82.4282734 35.84375,89.3122109 C36.2203516,89.7052812 36.6056719,90.0906016 36.9987422,90.4672031 C37.3753437,90.8602734 37.7606641,91.2455937 38.1537344,91.6221953 C38.5303359,92.0152656 38.9156562,92.4005859 39.3087266,92.7771875 C39.6853281,93.1702578 40.0706484,93.5555781 40.4637187,93.9321797 C40.8403203,94.32525 41.2256406,94.7105703 41.6187109,95.0871719 C41.9953125,95.4802422 42.3806328,95.8655625 42.7737031,96.2421641 C43.1503047,96.6352344 43.535625,97.0205547 43.9286953,97.3971562 C44.3052969,97.7902266 44.6906172,98.1755469 45.0836875,98.5521484 C45.4602891,98.9452187 45.8456094,99.3305391 46.2386797,99.7071406 C46.6152812,100.100211 47.0006016,100.485531 47.3936719,100.862133 C47.7702734,101.255203 48.1555937,101.640523 48.5486641,102.017125 C48.9252656,102.410195 49.3105859,102.795516 49.7036562,103.172117 C50.0802578,103.565187 50.4655781,103.950508 50.8586484,104.327109 C51.23525,104.72018 51.6205703,105.1055 52.0136406,105.482102 C52.3902422,105.875172 52.7755625,106.260492 53.1686328,106.637094 C53.5452344,107.030164 53.9305547,107.415484 54.323625,107.792086 C54.7002266,108.185156 55.0855469,108.570477 55.4786172,108.947078 C55.8552188,109.340148 56.2405391,109.725469 56.6336094,110.10207 C57.0102109,110.495141 57.3955313,110.880461 57.7886016,111.257062 C58.1652031,111.650133 58.5505234,112.035453 58.9435938,112.412055 C59.3201953,112.805125 59.7055156,113.190445 60.0985859,113.567047 C60.4751875,113.960117 60.8605078,114.345437 61.2535781,114.722039 C61.6301797,115.115109 62.0155,115.50043 62.4085703,115.877031 C62.7851719,116.270102 63.1704922,116.655422 63.5635625,117.032023 C63.9401641,117.425094 64.3254844,117.810414 64.7185547,118.187016 C65.0951563,118.580086 65.4804766,118.965406 65.8735469,119.342008 C66.2501484,119.735078 66.6354688,120.120398 67.0285391,120.497 C67.4051406,120.89007 67.7904609,121.275391 68.1835313,121.651992 C68.5601328,122.045062 68.9454531,122.430383 69.3385234,122.806984 C69.3564453,122.825633 69.3755781,122.84307 69.3932578,122.861961 C72.0900156,122.531859 74.1796094,120.238344 74.1796094,117.452461 L74.1796094,114.390242 C74.1796094,112.039812 75.6896484,109.965961 77.9168047,109.215422 C80.0521719,108.495641 82.1223906,107.635148 84.1172891,106.645086 C86.2262578,105.598109 88.7641406,105.992391 90.4291797,107.657187 L92.5962734,109.824281 C94.7265547,111.954562 98.1799063,111.954562 100.310188,109.824281 L109.824039,100.31043 C111.95432,98.1801484 111.95432,94.7267969 109.824039,92.5965156 L107.656945,90.4294219 C105.991906,88.7643828 105.598109,86.2265 106.644844,84.1175312 C107.635148,82.1226328 108.495641,80.0524141 109.21518,77.9170469 C109.965961,75.6896484 112.03957,74.1798516 114.39,74.1798516 L117.452219,74.1798516 C120.240281,74.1817891 122.534039,72.0919531 122.864141,69.3951953 Z M77.9320625,76.7978984 C77.6172187,77.2328672 77.2331094,77.6169766 76.7978984,77.9320625 C54.6094062,93.9999922 30.00025,69.3908359 46.0681797,47.2023437 C46.3830234,46.767375 46.7671328,46.3832656 47.2023437,46.0681797 C69.3908359,30.00025 93.9999922,54.6094062 77.9320625,76.7978984 Z" id="Shape" fill="url(#linearGradient-3)"></path>
            <path d="M62.0002422,99.8183047 C82.8857656,99.8183047 99.8185469,82.8855234 99.8185469,62 C99.8185469,41.1144766 82.8855234,24.1816953 62.0002422,24.1816953 C41.1149609,24.1816953 24.1819375,41.1144766 24.1819375,62 C24.1819375,82.8855234 41.1147188,99.8183047 62.0002422,99.8183047 Z M62.0002422,35.8873437 C76.4205703,35.8873437 88.1128984,47.5794297 88.1128984,62 C88.1128984,76.4205703 76.4208125,88.1126562 62.0002422,88.1126562 C47.5796719,88.1126562 35.8875859,76.4203281 35.8875859,62 C35.8875859,47.5796719 47.5796719,35.8873437 62.0002422,35.8873437 Z" id="Shape" fill="url(#linearGradient-4)"></path>
            <path d="M62.0002422,25.9826016 C42.1093828,25.9826016 25.9828438,42.1088984 25.9828438,62 C25.9828438,81.8911016 42.1093828,98.0173984 62.0002422,98.0173984 C81.8911016,98.0173984 98.0173984,81.8908594 98.0173984,62 C98.0173984,42.1091406 81.8911016,25.9826016 62.0002422,25.9826016 Z M62.0002422,80.4590469 C51.8063281,80.4590469 43.5411953,72.1939141 43.5411953,62 C43.5411953,51.8060859 51.8063281,43.5409531 62.0002422,43.5409531 C72.1941562,43.5409531 80.4592891,51.8060859 80.4592891,62 C80.4592891,72.1939141 72.1939141,80.4590469 62.0002422,80.4590469 Z" id="Shape" fill="url(#linearGradient-5)"></path>
            <path d="M99.5354297,66.6330469 C99.2995391,66.39425 99.0600156,66.1595703 98.8141953,65.9311875 C98.4179766,65.5044531 98.0060156,65.0924922 97.5792812,64.6962734 C97.1833047,64.2695391 96.7715859,63.8578203 96.3446094,63.4616016 C95.9486328,63.0348672 95.5369141,62.6231484 95.1096953,62.2269297 C94.7137187,61.8001953 94.302,61.3884766 93.8747812,60.9920156 C93.4788047,60.5652812 93.0670859,60.1535625 92.6401094,59.7573437 C92.2441328,59.3306094 91.8324141,58.9188906 91.4051953,58.5226719 C91.0092187,58.0959375 90.5975,57.6842187 90.1705234,57.288 C89.7743047,56.8612656 89.3623437,56.4493047 88.9356094,56.0530859 C88.5396328,55.6263516 88.1279141,55.2146328 87.7006953,54.8184141 C87.3047187,54.3916797 86.893,53.9799609 86.4660234,53.5837422 C86.0698047,53.1570078 85.6578437,52.7450469 85.2311094,52.3488281 C84.8348906,51.9220937 84.4229297,51.5101328 83.9961953,51.1139141 C83.6002187,50.6871797 83.1885,50.2754609 82.7615234,49.8792422 C82.3655469,49.4525078 81.9538281,49.0407891 81.5268516,48.6445703 C81.130875,48.2178359 80.7189141,47.8061172 80.2919375,47.4098984 C79.8959609,46.9831641 79.4842422,46.5714453 79.0572656,46.1749844 C74.8071172,41.5952187 68.7388672,38.7262656 61.9985469,38.7262656 C49.1458984,38.7262656 38.7257812,49.1463828 38.7257812,61.9990312 C38.7257812,68.7393516 41.5947344,74.8073594 46.1745,79.05775 C46.5704766,79.4844844 46.9821953,79.8962031 47.4094141,80.2924219 C47.8053906,80.7191562 48.2171094,81.130875 48.6440859,81.5273359 C49.0400625,81.9540703 49.4517812,82.3657891 49.8787578,82.7620078 C50.2747344,83.1887422 50.6864531,83.6004609 51.1134297,83.9966797 C51.5094062,84.4234141 51.9216094,84.835375 52.3483437,85.2315937 C52.7445625,85.6583281 53.1565234,86.0702891 53.5832578,86.4665078 C53.9792344,86.8932422 54.3909531,87.3049609 54.8179297,87.7011797 C55.2139062,88.1279141 55.625625,88.5396328 56.0526016,88.9360937 C56.4488203,89.3628281 56.8607813,89.7747891 57.2875156,90.1710078 C57.6834922,90.5977422 58.0952109,91.0094609 58.5221875,91.4056797 C58.9181641,91.8324141 59.3298828,92.2441328 59.7568594,92.6405937 C60.1528359,93.0673281 60.5645547,93.4790469 60.9915313,93.8752656 C61.3875078,94.302 61.7992266,94.7137187 62.2264453,95.1101797 C62.6224219,95.5369141 63.0341406,95.9486328 63.4611172,96.3450937 C63.8570938,96.7718281 64.2688125,97.1833047 64.6957891,97.5797656 C65.0917656,98.0065 65.5039688,98.4184609 65.9307031,98.8146797 C66.1590859,99.0605 66.3940078,99.3000234 66.6325625,99.5359141 C83.8145547,97.4361484 97.4361484,83.8145547 99.5354297,66.6330469 Z M62.0002422,80.4590469 C51.8063281,80.4590469 43.5411953,72.1939141 43.5411953,62 C43.5411953,51.8060859 51.8063281,43.5409531 62.0002422,43.5409531 C72.1941562,43.5409531 80.4592891,51.8060859 80.4592891,62 C80.4592891,72.1939141 72.1939141,80.4590469 62.0002422,80.4590469 Z" id="Shape" fill="url(#linearGradient-3)"></path>
            <path d="M62.0002422,39.8354844 C49.7596016,39.8354844 39.8357266,49.7593594 39.8357266,62 C39.8357266,74.2406406 49.7596016,84.1645156 62.0002422,84.1645156 C74.2408828,84.1645156 84.1647578,74.2406406 84.1647578,62 C84.1647578,49.7593594 74.2406406,39.8354844 62.0002422,39.8354844 Z M62.0002422,73.3593203 C55.7271016,73.3593203 50.6409219,68.2728984 50.6409219,62 C50.6409219,55.7271016 55.7273437,50.6406797 62.0002422,50.6406797 C68.2731406,50.6406797 73.3595625,55.7271016 73.3595625,62 C73.3595625,68.2728984 68.2731406,73.3593203 62.0002422,73.3593203 Z" id="Shape" fill="url(#linearGradient-6)"></path>
            <path d="M62.0002422,85.2727656 C74.8528906,85.2727656 85.2730078,74.8526484 85.2730078,62 C85.2730078,49.1473516 74.8528906,38.7272344 62.0002422,38.7272344 C49.1475937,38.7272344 38.7274766,49.1473516 38.7274766,62 C38.7274766,74.8526484 49.1475938,85.2727656 62.0002422,85.2727656 Z M62.0002422,45.9306172 C70.8742344,45.9306172 78.069625,53.1257656 78.069625,62 C78.069625,70.8742344 70.8742344,78.0693828 62.0002422,78.0693828 C53.12625,78.0693828 45.9308594,70.8739922 45.9308594,62 C45.9308594,53.1260078 53.1260078,45.9306172 62.0002422,45.9306172 Z" id="Shape" fill="url(#linearGradient-7)"></path>
        </g>
    </g>
</svg>