<?xml version="1.0" encoding="UTF-8"?>
<svg width="136px" height="136px" viewBox="0 0 136 136" version="1.1" xmlns="http://www.w3.org/2000/svg" xmlns:xlink="http://www.w3.org/1999/xlink">
    <!-- Generator: Sketch 51.3 (57544) - http://www.bohemiancoding.com/sketch -->
    <defs>
        <linearGradient x1="0%" y1="0%" x2="100%" y2="100%" id="linearGradient-1">
            <stop stop-color="#2789C4" offset="0%"></stop>
            <stop stop-color="#115191" offset="100%"></stop>
        </linearGradient>
        <rect id="path-2" x="0" y="0" width="136" height="136" rx="68"></rect>
        <linearGradient x1="70.2490589%" y1="78.133132%" x2="48.7541308%" y2="55.0020028%" id="linearGradient-4">
            <stop stop-color="#000000" stop-opacity="0" offset="0%"></stop>
            <stop stop-color="#000000" stop-opacity="0.2" offset="100%"></stop>
        </linearGradient>
    </defs>
    <g id="ico-overview" stroke="none" stroke-width="1" fill="none" fill-rule="evenodd">
        <g id="bar-chart">
            <mask id="mask-3" fill="white">
                <use xlink:href="#path-2"></use>
            </mask>
            <use id="Mask" fill="url(#linearGradient-1)" fill-rule="nonzero" xlink:href="#path-2"></use>
            <g mask="url(#mask-3)" fill="url(#linearGradient-4)" fill-rule="nonzero" id="Shape" opacity="0.498604911">
                <g transform="translate(32.000000, 34.000000)">
                    <path d="M96.9349545,93.0410152 C106.005758,83.9702121 112.309222,73.1818535 115.856076,61.7239343 L68,8 L63,27 L56,15 L48,43 L6,0.75230303 L3.05922222,0.75230303 L3.05922222,67 L0,70 L43.6296465,115.375495 C62.9393333,115.21697 82.2013434,107.774924 96.9349545,93.0410152 Z"></path>
                </g>
            </g>
        </g>
        <g id="graphic" transform="translate(32.000000, 33.000000)" fill-rule="nonzero">
            <path d="M41.7142441,69 L35.2857559,69 C34.5757355,69 34,68.4447279 34,67.7599438 L34,39.2400562 C34,38.5552721 34.5757355,38 35.2857559,38 L41.7142441,38 C42.4242645,38 43,38.5552721 43,39.2400562 L43,67.7599438 C43,68.4447279 42.4242645,69 41.7142441,69 Z" id="Shape" fill="#FFD782"></path>
            <path d="M41.7142441,70 L35.2857559,70 C34.5757355,70 34,69.4107915 34,68.6841556 L34,46.3158444 C34,45.5892085 34.5757355,45 35.2857559,45 L41.7142441,45 C42.4242645,45 43,45.5892085 43,46.3158444 L43,68.6841556 C43,69.4107915 42.4242645,70 41.7142441,70 Z" id="Shape" fill="#FFC36E"></path>
            <path d="M54.7142441,70 L48.2857559,70 C47.5757355,70 47,69.4272328 47,68.7208729 L47,16.2791271 C47,15.5727672 47.5757355,15 48.2857559,15 L54.7142441,15 C55.4242645,15 56,15.5727672 56,16.2791271 L56,68.7208729 C56,69.4272328 55.4242645,70 54.7142441,70 Z" id="Shape" fill="#C3E678"></path>
            <path d="M54.7142441,69 L48.2857559,69 C47.5757355,69 47,68.4366394 47,67.7418803 L47,31.2581197 C47,30.5633606 47.5757355,30 48.2857559,30 L54.7142441,30 C55.4242645,30 56,30.5633606 56,31.2581197 L56,67.7418803 C56,68.4366394 55.4242645,69 54.7142441,69 Z" id="Shape" fill="#A5D76E"></path>
            <path d="M17.7142441,70 L11.2857559,70 C10.5757355,70 10,69.4107915 10,68.6841556 L10,46.3158444 C10,45.5892085 10.5757355,45 11.2857559,45 L17.7142441,45 C18.4242645,45 19,45.5892085 19,46.3158444 L19,68.6841556 C19,69.4107915 18.4242645,70 17.7142441,70 Z" id="Shape" fill="#00D2FF"></path>
            <path d="M67.7142441,69 L61.2857559,69 C60.5757355,69 60,68.4425341 60,67.7550445 L60,9.24495552 C60,8.55746592 60.5757355,8 61.2857559,8 L67.7142441,8 C68.4242645,8 69,8.55746592 69,9.24495552 L69,67.7551855 C68.9998544,68.4425341 68.4242645,69 67.7142441,69 Z" id="Shape" fill="#9BE6D2"></path>
            <path d="M67.7142441,69 L61.2857559,69 C60.5757355,69 60,68.4432752 60,67.7566997 L60,24.2433003 C60,23.5567248 60.5757355,23 61.2857559,23 L67.7142441,23 C68.4242645,23 69,23.5567248 69,24.2433003 L69,67.7568405 C68.9998544,68.4432752 68.4242645,69 67.7142441,69 Z" id="Shape" fill="#78D2BE"></path>
            <path d="M28.7142441,69 L22.2857559,69 C21.5757355,69 21,68.4366394 21,67.7418803 L21,31.2581197 C21,30.5633606 21.5757355,30 22.2857559,30 L28.7142441,30 C29.4242645,30 30,30.5633606 30,31.2581197 L30,67.7418803 C30,68.4366394 29.4242645,69 28.7142441,69 Z" id="Shape" fill="#FF6464"></path>
            <path d="M28.7142441,69 L22.2857559,69 C21.5757355,69 21,68.4447279 21,67.7599438 L21,39.2400562 C21,38.5552721 21.5757355,38 22.2857559,38 L28.7142441,38 C29.4242645,38 30,38.5552721 30,39.2400562 L30,67.7599438 C30,68.4447279 29.4242645,69 28.7142441,69 Z" id="Shape" fill="#D2555A"></path>
            <path d="M17.7142441,70 L11.2857559,70 C10.5757355,70 10,69.4488624 10,68.7691771 L10,55.2308229 C10,54.5511376 10.5757355,54 11.2857559,54 L17.7142441,54 C18.4242645,54 19,54.5511376 19,55.2308229 L19,68.7691771 C19,69.4488624 18.4242645,70 17.7142441,70 Z" id="Shape" fill="#18BDF6"></path>
            <g id="Group" transform="translate(0.000000, 8.000000)" fill="#D7DEED">
                <path d="M3.92340741,55.8861333 L1.30785185,55.8861333 C0.58562963,55.8861333 0,55.3185231 0,54.6185231 C0,53.9185231 0.58562963,53.3509128 1.30785185,53.3509128 L3.92340741,53.3509128 L3.92340741,55.8861333 Z" id="Shape"></path>
                <path d="M3.92340741,48.280759 L1.30785185,48.280759 C0.58562963,48.280759 0,47.7131487 0,47.0131487 C0,46.3131487 0.58562963,45.7455385 1.30785185,45.7455385 L3.92340741,45.7455385 L3.92340741,48.280759 Z" id="Shape"></path>
                <path d="M3.92340741,40.6755282 L1.30785185,40.6755282 C0.58562963,40.6755282 0,40.1079179 0,39.4079179 C0,38.7079179 0.58562963,38.1403077 1.30785185,38.1403077 L3.92340741,38.1403077 L3.92340741,40.6755282 Z" id="Shape"></path>
                <path d="M3.92340741,33.0701538 L1.30785185,33.0701538 C0.58562963,33.0701538 0,32.5025436 0,31.8025436 C0,31.1025436 0.58562963,30.5349333 1.30785185,30.5349333 L3.92340741,30.5349333 L3.92340741,33.0701538 Z" id="Shape"></path>
                <path d="M3.92340741,25.4649231 L1.30785185,25.4649231 C0.58562963,25.4649231 0,24.8973128 0,24.1973128 C0,23.4973128 0.58562963,22.9297026 1.30785185,22.9297026 L3.92340741,22.9297026 L3.92340741,25.4649231 Z" id="Shape"></path>
                <path d="M3.92340741,17.8595487 L1.30785185,17.8595487 C0.58562963,17.8595487 0,17.2919385 0,16.5919385 C0,15.8919385 0.58562963,15.3243282 1.30785185,15.3243282 L3.92340741,15.3243282 L3.92340741,17.8595487 Z" id="Shape"></path>
                <path d="M3.92340741,10.2543179 L1.30785185,10.2543179 C0.58562963,10.2543179 0,9.68670769 0,8.98670769 C0,8.28670769 0.58562963,7.71909744 1.30785185,7.71909744 L3.92340741,7.71909744 L3.92340741,10.2543179 Z" id="Shape"></path>
                <path d="M3.92340741,2.64894359 L1.30785185,2.64894359 C0.58562963,2.64894359 0,2.08147692 0,1.38147692 C0,0.681476923 0.58562963,0.113866667 1.30785185,0.113866667 L3.92340741,0.113866667 L3.92340741,2.64894359 Z" id="Shape"></path>
            </g>
            <path d="M4.5,69 C3.67166969,69 3,68.4382144 3,67.7453977 L3,1.2546023 C3,0.561785557 3.67166969,0 4.5,0 C5.32833031,0 6,0.561785557 6,1.2546023 L6,67.7453977 C5.99983009,68.4382144 5.32833031,69 4.5,69 Z" id="Shape" fill="#C7CFE2"></path>
            <path d="M0,69.5 C0,68.6716697 0.563610227,68 1.25867723,68 L71.7413228,68 C72.4363898,68 73,68.6716697 73,69.5 C73,70.3283303 72.4363898,71 71.7413228,71 L1.25867723,71 C0.563610227,70.9998301 0,70.3283303 0,69.5 Z" id="Shape" fill="#AFB9D2"></path>
        </g>
    </g>
</svg>