<?xml version="1.0" encoding="UTF-8"?>
<svg width="136px" height="136px" viewBox="0 0 136 136" version="1.1" xmlns="http://www.w3.org/2000/svg" xmlns:xlink="http://www.w3.org/1999/xlink">
    <defs>
        <path d="M87.5810547,21.8194412 L66.5020234,15.6196834 C63.9483984,14.8686599 62.1949609,12.5250115 62.1949609,9.86337086 L62.1949609,0.352909926 L34.1951797,0.352909926 L34.1951797,9.86337086 C34.1951797,12.5250115 32.4417422,14.8686599 29.8881172,15.6196834 L8.80908594,21.8194412 C3.70207813,23.3214881 0.195203125,28.0085427 0.195203125,33.331824 L0.195203125,52.3529881 C0.195203125,55.6665974 2.88154687,58.3529412 6.19515625,58.3529412 L90.1952266,58.3529412 C93.5088359,58.3529412 96.1951797,55.6665974 96.1951797,52.3529881 L96.1951797,33.331824 C96.1951797,28.0085427 92.6880625,23.3214881 87.5810547,21.8194412 Z" id="path-1"></path>
        <filter x="-12.3%" y="-43.2%" width="124.7%" height="186.4%" filterUnits="objectBoundingBox" id="filter-3">
            <feGaussianBlur stdDeviation="1.15234375" in="SourceGraphic"></feGaussianBlur>
        </filter>
        <path d="M59.6951016,20.4999609 L58.6951094,20.4999609 L58.6951094,0.500117188 L6.69503125,0.500117188 L6.69503125,20.5002031 L5.69503906,20.5002031 C2.945,20.5002031 0.695078125,22.750125 0.695078125,25.5001641 C0.695078125,28.2502031 2.945,30.500125 5.69503906,30.500125 L6.79602344,30.500125 C7.82047656,43.9219141 19.01075,54.5001797 32.6950703,54.5001797 C46.3793906,54.5001797 57.5696641,43.9219141 58.5941172,30.500125 L59.6951016,30.500125 C62.4451406,30.500125 64.6950625,28.2502031 64.6950625,25.5001641 C64.6950625,22.7498828 62.4451406,20.4999609 59.6951016,20.4999609 Z" id="path-4"></path>
        <filter x="-4.0%" y="-4.3%" width="108.0%" height="108.7%" filterUnits="objectBoundingBox" id="filter-6">
            <feGaussianBlur stdDeviation="0.6640625" in="SourceGraphic"></feGaussianBlur>
        </filter>
        <path d="M60.8715487,24.0000547 L0.871533088,24.0000547 L5.73538465,4.54489062 C6.40309559,1.87380469 8.80293153,0 11.556119,0 L50.1867206,0 C52.9399081,0 55.339744,1.87380469 56.0076972,4.54489062 L60.8715487,24.0000547 Z" id="path-7"></path>
        <filter x="-11.5%" y="-11.8%" width="122.9%" height="123.6%" filterUnits="objectBoundingBox" id="filter-9">
            <feGaussianBlur stdDeviation="0.943080357" in="SourceGraphic"></feGaussianBlur>
        </filter>
        <polygon id="path-10" points="0.548113051 4.32363097 57.5479099 4.32363097 56.5479177 0.323420037 1.54810524 0.323420037"></polygon>
        <filter x="-65.5%" y="-245.7%" width="231.0%" height="591.3%" filterUnits="objectBoundingBox" id="filter-12">
            <feGaussianBlur stdDeviation="3.27566964" in="SourceGraphic"></feGaussianBlur>
        </filter>
    </defs>
    <g id="ico-concierge" stroke="none" stroke-width="1" fill="none" fill-rule="evenodd">
        <g id="concierge" transform="translate(20.000000, 6.000000)">
            <g id="Shape" transform="translate(0.000000, 65.647059)">
                <mask id="mask-2" fill="white">
                    <use xlink:href="#path-1"></use>
                </mask>
                <use id="Mask" fill="#E6AF78" fill-rule="nonzero" xlink:href="#path-1"></use>
                <path d="M34.1951797,4.81618336 C38.3968906,7.06053493 43.1619297,8.35308961 48.1950703,8.35308961 C53.2282109,8.35308961 57.99325,7.06053493 62.1949609,4.81618336 L62.1949609,0.353152114 L34.1951797,0.353152114 L34.1951797,4.81618336 Z" fill="#D29B6E" fill-rule="nonzero" filter="url(#filter-3)" mask="url(#mask-2)"></path>
            </g>
            <g id="Group" transform="translate(24.703125, 73.867188)" fill="#DC4655" fill-rule="nonzero">
                <path d="M18.0168125,5.47925 C14.5363359,4.63014063 11.5600937,3.01547656 9.67175781,1.00241406 C8.55309375,-0.189875 6.62019531,-0.0380234375 5.63909375,1.27003125 L0.208523437,8.51071094 C4.49911719,13.5438516 11.3944375,17.0269922 19.4917344,17.9022578 L19.49125,7.40609375 C19.49125,6.50442969 18.8925625,5.69285937 18.0168125,5.47925 Z" id="Shape"></path>
                <path d="M46.7756094,8.51071094 L41.3450391,1.27003125 C40.3639375,-0.0380234375 38.4310391,-0.189875 37.312375,1.00241406 C35.4240391,3.01523438 32.4477969,4.63014063 28.9673203,5.47925 C28.0915703,5.69285938 27.4926406,6.50442969 27.4926406,7.40633594 L27.4923984,17.9025 C35.5896953,17.0269922 42.4850156,13.5438516 46.7756094,8.51071094 Z" id="Shape"></path>
            </g>
            <path d="M87.5812969,87.4662578 L70.2147578,82.3585234 C66.5245469,88.0295859 58.0588828,91.9997656 48.1953125,91.9997656 C38.3317422,91.9997656 29.8660781,88.0295859 26.1758672,82.3585234 L8.80932813,87.4662578 C3.70232031,88.9685469 0.195445313,93.6553594 0.195445313,98.9786406 L0.195445313,117.999805 C0.195445313,121.313414 2.88178906,123.999758 6.19539844,123.999758 L90.1954687,123.999758 C93.5090781,123.999758 96.1954219,121.313414 96.1954219,117.999805 L96.1954219,98.9786406 C96.1951797,93.6556016 92.6880625,88.9685469 87.5812969,87.4662578 Z" id="Shape" fill="#E6646E" fill-rule="nonzero"></path>
            <g id="Shape" transform="translate(15.500000, 15.500000)">
                <mask id="mask-5" fill="white">
                    <use xlink:href="#path-4"></use>
                </mask>
                <use id="Mask" fill="#F0C087" fill-rule="nonzero" xlink:href="#path-4"></use>
                <path d="M50.6951719,8.50005469 L6.69527344,8.50005469 L6.69527344,20.4999609 L5.870625,20.4999609 C3.59357812,20.4999609 1.46692969,21.9429141 0.876960937,24.1422187 C-0.0152578125,27.4684219 2.50325,30.4998828 5.69528125,30.4998828 L6.79626562,30.4998828 C7.82071875,43.9216719 19.0109922,54.4999375 32.6953125,54.4999375 C34.0634297,54.4999375 35.3973984,54.3667344 36.707875,54.1630547 C24.2463594,52.2396016 14.6952109,41.5000391 14.6952109,28.4998984 L14.6952109,24.4999297 C14.6952109,17.8724687 20.0678984,12.5000234 26.6951172,12.5000234 L46.6952031,12.5000234 C48.9041953,12.5000234 50.6951719,10.7090469 50.6951719,8.50005469 Z" fill="#E6AF78" fill-rule="nonzero" filter="url(#filter-6)" mask="url(#mask-5)"></path>
            </g>
            <g id="Group" transform="translate(22.039062, 97.843750)" fill="#FFE17D" fill-rule="nonzero">
                <path d="M2.17557031,4.15617969 C1.06998438,4.15617969 0.165898438,3.26153906 0.165898438,2.15619531 C0.165898438,1.05085156 1.05060937,0.156210938 2.15619531,0.156210938 L2.1758125,0.156210938 C3.28139844,0.156210938 4.17579687,1.05085156 4.17579687,2.15619531 C4.17579687,3.26153906 3.28091406,4.15617969 2.17557031,4.15617969 Z" id="Shape"></path>
                <path d="M50.1754375,4.15617969 C49.0698516,4.15617969 48.1657656,3.26153906 48.1657656,2.15619531 C48.1657656,1.05085156 49.0504766,0.156210938 50.1560625,0.156210938 L50.1756797,0.156210938 C51.2812656,0.156210938 52.1756641,1.05085156 52.1756641,2.15619531 C52.1756641,3.26153906 51.2810234,4.15617969 50.1754375,4.15617969 Z" id="Shape"></path>
                <path d="M50.1754375,14.1563437 C49.0698516,14.1563437 48.1657656,13.2617031 48.1657656,12.1563594 C48.1657656,11.0510156 49.0504766,10.156375 50.1560625,10.156375 L50.1756797,10.156375 C51.2812656,10.156375 52.1756641,11.0510156 52.1756641,12.1563594 C52.1756641,13.2617031 51.2810234,14.1563437 50.1754375,14.1563437 Z" id="Shape"></path>
                <path d="M2.17557031,14.1563437 C1.06998438,14.1563437 0.165898438,13.2617031 0.165898438,12.1563594 C0.165898438,11.0510156 1.05060937,10.156375 2.15619531,10.156375 L2.1758125,10.156375 C3.28139844,10.156375 4.17579687,11.0510156 4.17579687,12.1563594 C4.17579687,13.2617031 3.28091406,14.1563437 2.17557031,14.1563437 Z" id="Shape"></path>
                <path d="M50.1754375,24.1562656 C49.0698516,24.1562656 48.1657656,23.261625 48.1657656,22.1562813 C48.1657656,21.0506953 49.0504766,20.1562969 50.1560625,20.1562969 L50.1756797,20.1562969 C51.2812656,20.1562969 52.1756641,21.0509375 52.1756641,22.1562813 C52.1754219,23.261625 51.2810234,24.1562656 50.1754375,24.1562656 Z" id="Shape"></path>
                <path d="M2.17557031,24.1562656 C1.06998438,24.1562656 0.165898438,23.261625 0.165898438,22.1562813 C0.165898438,21.0506953 1.05060937,20.1562969 2.15619531,20.1562969 L2.1758125,20.1562969 C3.28139844,20.1562969 4.17579687,21.0509375 4.17579687,22.1562813 C4.17555469,23.261625 3.28091406,24.1562656 2.17557031,24.1562656 Z" id="Shape"></path>
            </g>
            <g id="Group" transform="translate(18.164062, 23.976562)" fill="#6E5A64" fill-rule="nonzero">
                <path d="M4.52139844,12.4569141 L0.031,13.0115234 L0.031,0.0234921875 L8.0309375,0.0234921875 L8.0309375,8.48721875 C8.0309375,10.5065781 6.52574219,12.2093984 4.52139844,12.4569141 Z" id="Shape"></path>
                <path d="M55.5406172,12.4569141 L60.0310156,13.0115234 L60.0310156,0.0234921875 L52.0310781,0.0234921875 L52.0310781,8.48721875 C52.0310781,10.5065781 53.5362734,12.2093984 55.5406172,12.4569141 Z" id="Shape"></path>
            </g>
            <g id="Shape" transform="translate(17.323529, 0.000000)">
                <mask id="mask-8" fill="white">
                    <use xlink:href="#path-7"></use>
                </mask>
                <use id="Mask" fill="#E6646E" fill-rule="nonzero" xlink:href="#path-7"></use>
                <path d="M25.5562518,0 L11.5563612,0 C8.80317371,0 6.40309559,1.87380469 5.73538465,4.54489062 L0.871533088,24.0000547 L14.8714237,24.0000547 L19.7352753,4.54489063 C20.4029862,1.87380469 22.8028222,0 25.5562518,0 Z" fill="#DC4655" fill-rule="nonzero" filter="url(#filter-9)" mask="url(#mask-8)"></path>
            </g>
            <g id="Shape" transform="translate(19.147059, 13.676471)">
                <mask id="mask-11" fill="white">
                    <use xlink:href="#path-10"></use>
                </mask>
                <use id="Mask" fill="#FFE17D" fill-rule="nonzero" xlink:href="#path-10"></use>
                <polygon fill="#FFD164" fill-rule="nonzero" filter="url(#filter-12)" mask="url(#mask-11)" points="0.548113051 4.32363097 14.5480037 4.32363097 15.5479959 0.323420037 1.54810524 0.323420037"></polygon>
            </g>
            <path d="M26.195,92.0000078 L48.1950703,92.0000078 C42.1166484,92.0000078 36.5795156,90.4843984 32.3533438,88.0000391 L26.195,88.0000391 C19.5777109,88.0000391 14.1950937,93.3828984 14.1950937,99.9999453 L14.1950937,124 L18.1950625,124 L18.1950625,99.9999453 C18.1950625,95.5877734 21.7830703,92.0000078 26.195,92.0000078 Z" id="Shape" fill="#DC4655" fill-rule="nonzero"></path>
        </g>
    </g>
</svg>