<?xml version="1.0" encoding="UTF-8"?>
<svg width="136px" height="136px" viewBox="0 0 136 136" version="1.1" xmlns="http://www.w3.org/2000/svg">
    <!-- Generator: Sketch 51.3 (57544) - http://www.bohemiancoding.com/sketch -->
    <defs></defs>
    <g id="ico-inhouse" stroke="none" stroke-width="1" fill="none" fill-rule="evenodd">
        <g id="mobile" transform="translate(29.000000, 6.000000)" fill-rule="nonzero">
            <g id="Group" transform="translate(2.379531, 0.000000)" fill="#3A556A">
                <path d="M0.140656716,120.511343 L0.140656716,3.30173134 C0.140656716,1.48588486 1.62627719,0 3.44238806,0 L70.1364094,0 C71.9522559,0 73.4381407,1.48588486 73.4381407,3.30173134 L73.4381407,120.511343 C73.4381407,122.32719 71.9522559,123.813075 70.1364094,123.813075 L3.44238806,123.813075 C1.62627719,123.813075 0.140656716,122.32719 0.140656716,120.511343 Z" id="Shape"></path>
                <path d="M70.466371,0 L32.1667633,0 L40.5860725,16.3434115 L73.2726311,16.3434115 L73.2726311,3.13648614 C73.4378763,1.32063966 72.1172367,0 70.466371,0 Z" id="Shape"></path>
            </g>
            <path d="M2.52018763,3.13648614 L2.52018763,16.5083923 L43.1308486,16.5083923 L34.7115394,0.16498081 L5.49169296,0.16498081 C3.84082729,-1.11022302e-16 2.52018763,1.32063966 2.52018763,3.13648614 Z" id="Shape" fill="#2F4859"></path>
            <rect id="Rectangle-path" fill="#EBF0F3" x="7.14255864" y="16.3434115" width="64.2177228" height="87.6595394"></rect>
            <g id="Group" transform="translate(28.289979, 6.609808)" fill="#D5D6DB">
                <path d="M20.1234286,3.13014072 L1.63394456,3.13014072 C0.808511727,3.13014072 0.148059701,2.4696887 0.148059701,1.64425586 C0.148059701,0.818823028 0.808511727,0.158371002 1.63394456,0.158371002 L19.9581834,0.158371002 C20.7836162,0.158371002 21.4440682,0.818823028 21.4440682,1.64425586 C21.6093134,2.4696887 20.9488614,3.13014072 20.1234286,3.13014072 Z" id="Shape"></path>
                <circle id="Oval" cx="27.2220981" cy="1.64452026" r="1.48588486"></circle>
                <circle id="Oval" cx="10.8786866" cy="107.298072" r="6.7684435"></circle>
            </g>
            <path d="M41.4799829,117.044631 L37.0225928,117.044631 C36.5273859,117.044631 36.1971599,116.714405 36.1971599,116.219198 L36.1971599,111.761808 C36.1971599,111.266601 36.5273859,110.936375 37.0225928,110.936375 L41.4799829,110.936375 C41.9751898,110.936375 42.3054158,111.266601 42.3054158,111.761808 L42.3054158,116.219198 C42.3054158,116.54916 41.810209,117.044631 41.4799829,117.044631 Z" id="Shape" fill="#64798A"></path>
            <polygon id="Shape" fill="#E1E6E9" points="7.14255864 16.3434115 7.14255864 104.002951 7.14255864 104.002951 43.1308486 16.3434115"></polygon>
            <g id="Group" transform="translate(0.000000, 27.232409)" fill="#D5D6DB">
                <path d="M2.52018763,6.77478891 L1.03430277,6.77478891 C0.539095949,6.77478891 0.208869936,6.4445629 0.208869936,5.94935608 L0.208869936,0.831778252 C0.208869936,0.336571429 0.539095949,0.00634541578 1.03430277,0.00634541578 L2.52018763,0.00634541578 L2.52018763,6.77478891 Z" id="Shape"></path>
                <path d="M2.52018763,18.6608102 L1.03430277,18.6608102 C0.539095949,18.6608102 0.208869936,18.3305842 0.208869936,17.8353774 L0.208869936,12.7177996 C0.208869936,12.2225928 0.539095949,11.8923667 1.03430277,11.8923667 L2.52018763,11.8923667 L2.52018763,18.6608102 Z" id="Shape"></path>
                <path d="M75.8174072,18.6608102 L77.3030277,18.6608102 C77.7982345,18.6608102 78.1284606,18.3305842 78.1284606,17.8353774 L78.1284606,9.41606823 C78.1284606,8.92086141 77.7982345,8.59063539 77.3030277,8.59063539 L75.8171429,8.59063539 L75.8174072,18.6608102 Z" id="Shape"></path>
            </g>
        </g>
    </g>
</svg>