<svg width="512" height="512" xmlns="http://www.w3.org/2000/svg" xml:space="preserve" version="1.1">

 <g>
  <title>Layer 1</title>
  <circle id="svg_1" fill="#56aaff" r="256" cy="256" cx="256"/>
  <path id="svg_2" fill="#86baf9" d="m509.78,289.778l-147.243,-147.249l-238.959,239.894l129.541,129.541c0.96,0.01 1.919,0.036 2.881,0.036c129.932,0 237.246,-96.804 253.78,-222.222z"/>
  <g id="svg_3">
   <polygon id="svg_4" fill="#940030" points="148.804,382.166 123.578,382.423 123.578,321.236 169.634,315.151  "/>
   <polygon id="svg_5" fill="#940030" points="363.196,382.423 388.422,382.166 388.422,320.977 342.366,315.835  "/>
  </g>
  <path id="svg_6" fill="#263A7A" d="m163.909,323.718l184.182,0c11.186,0 20.256,-9.069 20.256,-20.256l0,-146.733c0,-11.186 -9.069,-20.256 -20.256,-20.256l-184.182,0c-11.186,0 -20.256,9.069 -20.256,20.256l0,146.734c0,11.186 9.068,20.255 20.256,20.255z"/>
  <path id="svg_7" fill="#121149" d="m348.091,136.473l-96.113,0l0,187.245l96.113,0c11.186,0 20.256,-9.069 20.256,-20.256l0,-146.733c0,-11.188 -9.068,-20.256 -20.256,-20.256z"/>
  <path id="svg_8" fill="#FFFFFF" d="m307.574,257.929c-34.383,6.601 -68.767,6.601 -103.15,0c-11.002,-20.63 -11.002,-41.26 0,-61.89c34.383,-6.601 68.767,-6.601 103.15,0c11.004,20.63 11.004,41.26 0,61.89z"/>
  <path id="svg_9" fill="#CCCCCC" d="m307.574,196.041c-18.532,-3.558 -37.064,-5.18 -55.596,-4.903l0,71.696c18.532,0.278 37.064,-1.345 55.596,-4.903c11.004,-20.632 11.004,-41.262 0,-61.89z"/>
  <path id="svg_10" fill="#366695" d="m122.397,346.998l267.205,0l0,-83.394c0,-9.283 -7.525,-16.808 -16.808,-16.808l-233.589,0c-9.283,0 -16.808,7.525 -16.808,16.808l0,83.394z"/>
  <path id="svg_11" fill="#273B7A" d="m389.603,263.604c0,-9.283 -7.525,-16.808 -16.808,-16.808l-120.817,0l0,100.202l137.625,0l0,-83.394z"/>
  <g id="svg_12"/>
  <g id="svg_13"/>
  <g id="svg_14"/>
  <g id="svg_15"/>
  <g id="svg_16"/>
  <g id="svg_17"/>
  <g id="svg_18"/>
  <g id="svg_19"/>
  <g id="svg_20"/>
  <g id="svg_21"/>
  <g id="svg_22"/>
  <g id="svg_23"/>
  <g id="svg_24"/>
  <g id="svg_25"/>
  <g id="svg_26"/>
 </g>
</svg>