<?xml version="1.0" encoding="UTF-8"?>
<svg width="136px" height="136px" viewBox="0 0 136 136" version="1.1" xmlns="http://www.w3.org/2000/svg" xmlns:xlink="http://www.w3.org/1999/xlink">
    <defs>
        <path d="M11.8363636,49.6 L11.8363636,25.3952 C11.8363636,17.6576 18.9381818,11.904 24.6590909,11.904 L38.4681818,11.904 C48.1345455,11.904 53.2636364,17.6576 53.2636364,25.3952 L53.2636364,49.6 L65.1,49.6 L65.1,25.3952 C65.1,11.1104 54.6445455,0 38.4681818,0 L24.6590909,0 C12.4281818,0 0,11.1104 0,25.3952 L0,49.6 L11.8363636,49.6 Z" id="path-1"></path>
        <filter x="-8.8%" y="-6.0%" width="117.6%" height="112.1%" filterUnits="objectBoundingBox" id="filter-3">
            <feGaussianBlur stdDeviation="1" in="SourceGraphic"></feGaussianBlur>
        </filter>
        <path d="M77.5,65.974359 C77.5,72.5320513 73.525641,77.5 66.9679487,77.5 L12.5192308,77.5 C5.96153846,77.5 0,72.5320513 0,65.974359 L0,7.55128205 C0,0.993589744 5.96153846,0 12.5192308,0 L66.9679487,0 C73.525641,0 77.5,0.993589744 77.5,7.55128205 L77.5,65.974359 Z" id="path-4"></path>
    </defs>
    <g id="ico-seguridad" stroke="none" stroke-width="1" fill="none" fill-rule="evenodd">
        <g id="padlock-(1)" transform="translate(29.000000, 6.000000)">
            <g id="Path" transform="translate(6.200000, 0.000000)">
                <mask id="mask-2" fill="white">
                    <use xlink:href="#path-1"></use>
                </mask>
                <use id="Mask" fill="#E0E0E0" xlink:href="#path-1"></use>
                <path d="M40.0264706,0 L31,0 L31,11.904 L40.0264706,11.904 C47.8494118,11.904 53.0647059,17.6576 53.0647059,25.3952 L53.0647059,49.6 L65.1,49.6 L65.1,25.3952 C65.1,11.1104 54.4688235,0 40.0264706,0 Z" fill="#C3C7CB" filter="url(#filter-3)" mask="url(#mask-2)"></path>
            </g>
            <g id="Path" transform="translate(0.000000, 46.500000)">
                <mask id="mask-5" fill="white">
                    <use xlink:href="#path-4"></use>
                </mask>
                <use id="Mask" fill="#FFD782" fill-rule="nonzero" xlink:href="#path-4"></use>
                <path d="M0,7.55128205 C0,0.993589744 5.96153846,0 12.5192308,0 L66.9679487,0 C73.525641,0 77.5,0.993589744 77.5,7.55128205 L77.5,65.974359 C77.5,72.5320513 73.525641,77.5 66.9679487,77.5" fill="#FFC36E" fill-rule="nonzero" mask="url(#mask-5)"></path>
            </g>
            <path d="M49.6,76.6704225 C49.6,71.1690141 45.1222222,66.65 39.4232323,66.65 C33.7242424,66.65 29.45,71.1690141 29.45,76.6704225 C29.45,80.6 31.4853535,83.743662 35.5560606,85.5119718 L35.5560606,103.980986 C35.5560606,106.535211 36.9808081,108.5 39.6267677,108.5 C42.2727273,108.5 43.6974747,106.535211 43.6974747,103.980986 L43.6974747,85.5119718 C47.7681818,83.743662 49.6,80.6 49.6,76.6704225 Z" id="Path" fill="#4C3213"></path>
            <path d="M38.75,108.5 C41.5156863,108.5 43.4303922,106.535211 43.4303922,103.980986 L43.4303922,85.5119718 C47.6852941,83.9401408 49.6,80.6 49.6,76.6704225 C49.6,71.1690141 44.7068627,66.65 38.75,66.65" id="Path" fill="#331F09"></path>
        </g>
    </g>
</svg>