<?xml version="1.0" encoding="UTF-8"?>
<svg width="27px" height="17px" viewBox="0 0 27 17" version="1.1" xmlns="http://www.w3.org/2000/svg">
    <!-- Generator: Sketch 52.2 (67145) - http://www.bohemiancoding.com/sketch -->
    <title>ico_back-folder</title>
    <desc>Created with Sketch.</desc>
    <g id="ico_back-folder" stroke="none" stroke-width="1" fill="none" fill-rule="evenodd">
        <path d="M6.91813151,14 L11.5,14 C12.0522847,14 12.5,14.4477153 12.5,15 C12.5,15.5522847 12.0522847,16 11.5,16 L5.5,16 C4.94771525,16 4.5,15.5522847 4.5,15 L4.5,14 L4.50439453,14 L4.50439453,4.11959203 L2.06712023,6.55686633 C1.8370039,6.78698267 1.53569731,6.91080729 1.2105306,6.91080729 C0.885363891,6.91080729 0.584057301,6.78698267 0.353940964,6.55686633 C0.124859262,6.32778463 -3.0375702e-13,6.0281224 -3.0375702e-13,5.7039388 C-3.0375702e-13,5.37975521 0.124859262,5.08009298 0.354420618,4.85053201 L4.85863748,0.353639082 C5.08768051,0.124749572 5.38722186,8.8817842e-15 5.71126302,8.8817842e-15 C6.03544662,8.8817842e-15 6.33510885,0.124859262 6.56419055,0.353940964 L11.020759,4.81311968 C11.1633709,4.93790506 11.2723001,5.09419484 11.3381863,5.27302874 C11.3891552,5.41137287 11.4152018,5.5564897 11.4152018,5.7039388 C11.4152018,5.85138791 11.3891552,5.99650473 11.3381863,6.13484887 C11.2723001,6.31368277 11.1633709,6.46997255 11.0612609,6.55686633 C10.8321792,6.78594803 10.5325169,6.91080729 10.2083333,6.91080729 C9.88414974,6.91080729 9.58448751,6.78594803 9.35540581,6.55686633 L6.91813151,4.11959203 L6.91813151,14 Z" id="Combined-Shape" fill="#FFFFFF" fill-rule="nonzero"></path>
        <path d="M16,15.208 C16,15.0426658 16.0306664,14.8853341 16.092,14.736 C16.1533336,14.5866659 16.2386661,14.4586672 16.348,14.352 C16.4573339,14.2453328 16.5866659,14.1600003 16.736,14.096 C16.8853341,14.0319997 17.0453325,14 17.216,14 C17.3813342,14 17.5386659,14.0319997 17.688,14.096 C17.8373341,14.1600003 17.9653328,14.2453328 18.072,14.352 C18.1786672,14.4586672 18.2639997,14.5866659 18.328,14.736 C18.3920003,14.8853341 18.424,15.0426658 18.424,15.208 C18.424,15.3786675 18.3920003,15.5373326 18.328,15.684 C18.2639997,15.8306674 18.1786672,15.9573328 18.072,16.064 C17.9653328,16.1706672 17.8373341,16.2546664 17.688,16.316 C17.5386659,16.3773336 17.3813342,16.408 17.216,16.408 C17.0453325,16.408 16.8853341,16.3773336 16.736,16.316 C16.5866659,16.2546664 16.4573339,16.1706672 16.348,16.064 C16.2386661,15.9573328 16.1533336,15.8306674 16.092,15.684 C16.0306664,15.5373326 16,15.3786675 16,15.208 Z M24.544,15.208 C24.544,15.0426658 24.5746664,14.8853341 24.636,14.736 C24.6973336,14.5866659 24.7826661,14.4586672 24.892,14.352 C25.0013339,14.2453328 25.1306659,14.1600003 25.28,14.096 C25.4293341,14.0319997 25.5893325,14 25.76,14 C25.9253342,14 26.0826659,14.0319997 26.232,14.096 C26.3813341,14.1600003 26.5093328,14.2453328 26.616,14.352 C26.7226672,14.4586672 26.8079997,14.5866659 26.872,14.736 C26.9360003,14.8853341 26.968,15.0426658 26.968,15.208 C26.968,15.3786675 26.9360003,15.5373326 26.872,15.684 C26.8079997,15.8306674 26.7226672,15.9573328 26.616,16.064 C26.5093328,16.1706672 26.3813341,16.2546664 26.232,16.316 C26.0826659,16.3773336 25.9253342,16.408 25.76,16.408 C25.5893325,16.408 25.4293341,16.3773336 25.28,16.316 C25.1306659,16.2546664 25.0013339,16.1706672 24.892,16.064 C24.7826661,15.9573328 24.6973336,15.8306674 24.636,15.684 C24.5746664,15.5373326 24.544,15.3786675 24.544,15.208 Z M20.272,15.208 C20.272,15.0426658 20.3026664,14.8853341 20.364,14.736 C20.4253336,14.5866659 20.5106661,14.4586672 20.62,14.352 C20.7293339,14.2453328 20.8586659,14.1600003 21.008,14.096 C21.1573341,14.0319997 21.3173325,14 21.488,14 C21.6533342,14 21.8106659,14.0319997 21.96,14.096 C22.1093341,14.1600003 22.2373328,14.2453328 22.344,14.352 C22.4506672,14.4586672 22.5359997,14.5866659 22.6,14.736 C22.6640003,14.8853341 22.696,15.0426658 22.696,15.208 C22.696,15.3786675 22.6640003,15.5373326 22.6,15.684 C22.5359997,15.8306674 22.4506672,15.9573328 22.344,16.064 C22.2373328,16.1706672 22.1093341,16.2546664 21.96,16.316 C21.8106659,16.3773336 21.6533342,16.408 21.488,16.408 C21.3173325,16.408 21.1573341,16.3773336 21.008,16.316 C20.8586659,16.2546664 20.7293339,16.1706672 20.62,16.064 C20.5106661,15.9573328 20.4253336,15.8306674 20.364,15.684 C20.3026664,15.5373326 20.272,15.3786675 20.272,15.208 Z" id="…" fill="#FFFFFF"></path>
    </g>
</svg>