<?xml version="1.0" encoding="UTF-8"?>
<svg width="136px" height="136px" viewBox="0 0 136 136" version="1.1" xmlns="http://www.w3.org/2000/svg" xmlns:xlink="http://www.w3.org/1999/xlink">
    <!-- Generator: Sketch 51.3 (57544) - http://www.bohemiancoding.com/sketch -->
    <defs>
        <linearGradient x1="0%" y1="0%" x2="96.6537211%" y2="96.6537211%" id="linearGradient-1">
            <stop stop-color="#F8FAFD" offset="0%"></stop>
            <stop stop-color="#E9EDF9" offset="100%"></stop>
        </linearGradient>
    </defs>
    <g id="ico-servicios" stroke="none" stroke-width="1" fill="none" fill-rule="evenodd">
        <g id="Group-2" transform="translate(23.000000, 6.000000)" fill-rule="nonzero">
            <g id="notepad">
                <path d="M81.3917109,124 L8.70203906,124 C3.97914063,124 0.150398438,120.171258 0.150398438,115.448359 L0.150398438,17.1035234 C0.150398438,12.380625 3.97914063,8.55188281 8.70203906,8.55188281 L81.3917109,8.55188281 C86.1146094,8.55188281 89.9433516,12.380625 89.9433516,17.1035234 L89.9433516,115.448359 C89.9433516,120.171258 86.1146094,124 81.3917109,124 Z" id="Shape" fill="#E1C3A0"></path>
                <path d="M81.3917109,117.586148 L8.70203906,117.586148 C7.521375,117.586148 6.56400781,116.628781 6.56400781,115.448117 L6.56400781,17.1035234 C6.56400781,15.9228594 7.521375,14.9654922 8.70203906,14.9654922 L81.3917109,14.9654922 C82.572375,14.9654922 83.5297422,15.9228594 83.5297422,17.1035234 L83.5297422,115.448359 C83.5297422,116.629023 82.572375,117.586148 81.3917109,117.586148 Z" id="Shape" fill="url(#linearGradient-1)"></path>
                <path d="M57.8745781,8.55164062 L51.4607266,8.55164062 L51.4607266,6.41360938 C51.4607266,2.87161719 48.5891094,0 45.046875,0 C41.5046406,0 38.6330234,2.87161719 38.6330234,6.41385156 L38.6330234,8.55188281 L32.2191719,8.55188281 C29.8578437,8.55188281 27.9433516,10.4661328 27.9433516,12.8277031 L27.9433516,17.1035234 L62.1501562,17.1035234 L62.1501562,12.8277031 C62.1503984,10.4658906 60.2359062,8.55164062 57.8745781,8.55164062 Z M45.046875,8.55164063 C43.8662109,8.55164063 42.9088438,7.59427344 42.9088438,6.41360938 C42.9088438,5.23294531 43.8662109,4.27557812 45.046875,4.27557812 C46.2275391,4.27557812 47.1849062,5.23294531 47.1849062,6.41360938 C47.1849062,7.59427344 46.2275391,8.55164063 45.046875,8.55164063 Z" id="Shape" fill="#C7CFE2"></path>
                <path d="M62.1503984,19.2413125 L27.9433516,19.2413125 C26.7626875,19.2413125 25.8053203,18.2839453 25.8053203,17.1032813 C25.8053203,15.9226172 26.7626875,14.96525 27.9433516,14.96525 L62.1501563,14.96525 C63.3308203,14.96525 64.2881875,15.9226172 64.2881875,17.1032813 C64.2881875,18.2841875 63.3310625,19.2413125 62.1503984,19.2413125 Z" id="Shape" fill="#AFB9D2"></path>
                <path d="M20.1535854,45.7093856 C19.8238785,45.7093856 19.4941716,45.5878914 19.2426954,45.344903 L15.3774334,41.6122689 C14.8741889,41.1262922 14.8741889,40.3388351 15.3774334,39.8528583 C15.8806778,39.3668816 16.6961149,39.3668816 17.1993593,39.8528583 L20.1535854,42.7058576 L25.68475,37.3644826 C26.1879945,36.8785058 27.0034315,36.8785058 27.506676,37.3644826 C28.0099205,37.8504593 28.0099205,38.6379164 27.506676,39.1238932 L21.0646213,45.344903 C20.8129991,45.5880323 20.4832922,45.7093856 20.1535854,45.7093856 Z" id="Shape" fill="#82889D"></path>
            </g>
            <rect id="Rectangle-6" fill="#AFB9D2" x="33" y="38" width="29" height="3" rx="1.5"></rect>
            <rect id="Rectangle-6-Copy" fill="#C7CFE2" x="33" y="43" width="42" height="3" rx="1"></rect>
            <path d="M20.1535854,63.7093856 C19.8238785,63.7093856 19.4941716,63.5878914 19.2426954,63.344903 L15.3774334,59.6122689 C14.8741889,59.1262922 14.8741889,58.3388351 15.3774334,57.8528583 C15.8806778,57.3668816 16.6961149,57.3668816 17.1993593,57.8528583 L20.1535854,60.7058576 L25.68475,55.3644826 C26.1879945,54.8785058 27.0034315,54.8785058 27.506676,55.3644826 C28.0099205,55.8504593 28.0099205,56.6379164 27.506676,57.1238932 L21.0646213,63.344903 C20.8129991,63.5880323 20.4832922,63.7093856 20.1535854,63.7093856 Z" id="Shape" fill="#82889D"></path>
            <rect id="Rectangle-6" fill="#AFB9D2" x="33" y="56" width="29" height="3" rx="1.5"></rect>
            <rect id="Rectangle-6-Copy" fill="#C7CFE2" x="33" y="61" width="42" height="3" rx="1"></rect>
            <path d="M20.1535854,80.7093856 C19.8238785,80.7093856 19.4941716,80.5878914 19.2426954,80.344903 L15.3774334,76.6122689 C14.8741889,76.1262922 14.8741889,75.3388351 15.3774334,74.8528583 C15.8806778,74.3668816 16.6961149,74.3668816 17.1993593,74.8528583 L20.1535854,77.7058576 L25.68475,72.3644826 C26.1879945,71.8785058 27.0034315,71.8785058 27.506676,72.3644826 C28.0099205,72.8504593 28.0099205,73.6379164 27.506676,74.1238932 L21.0646213,80.344903 C20.8129991,80.5880323 20.4832922,80.7093856 20.1535854,80.7093856 Z" id="Shape" fill="#82889D"></path>
            <rect id="Rectangle-6" fill="#AFB9D2" x="33" y="73" width="29" height="3" rx="1.5"></rect>
            <rect id="Rectangle-6-Copy" fill="#C7CFE2" x="33" y="78" width="42" height="3" rx="1"></rect>
            <path d="M20.1535854,98.7093856 C19.8238785,98.7093856 19.4941716,98.5878914 19.2426954,98.344903 L15.3774334,94.6122689 C14.8741889,94.1262922 14.8741889,93.3388351 15.3774334,92.8528583 C15.8806778,92.3668816 16.6961149,92.3668816 17.1993593,92.8528583 L20.1535854,95.7058576 L25.68475,90.3644826 C26.1879945,89.8785058 27.0034315,89.8785058 27.506676,90.3644826 C28.0099205,90.8504593 28.0099205,91.6379164 27.506676,92.1238932 L21.0646213,98.344903 C20.8129991,98.5880323 20.4832922,98.7093856 20.1535854,98.7093856 Z" id="Shape" fill="#82889D"></path>
            <rect id="Rectangle-6" fill="#AFB9D2" x="33" y="91" width="29" height="3" rx="1.5"></rect>
            <rect id="Rectangle-6-Copy" fill="#C7CFE2" x="33" y="96" width="42" height="3" rx="1"></rect>
        </g>
    </g>
</svg>