<?xml version="1.0" encoding="UTF-8"?>
<svg width="136px" height="136px" viewBox="0 0 136 136" version="1.1" xmlns="http://www.w3.org/2000/svg" xmlns:xlink="http://www.w3.org/1999/xlink">
    <defs>
        <polygon id="path-1" points="38.807977 15.8155735 38.807977 0.882352941 0.296598157 0.882352941 0.296598157 15.8155735 19.5522876 32.8823529"></polygon>
        <filter x="-9.0%" y="-19.9%" width="118.0%" height="139.9%" filterUnits="objectBoundingBox" id="filter-3">
            <feGaussianBlur stdDeviation="1.15234375" in="SourceGraphic"></feGaussianBlur>
        </filter>
        <path d="M0.534609024,0.294117647 L2.35943751,41.3755224 C2.52977381,45.2132793 4.36883653,48.7723504 7.37225938,51.077335 L16.0309424,57.722585 C18.205933,59.3915444 20.8511277,60.2941176 23.5698659,60.2941176 L31.9464739,60.2941176 C34.6652122,60.2941176 37.3104069,59.3917872 39.4853974,57.722585 L48.1440805,51.077335 C51.1475033,48.7721076 52.9865661,45.2135221 53.1569024,41.3755224 L54.9817308,0.294117647 C54.9817308,0.294117647 0.534609024,0.294117647 0.534609024,0.294117647 Z" id="path-4"></path>
        <filter x="-4.4%" y="-3.3%" width="108.8%" height="106.6%" filterUnits="objectBoundingBox" id="filter-6">
            <feGaussianBlur stdDeviation="0.6640625" in="SourceGraphic"></feGaussianBlur>
        </filter>
    </defs>
    <g id="ico-ods" stroke="none" stroke-width="1" fill="none" fill-rule="evenodd">
        <g id="folder-(1)" transform="translate(13.000000, 6.000000)">
            <g id="hotel">
                <g id="boss">
                    <path d="M103.686115,93.8196673 L77.4569191,87.7004625 C77.0607041,87.6080828 76.6964264,87.4511801 76.3554413,87.2609445 L55.1113512,99.5481629 L34.6957108,86.6666667 C34.167184,87.1599935 33.5111479,87.5266553 32.7660235,87.7007006 L6.53682781,93.8199054 C2.70674907,94.713465 0,98.1019916 0,102.00313 L0,119.796722 C0,122.118358 1.89799012,124 4.23926082,124 L105.982961,124 C108.324472,124 110.222222,122.11812 110.222222,119.796722 L110.222222,102.00313 C110.222702,98.1017535 107.515953,94.7129888 103.686115,93.8196673 Z" id="Shape" fill="#EFF2FA" fill-rule="nonzero"></path>
                    <g id="Shape" transform="translate(35.558824, 71.117647)">
                        <mask id="mask-2" fill="white">
                            <use xlink:href="#path-1"></use>
                        </mask>
                        <use id="Mask" fill="#E6AF78" fill-rule="nonzero" xlink:href="#path-1"></use>
                        <path d="M0.296598157,0.882588129 L0.296598157,16.2151601 C24.5535702,24.6953121 38.807977,3.47153099 38.807977,3.47153099 L38.807977,0.882352941 L0.296598157,0.882352941 L0.296598157,0.882588129 Z" fill="#D29B6E" fill-rule="nonzero" filter="url(#filter-3)" mask="url(#mask-2)"></path>
                    </g>
                    <g id="Shape" transform="translate(27.352941, 23.705882)">
                        <mask id="mask-5" fill="white">
                            <use xlink:href="#path-4"></use>
                        </mask>
                        <use id="Mask" fill="#F0C087" fill-rule="nonzero" xlink:href="#path-4"></use>
                        <path d="M21.6106941,8.86565026 C30.0411758,8.86565026 42.6865403,6.72282779 45.6858808,0.294117647 L0.534609024,0.294117647 L2.3711738,41.3755224 C2.54260562,45.2132793 4.39349617,48.7721076 7.41647416,51.077335 L16.1308451,57.722585 C18.319824,59.3915444 20.9820312,60.2941176 23.7182548,60.2941176 L27.9333763,60.2941176 C23.7182548,60.2941176 15.287773,51.722585 15.287773,41.0084727 C15.287773,35.7683044 15.287773,21.7228278 15.287773,15.2941176 C15.287773,13.1512952 17.3953338,8.86565026 21.6106941,8.86565026 Z" fill="#E6AF78" fill-rule="nonzero" filter="url(#filter-6)" mask="url(#mask-5)"></path>
                    </g>
                    <g id="Group" transform="translate(0.000000, 97.333333)" fill="#E4EAF6" fill-rule="nonzero">
                        <path d="M15.6467633,12.5367273 L1.94110918,0.0804848485 C0.792641546,1.55175758 0.119327536,3.40315152 0.119327536,5.38521212 L0.119327536,22.1449697 C0.119327536,24.5088485 2.01323285,26.4247273 4.34946473,26.4247273 L19.1551845,26.4247273 L19.1551845,20.4964848 C19.1549449,17.4596364 17.8794821,14.5658182 15.6467633,12.5367273 Z" id="Shape"></path>
                        <path d="M94.576657,12.5367273 L108.282311,0.0804848485 C109.430779,1.55175758 110.104093,3.40315152 110.104093,5.38521212 L110.104093,22.1449697 C110.104093,24.5088485 108.210187,26.4247273 105.873956,26.4247273 L91.0682357,26.4247273 L91.0682357,20.4964848 C91.0682357,17.4596364 92.3436986,14.5658182 94.576657,12.5367273 Z" id="Shape"></path>
                    </g>
                    <polygon id="Shape" fill="#5B5D6E" fill-rule="nonzero" points="61.0870147 124 50.4631861 124 51.7911647 104 59.7590361 104"></polygon>
                    <path d="M61.0870147,100 L50.4631861,100 L50.4631861,104.182212 C50.4631861,105.554465 51.5266281,106.666667 52.83872,106.666667 L58.7112401,106.666667 C60.023332,106.666667 61.086774,105.554465 61.086774,104.182212 L61.086774,100 L61.0870147,100 Z" id="Shape" fill="#515262" fill-rule="nonzero"></path>
                    <g id="Group" transform="translate(29.215529, 82.666667)" fill="#E4EAF6" fill-rule="nonzero">
                        <path d="M6.02678023,0.54452381 L25.2323071,17.8338095 C25.2323071,17.8338095 19.8536932,20.5497619 13.216356,26.0238095 C11.8471851,27.1528571 9.77605213,26.6954762 9.04171756,25.0795238 L0.0185666439,5.22380952 L2.87306913,0.941190476 C3.58336228,-0.12547619 5.07440661,-0.312619048 6.02678023,0.54452381 Z" id="Shape"></path>
                        <path d="M44.437596,0.54452381 L25.2320691,17.8338095 C25.2320691,17.8338095 30.610683,20.5497619 37.2480202,26.0238095 C38.6171912,27.1528571 40.6883241,26.6954762 41.4226587,25.0795238 L50.4458096,5.22380952 L47.5913071,0.941190476 C46.8807759,-0.12547619 45.3897316,-0.312619048 44.437596,0.54452381 Z" id="Shape"></path>
                    </g>
                    <path d="M67.7269076,9.30921495 L69.7411983,23.270745 C78.9363441,25.0744276 80.2615162,39.2274274 80.4523565,43.2697774 C80.486922,44.0034262 80.7257158,44.7117685 81.131495,45.3289121 L84.6398904,50.6666667 C84.6398904,50.6666667 83.4391054,41.8418719 88.9372062,35.9149064 C88.9374496,35.9149064 90.8254059,0.879535317 67.7269076,9.30921495 Z" id="Shape" fill="#785550" fill-rule="nonzero"></path>
                    <path d="M87.5055956,50.9095921 L84.9737921,60.6936951 C84.6737359,61.8534725 83.5954645,62.6666667 82.3578915,62.6666667 C80.9978569,62.6666667 79.8509867,61.6885264 79.6822845,60.384912 L78.3872918,50.37769 C78.0407408,47.6990338 80.202365,45.3333333 82.9966224,45.3333333 L82.998655,45.3333333 C86.021067,45.3335788 88.2385864,48.0770353 87.5055956,50.9095921 Z" id="Shape" fill="#F0C087" fill-rule="nonzero"></path>
                    <path d="M29.7722478,5.45938855 L32.8846834,7.59219987 C18.812212,18.0144948 21.4423822,35.8907488 21.4423822,35.8907488 C25.6509406,40.1123713 25.6509406,50.6666667 25.6509406,50.6666667 L29.859499,46.4450442 C29.859499,46.4450442 28.2353397,34.2498304 36.1723366,29.5583151 C43.5374329,25.2046922 49.9818625,27.4475039 56.557884,27.4475039 C74.1814308,27.4475039 79.1135065,20.7850691 78.2586356,12.671586 C77.8161816,8.4733984 71.4172847,-0.271630169 55.1113261,0.00647943507 C48.5307752,0.118631975 36.1728134,2.11729068 29.7722478,5.45938855 Z" id="Shape" fill="#694B4B" fill-rule="nonzero"></path>
                    <path d="M28.4759198,26.3949503 C28.4759198,26.3949503 26.2610728,17.3657767 32.7752592,8 C18.8351128,18.6462369 21.4405512,36.9065947 21.4405512,36.9065947 C25.609536,41.2189264 25.609536,52 25.609536,52 L29.7785209,47.6876683 C29.7785209,47.6876683 28.1696338,35.2304182 36.0319982,30.4380971 C43.3278398,25.9909287 49.7116717,28.2819313 56.2258581,28.2819313 C59.0650847,28.2819313 61.5392239,28.0852944 63.7429719,27.7482027 C50.2985034,28.2142687 42.373087,17.6801514 28.4759198,26.3949503 Z" id="Shape" fill="#5A4146" fill-rule="nonzero"></path>
                    <path d="M24.0446052,50.9095921 L26.5764087,60.6936951 C26.8764649,61.8534725 27.9547363,62.6666667 29.1923093,62.6666667 C30.5523439,62.6666667 31.6992141,61.6885264 31.8679163,60.384912 L33.162909,50.37769 C33.50946,47.6990338 31.3478358,45.3333333 28.5535784,45.3333333 L28.5515458,45.3333333 C25.5291338,45.3335788 23.3116144,48.0770353 24.0446052,50.9095921 Z" id="Shape" fill="#E6AF78" fill-rule="nonzero"></path>
                    <path d="M81.5969321,120 L67.1366689,120 C65.9958082,120 65.0709505,120.895434 65.0709505,122 L65.0709505,124 L83.6626506,124 L83.6626506,122 C83.6626506,120.895661 82.7375588,120 81.5969321,120 Z" id="Shape" fill="#E4EAF6" fill-rule="nonzero"></path>
                </g>
            </g>
        </g>
    </g>
</svg>