<?xml version="1.0" encoding="UTF-8" standalone="no"?>
<svg width="156px" height="36px" viewBox="0 0 156 36" version="1.1" xmlns="http://www.w3.org/2000/svg" xmlns:xlink="http://www.w3.org/1999/xlink" xmlns:sketch="http://www.bohemiancoding.com/sketch/ns">
    <!-- Generator: Sketch 3.2.2 (9983) - http://www.bohemiancoding.com/sketch -->
    <title>Imported Layers@1x</title>
    <desc>Created with Sketch.</desc>
    <defs></defs>
    <g id="MÓDULOS---Navegación-+-footer" stroke="none" stroke-width="1" fill="none" fill-rule="evenodd" sketch:type="MSPage">
        <g id="BAH_dsk_05footer" sketch:type="MSArtboardGroup" transform="translate(-170.000000, -434.000000)">
            <g id="Imported-Layers" sketch:type="MSLayerGroup" transform="translate(170.000000, 434.000000)">
                <path d="M34.8691744,31.1058228 C34.8691744,33.2808608 33.1141744,35.0448608 30.9469535,35.0448608 L4.20882558,35.0448608 C2.0434186,35.0448608 0.287965116,33.2808608 0.287965116,31.1058228 L0.287965116,4.23660759 C0.287965116,2.05974684 2.0434186,0.295291139 4.20882558,0.295291139 L30.9469535,0.295291139 C33.1141744,0.295291139 34.8691744,2.05974684 34.8691744,4.23660759 L34.8691744,31.1058228" id="Fill-1" fill="#6D6E6C" sketch:type="MSShapeGroup"></path>
                <path d="M46.293907,5.63787342 C45.9510698,5.76546835 45.2830814,5.94182278 44.5747326,5.94182278 C43.6677558,5.94182278 42.9752791,5.70941772 42.4660116,5.22182278 C41.9884884,4.76612658 41.7182093,4.05478481 41.7182093,3.23863291 C41.7263721,1.52749367 42.9272093,0.440658228 44.7021628,0.440658228 C45.3619884,0.440658228 45.8794186,0.576455696 46.1265698,0.695848101 L45.9111628,1.4878481 C45.6173023,1.35205063 45.2595,1.25589873 44.6944535,1.25589873 C43.5480349,1.25589873 42.744907,1.93579747 42.744907,3.19078481 C42.744907,4.41432911 43.4922558,5.14207595 44.6064767,5.14207595 C44.9642791,5.14207595 45.219593,5.09422785 45.3461163,5.03863291 L45.3461163,3.68658228 L44.3992326,3.68658228 L44.3992326,2.91144304 L46.293907,2.91144304 L46.293907,5.63787342" id="Fill-2" fill="#FFFFFF" sketch:type="MSShapeGroup"></path>
                <path d="M48.0928953,0.576455696 C48.4665698,0.504 49.0075814,0.456151899 49.5726279,0.456151899 C50.3444651,0.456151899 50.8614419,0.583746835 51.227407,0.888151899 C51.5221744,1.13559494 51.6895116,1.5115443 51.6895116,1.97589873 C51.6895116,2.67083544 51.2192442,3.14248101 50.7099767,3.31883544 L50.7099767,3.34298734 C51.1008837,3.48698734 51.3308023,3.86293671 51.458686,4.38243038 C51.6337326,5.05412658 51.7765814,5.67797468 51.8799767,5.88577215 L50.877314,5.88577215 C50.7979535,5.72536709 50.6632674,5.28607595 50.5195116,4.61437975 C50.3603372,3.91078481 50.114093,3.68658228 49.5567558,3.67063291 L49.0633605,3.67063291 L49.0633605,5.88577215 L48.0928953,5.88577215 L48.0928953,0.576455696 L48.0928953,0.576455696 Z M49.0633605,2.9515443 L49.6447326,2.9515443 C50.3045581,2.9515443 50.7099767,2.59929114 50.7099767,2.06339241 C50.7099767,1.47964557 50.3045581,1.1998481 49.668314,1.1998481 C49.3576744,1.1998481 49.1581395,1.224 49.0633605,1.2476962 L49.0633605,2.9515443 L49.0633605,2.9515443 Z" id="Fill-3" fill="#FFFFFF" sketch:type="MSShapeGroup"></path>
                <path d="M54.3555698,0.496253165 L54.3555698,3.63873418 C54.3555698,4.69412658 54.793186,5.18217722 55.4539186,5.18217722 C56.161814,5.18217722 56.5831047,4.69412658 56.5831047,3.63873418 L56.5831047,0.496253165 L57.562186,0.496253165 L57.562186,3.57493671 C57.562186,5.23777215 56.7109884,5.97372152 55.4221744,5.97372152 C54.1805233,5.97372152 53.3769419,5.27787342 53.3769419,3.58268354 L53.3769419,0.496253165 L54.3555698,0.496253165" id="Fill-4" fill="#FFFFFF" sketch:type="MSShapeGroup"></path>
                <path d="M59.4804419,0.568253165 C59.8382442,0.504 60.3234767,0.456151899 60.9765,0.456151899 C61.6930116,0.456151899 62.2104419,0.607898734 62.5519186,0.89635443 C62.8702674,1.15974684 63.0775116,1.584 63.0775116,2.0875443 C63.0775116,2.59929114 62.9178837,3.01488608 62.6240233,3.30288608 C62.226314,3.69432911 61.6213605,3.88663291 60.9284302,3.88663291 C60.7461279,3.88663291 60.5869535,3.87888608 60.4513605,3.84653165 L60.4513605,5.88577215 L59.4804419,5.88577215 L59.4804419,0.568253165 L59.4804419,0.568253165 Z M60.4513605,3.07093671 C60.5787907,3.11103797 60.7302558,3.11924051 60.9284302,3.11924051 C61.6612674,3.11924051 62.106593,2.75103797 62.106593,2.12718987 C62.106593,1.52749367 61.6930116,1.21579747 61.016407,1.21579747 C60.7461279,1.21579747 60.5547558,1.23994937 60.4513605,1.26364557 L60.4513605,3.07093671 L60.4513605,3.07093671 Z" id="Fill-5" fill="#FFFFFF" sketch:type="MSShapeGroup"></path>
                <path d="M69.4839419,3.13518987 C69.4839419,4.94248101 68.3933023,5.97372152 66.9212791,5.97372152 C65.4016395,5.97372152 64.446593,4.80622785 64.446593,3.23088608 C64.446593,1.56759494 65.4891628,0.400556962 67.001093,0.400556962 C68.5606395,0.400556962 69.4839419,1.59174684 69.4839419,3.13518987 L69.4839419,3.13518987 Z M65.481,3.20673418 C65.481,4.31043038 66.0301744,5.18217722 66.9693488,5.18217722 C67.9162326,5.18217722 68.4490814,4.29448101 68.4490814,3.16663291 C68.4490814,2.15134177 67.9479767,1.19164557 66.9693488,1.19164557 C65.9984302,1.19164557 65.481,2.09574684 65.481,3.20673418 L65.481,3.20673418 Z" id="Fill-6" fill="#FFFFFF" sketch:type="MSShapeGroup"></path>
                <path d="M47.7500581,24.0470886 L47.7500581,29.9128101 C47.7500581,31.3897215 47.8525465,32.3457722 48.0593372,32.7800506 C48.2647674,33.2147848 49.0928372,33.4307848 50.5426395,33.4307848 L50.5426395,35.0826835 L40.1772558,35.0826835 L40.1772558,33.4307848 C41.7449651,33.4307848 42.530407,32.9454684 42.530407,31.9752911 L42.606593,29.9109873 L42.606593,14.3767595 L42.530407,12.2978734 C42.530407,11.4279494 41.7449651,10.9476456 40.1772558,10.8583291 L40.1772558,9.20460759 L47.7568605,9.20460759 L49.1458953,9.19048101 L50.6410465,9.12896203 L51.8650116,9.09888608 C56.5744884,9.09888608 58.9294535,11.3263291 58.9294535,15.7848608 C58.9294535,21.2937722 55.6666047,24.0470886 49.1404535,24.0470886 L47.7500581,24.0470886 L47.7500581,24.0470886 Z M47.7500581,22.3947342 L48.5686047,22.3947342 C52.0459535,22.3947342 53.7850814,20.3053671 53.7850814,16.1257215 C53.7850814,12.6127595 52.2731512,10.8583291 49.2479302,10.8583291 L47.7500581,10.8583291 L47.7500581,22.3947342 L47.7500581,22.3947342 Z" id="Fill-7" fill="#FFFFFF" sketch:type="MSShapeGroup"></path>
                <path d="M60.996907,35.0826835 L60.996907,33.4307848 C62.5655233,33.4307848 63.3500581,32.9454684 63.3500581,31.9752911 L63.4262442,29.9109873 L63.4262442,14.3767595 L63.3500581,12.2978734 C63.3500581,11.3372658 62.5655233,10.8583291 60.996907,10.8583291 L60.996907,9.20460759 L70.9999535,9.20460759 L70.9999535,10.8583291 C69.4299767,10.8583291 68.6449884,11.3372658 68.6449884,12.2978734 L68.5706163,14.3767595 L68.5706163,29.9109873 L68.6449884,31.9752911 C68.6449884,32.9454684 69.4299767,33.4307848 70.9999535,33.4307848 L70.9999535,35.0826835 L60.996907,35.0826835" id="Fill-8" fill="#FFFFFF" sketch:type="MSShapeGroup"></path>
                <path d="M90.8845116,35.2964051 L77.999093,17.6213165 L77.999093,29.9137215 L78.0752791,31.9762025 C78.0752791,32.9454684 78.8584535,33.4307848 80.4270698,33.4307848 L80.4270698,35.0826835 L72.990314,35.0826835 L72.990314,33.4307848 C74.1834419,33.4307848 74.8877093,33.2202532 75.1003953,32.8010127 C75.3126279,32.3817722 75.4196512,31.4188861 75.4196512,29.9109873 L75.4196512,14.3767595 C75.4196512,12.8706835 75.3126279,11.9064304 75.1003953,11.4867342 C74.8877093,11.0665823 74.1834419,10.8583291 72.990314,10.8583291 L72.990314,9.20460759 L77.999093,9.20460759 L90.8845116,26.8787848 L90.8845116,14.3781266 L90.7924535,12.2978734 C90.7924535,11.3381772 90.012,10.8583291 88.4533605,10.8583291 L88.4533605,9.20460759 L95.8914767,9.20460759 L95.8914767,10.8583291 C94.3319302,10.8583291 93.5523837,11.3372658 93.5523837,12.2978734 L93.4621395,14.3767595 L93.4621395,35.2964051 L90.8845116,35.2964051" id="Fill-9" fill="#FFFFFF" sketch:type="MSShapeGroup"></path>
                <path d="M77.6979767,6.62718987 L76.0531744,6.62718987 C76.0531744,3.16207595 77.5560349,1.42860759 80.5631163,1.42860759 C81.6174767,1.42860759 82.5747907,1.67513924 83.4287093,2.17093671 L84.9991395,3.08005063 C86.0847907,3.71665823 86.8951744,4.03427848 87.4284767,4.03427848 C88.8959651,4.03427848 89.7072558,3.16663291 89.856907,1.42860759 L91.5017093,1.42860759 C91.5017093,4.89372152 89.9988488,6.62718987 86.9899535,6.62718987 C85.9351395,6.62718987 84.9787326,6.37974684 84.123907,5.87939241 L82.5543837,4.96435443 C81.4682791,4.33458228 80.6588023,4.01924051 80.126407,4.01924051 C78.6571047,4.01924051 77.8485349,4.88870886 77.6979767,6.62718987" id="Fill-10" fill="#FFFFFF" sketch:type="MSShapeGroup"></path>
                <path d="M97.520407,35.0826835 L97.520407,33.4307848 C99.0872093,33.4307848 99.8735581,32.9454684 99.8735581,31.9752911 L99.9488372,29.9109873 L99.9488372,14.3767595 L99.8735581,12.2978734 C99.8735581,11.3372658 99.0872093,10.8583291 97.520407,10.8583291 L97.520407,9.20460759 L113.754837,9.20460759 L113.754837,13.7529114 L112.110035,13.7529114 L112.110035,13.3286582 L112.078744,12.1752911 C112.078744,11.2962532 111.338651,10.8583291 109.857558,10.8583291 L105.094116,10.8583291 L105.094116,20.5897215 L107.893047,20.5897215 L109.195012,20.5436962 C109.830349,20.5436962 110.147337,20.1659241 110.147337,19.4076456 L110.147337,18.787443 L111.791233,18.787443 L111.791233,23.9554937 L110.147337,23.9554937 L110.147337,23.3193418 C110.147337,22.572 109.830349,22.1978734 109.195012,22.1978734 L107.893047,22.1518481 L105.094116,22.1518481 L105.094116,29.9128101 C105.094116,31.3282025 105.174837,32.2678481 105.336733,32.7340253 C105.497267,33.1979241 106.39336,33.4307848 108.026826,33.4307848 L109.29614,33.4307848 L111.232988,33.3701772 C111.817535,33.3701772 112.158558,33.2184304 112.260593,32.9149367 C112.36036,32.6118987 112.412058,31.9206076 112.412058,30.8383291 L112.412058,30.3238481 L114.266826,30.3238481 L114.266826,35.0826835 L97.520407,35.0826835" id="Fill-11" fill="#FFFFFF" sketch:type="MSShapeGroup"></path>
                <path d="M115.912535,35.0826835 L115.912535,33.4307848 C117.479337,33.4307848 118.264779,32.9454684 118.264779,31.9752911 L118.339151,29.9109873 L118.339151,14.3767595 L118.264779,12.2978734 C118.264779,11.3372658 117.479337,10.8583291 115.912535,10.8583291 L115.912535,9.20460759 L123.490326,9.20460759 L124.502058,9.19048101 L125.861616,9.12896203 L127.296453,9.09888608 C131.97736,9.09888608 134.31736,11.1969114 134.31736,15.3906835 C134.31736,18.7878987 132.884337,21.1228861 130.019198,22.396557 L133.528291,30.2623291 C134.368151,32.1425316 135.263337,33.2184304 136.217477,33.4909367 L136.217477,35.0826835 L130.358407,35.0826835 L125.131953,23.2888101 L123.48443,23.2888101 L123.48443,29.9128101 L123.559709,31.9762025 C123.559709,32.5216709 123.640884,32.8771139 123.809581,33.0448101 C123.973291,33.2115949 124.550581,33.3391899 125.536465,33.4307848 L125.536465,35.0826835 L115.912535,35.0826835 L115.912535,35.0826835 Z M123.48443,10.8583291 L123.48443,21.6355443 L124.30343,21.6355443 C127.55086,21.6355443 129.173442,19.6719494 129.173442,15.7456709 C129.173442,12.4869873 127.735884,10.8583291 124.865302,10.8583291 L123.48443,10.8583291 L123.48443,10.8583291 Z" id="Fill-12" fill="#FFFFFF" sketch:type="MSShapeGroup"></path>
                <path d="M146.537058,35.7047089 C143.810686,35.7047089 141.648453,34.4820759 140.049907,32.0368101 C138.45136,29.5906329 137.651407,26.290481 137.651407,22.1372658 C137.651407,17.953519 138.456349,14.6478987 140.064872,12.2217722 C141.674302,9.79610127 143.870093,8.58440506 146.656326,8.58440506 C149.443919,8.58440506 151.643337,9.79427848 153.257756,12.2153924 C154.871721,14.6337722 155.678477,17.9220759 155.678477,22.0762025 C155.678477,26.352 154.869907,29.6913418 153.249593,32.096962 C151.63064,34.5025823 149.393581,35.7047089 146.537058,35.7047089 L146.537058,35.7047089 Z M146.718453,33.9470886 C148.982267,33.9470886 150.112814,29.9337722 150.112814,21.9085063 C150.112814,14.1985823 148.9605,10.3415696 146.656326,10.3415696 C144.363488,10.3415696 143.217977,14.2692152 143.217977,22.1208608 C143.217977,30.0053165 144.384802,33.9470886 146.718453,33.9470886 L146.718453,33.9470886 Z" id="Fill-13" fill="#FFFFFF" sketch:type="MSShapeGroup"></path>
                <path d="M31.705186,18.5996962 C31.5759419,18.3549873 31.4095116,18.0692658 31.2072558,17.7972152 C30.7193023,17.1432911 30.2118488,16.807443 29.1819767,16.7618734 C27.8736628,16.7363544 27.1675814,17.3743291 26.4519767,17.7935696 C25.8710581,18.133519 25.348186,18.1244051 25.0280233,17.953519 C24.9305233,17.9038481 24.8221395,17.8213671 24.7876744,17.7069873 C24.7523023,17.2066329 24.666593,16.7194937 24.5350814,16.2514937 C24.5078721,16.0195443 24.7595581,16.0127089 24.7940233,16.0067848 C25.2651977,15.9438987 25.8375,15.7834937 26.1286395,15.6513418 C26.6478837,15.4143797 27.3068023,14.8812152 27.7920349,14.4966076 C28.2704651,14.1106329 28.8187326,13.7597468 29.388314,13.6048101 C29.7007674,13.5195949 30.2277209,13.5232405 30.6467442,13.5446582 C30.6467442,13.5446582 30.8521744,13.536 30.8993372,13.4065823 C30.9406047,13.2940253 30.8086395,13.1696203 30.7732674,13.135443 C30.5623953,12.9613671 30.2998256,12.7594937 30.0127674,12.5886076 C29.309407,12.1693671 28.7112558,12.055443 27.7435116,12.4086076 C26.5263488,12.8875443 26.1145814,13.7478987 25.6148372,14.4127595 C25.2066977,14.9491139 24.7223721,15.1418734 24.3582209,15.1067848 C24.2421279,15.0958481 24.0951977,15.0562025 24.0267209,14.9482025 C23.8194767,14.5357975 23.5727791,14.1461772 23.2934302,13.7848101 C23.2784651,13.7597468 23.2671279,13.7410633 23.2589651,13.7319494 C23.1374302,13.5232405 23.3723372,13.4170633 23.4027209,13.3983797 C23.8126744,13.1591392 24.279314,12.7886582 24.4988023,12.5548861 C24.8878953,12.1402025 25.2942209,11.3933165 25.5953372,10.8496709 C25.8905581,10.3119494 26.2669535,9.77605063 26.732686,9.41103797 C26.988907,9.21281013 27.4786744,9.01367089 27.8718488,8.87194937 L27.8718488,8.87103797 C27.8718488,8.87103797 28.0577791,8.78582278 28.0541512,8.64820253 C28.0496163,8.52926582 27.8781977,8.46455696 27.8346628,8.4476962 C27.5725465,8.36567089 27.2528372,8.28273418 26.9204302,8.23351899 C26.1127674,8.11777215 25.5168837,8.24172152 24.7595581,8.9403038 C23.8144884,9.8521519 23.7655116,10.8022785 23.5514651,11.6106835 C23.3827674,12.2636962 23.0059186,12.6268861 22.6585465,12.7344304 C22.5342907,12.7745316 22.3633256,12.7945823 22.2581163,12.6893165 L22.2581163,12.6966076 C21.9284302,12.4158987 21.5751628,12.1625316 21.1969535,11.9424304 C21.1588605,11.9155443 21.1325581,11.8959494 21.1198605,11.8863797 C20.9257674,11.740557 21.1012674,11.5528101 21.1225814,11.5222785 C21.4105465,11.1463291 21.7007791,10.624557 21.8155116,10.3242532 C22.0155,9.78972152 22.1066512,8.94212658 22.1783023,8.32693671 C22.2481395,7.71402532 22.3882674,7.07741772 22.6830349,6.55929114 C22.8435698,6.27767089 23.2208721,5.90536709 23.5292442,5.62329114 C23.5292442,5.62329114 23.6680116,5.4715443 23.6122326,5.34713924 C23.5609884,5.23777215 23.379593,5.24324051 23.3324302,5.24551899 C23.0598837,5.27149367 22.7311047,5.31797468 22.4068605,5.40091139 C21.6186977,5.60232911 21.1130581,5.94637975 20.6763488,6.88420253 C20.1543837,8.0881519 20.4691047,8.98860759 20.5824767,9.81432911 C20.671814,10.4832911 20.4627558,10.9635949 20.1838605,11.1973671 C20.0818256,11.2821266 19.9321744,11.3664304 19.7974884,11.3090127 L19.7983953,11.3167595 C19.4025,11.1887089 18.9889186,11.0943797 18.5644535,11.0351392 C18.503686,11.0196456 18.4574302,11.0096203 18.4379302,11.0050633 C18.2043837,10.944 18.2937209,10.7043038 18.3032442,10.6687595 C18.426593,10.208962 18.4964302,9.61427848 18.486907,9.29437975 C18.4696744,8.72339241 18.231593,7.90450633 18.0606279,7.30891139 C17.8923837,6.71650633 17.7790116,6.0721519 17.8542907,5.48156962 C17.8941977,5.1603038 18.1014419,4.66997468 18.2796628,4.29129114 C18.2796628,4.29129114 18.350407,4.09807595 18.2483721,4.00465823 C18.1608488,3.92582278 17.996686,3.99691139 17.9563256,4.0196962 C17.7118953,4.14774684 17.4257442,4.31407595 17.159093,4.51686076 C16.5051628,5.00810127 16.1695814,5.5198481 16.1260465,6.5524557 C16.0988372,7.86622785 16.7337209,8.57665823 17.1518372,9.29620253 C17.4910465,9.87949367 17.4815233,10.404 17.3114651,10.7275443 C17.255686,10.8341772 17.1663488,10.964962 17.0384651,10.9863797 C16.5949535,11.0196456 16.163686,11.0934684 15.7482907,11.2019241 C15.6906977,11.211038 15.6444419,11.216962 15.6267558,11.221519 C15.3877674,11.2552405 15.3768837,10.9995949 15.3732558,10.9608608 C15.3133953,10.4892152 15.1492326,9.91321519 15.0190814,9.62020253 C14.7855349,9.09979747 14.2522326,8.43858228 13.8694884,7.95417722 C13.4867442,7.46840506 13.1380116,6.91655696 12.9829186,6.34420253 C12.8976628,6.03159494 12.9003837,5.49934177 12.9216977,5.07918987 C12.9216977,5.07964557 12.9139884,4.87412658 12.7861047,4.82810127 C12.6754535,4.78481013 12.5507442,4.91832911 12.5176395,4.95432911 C12.342593,5.16622785 12.1430581,5.43007595 11.971186,5.72035443 C11.5557907,6.42440506 11.4406047,7.02546835 11.7943256,7.99746835 C12.2691279,9.22283544 13.125314,9.63387342 13.7860465,10.1374177 C14.3211628,10.5461772 14.5134419,11.0351392 14.4789767,11.3996962 C14.467186,11.5168101 14.4381628,11.6658228 14.3361279,11.7369114 C13.9402326,11.9351392 13.5638372,12.1730127 13.2123837,12.4405063 C13.163407,12.4683038 13.125314,12.4942785 13.1094419,12.5038481 C12.9021977,12.6268861 12.7960814,12.3926582 12.7783953,12.358481 C12.5398605,11.9469873 12.1725349,11.4771646 11.9403488,11.2593418 C11.5240465,10.8665316 10.781686,10.4577722 10.2415814,10.156557 C9.70465116,9.85898734 9.17180233,9.48212658 8.81037209,9.01367089 C8.61627907,8.75893671 8.41447674,8.26496203 8.27344186,7.86759494 C8.27344186,7.86759494 8.18773256,7.68167089 8.05032558,7.68850633 C7.93151163,7.69351899 7.86802326,7.8598481 7.85215116,7.90632911 C7.7687093,8.17108861 7.6870814,8.49189873 7.64037209,8.82546835 C7.52065116,9.63387342 7.64626744,10.2353924 8.34101163,10.9995949 C9.24798837,11.9451646 10.1953256,11.9975696 10.998,12.2108354 C11.6478488,12.3803544 12.010186,12.7576709 12.1176628,13.1099241 C12.1530349,13.2179241 12.1802442,13.3614684 12.1176628,13.4671899 C11.8174535,13.8157975 11.5489884,14.1917468 11.3158953,14.5927595 C11.2982093,14.6210127 11.2814302,14.6428861 11.2750814,14.6547342 C11.1281512,14.8479494 10.941314,14.6738734 10.9118372,14.6497215 C10.5363488,14.3608101 10.0184651,14.0668861 9.71825581,13.9552405 C9.18676744,13.752 8.34418605,13.6594937 7.73243023,13.5915949 C7.12022093,13.520962 6.48533721,13.3801519 5.97334884,13.0848608 C5.69263953,12.9235443 5.31987209,12.5448608 5.04233721,12.2327089 C5.04233721,12.2327089 4.88996512,12.0928101 4.76525581,12.1502278 C4.65777907,12.2012658 4.66322093,12.3821772 4.66594186,12.4309367 C4.68906977,12.7052658 4.73577907,13.0338228 4.81740698,13.3628354 C5.0192093,14.1548354 5.36113953,14.6606582 6.29577907,15.0976709 C7.49298837,15.6249114 8.38772093,15.3077468 9.20898837,15.1947342 C9.87743023,15.1031392 10.3558605,15.3136709 10.5871395,15.5962025 C10.6524419,15.6759494 10.7277209,15.7875949 10.726814,15.8974177 C10.5730814,16.3553924 10.4628837,16.8334177 10.4007558,17.3242025 C10.3993953,17.3333165 10.3975814,17.3424304 10.3957674,17.3492658 C10.3345465,17.5844051 10.0955581,17.4950886 10.062907,17.4846076 C9.60306977,17.3620253 9.01217442,17.2913924 8.69246512,17.2995949 C8.12560465,17.3169114 7.30887209,17.5566076 6.71888372,17.7279494 C6.12934884,17.8988354 5.4872093,18.0095696 4.89994186,17.9352911 C4.58113953,17.8951899 4.09273256,17.6869367 3.71543023,17.5101266 C3.71543023,17.5101266 3.52315116,17.4385823 3.43063953,17.5370127 C3.34901163,17.624962 3.42156977,17.7912911 3.4437907,17.8341266 C3.57031395,18.0806582 3.73855814,18.3663797 3.93854651,18.6366076 C4.42604651,19.291443 4.93803488,19.6295696 5.967,19.6733165 C7.27259302,19.6992911 7.97776744,19.0608608 8.69518605,18.6416203 C9.27610465,18.3021266 9.79761628,18.3116962 10.1209535,18.4821266 C10.2098372,18.5286076 10.3168605,18.5987848 10.3613023,18.6981266 C10.3930465,19.2167089 10.4805698,19.7188861 10.6143488,20.1991899 C10.6243256,20.4147342 10.3894186,20.4238481 10.3531395,20.4279494 C9.88287209,20.4922025 9.31056977,20.6530633 9.02033721,20.7838481 C8.50018605,21.0212658 7.83945349,21.5544304 7.35784884,21.9404051 C6.87669767,22.324557 6.32933721,22.6763544 5.75794186,22.8303797 C5.44730233,22.9160506 4.91853488,22.9137722 4.49860465,22.8918987 C4.49860465,22.8918987 4.29680233,22.8996456 4.2469186,23.0286076 C4.20701163,23.1407089 4.33625581,23.2669367 4.37344186,23.296557 C4.58431395,23.4751899 4.84824419,23.6747848 5.13711628,23.8465823 C5.83866279,24.2649114 6.43454651,24.3797468 7.40546512,24.0247595 C8.62172093,23.5476456 9.03167442,22.6854684 9.53277907,22.0242532 C9.94137209,21.4860759 10.4247907,21.2942278 10.7898488,21.3297722 C10.882814,21.3347848 10.999814,21.3593924 11.076907,21.4236456 C11.3077326,21.8952911 11.5852674,22.3364051 11.9076977,22.7437975 C11.9802558,22.927443 11.7757326,23.0199494 11.7462558,23.0372658 C11.3335814,23.2751392 10.8669419,23.647443 10.647,23.8812152 C10.2601744,24.295443 9.85203488,25.0441519 9.55318605,25.5850633 C9.2547907,26.1241519 8.88111628,26.6582278 8.41447674,27.0241519 C8.15916279,27.2214684 7.67030233,27.4228861 7.27440698,27.5636962 C7.27440698,27.5636962 7.0902907,27.6502785 7.09437209,27.787443 C7.09890698,27.9041013 7.26896512,27.9729114 7.3125,27.9874937 C7.57552326,28.0699747 7.89523256,28.1524557 8.22763953,28.2025823 C9.03348837,28.3183291 9.62937209,28.1948354 10.3894186,27.4948861 C11.3326744,26.5844051 11.3825581,25.6301772 11.5938837,24.8254177 C11.7648488,24.1719494 12.1403372,23.8092152 12.4895233,23.7007595 C12.5788605,23.6725063 12.6904186,23.6483544 12.7861047,23.6747848 C13.1779186,24.0247595 13.609186,24.3318987 14.0721977,24.5902785 C14.1891977,24.7278987 14.0449884,24.8851139 14.0245814,24.9110886 C13.7338953,25.2897722 13.4450233,25.8101772 13.3316512,26.1113924 C13.1307558,26.6450127 13.0414186,27.4921519 12.9697674,28.1082532 C12.9003837,28.7211646 12.7579884,29.3586835 12.4654884,29.875443 C12.305407,30.1556962 11.9271977,30.5284557 11.6179186,30.8109873 C11.6179186,30.8109873 11.4805116,30.9631899 11.5353837,31.0885063 C11.5852674,31.1946835 11.7666628,31.1914937 11.8147326,31.1892152 C12.0863721,31.1646076 12.4151512,31.1163038 12.7403023,31.0361013 C13.5302791,30.8342278 14.0350116,30.4888101 14.468093,29.5518987 C14.9950465,28.3474937 14.6771512,27.4465823 14.565593,26.6226835 C14.4771628,25.9537215 14.6835,25.4734177 14.9642093,25.2382785 C15.0313256,25.1808608 15.1193023,25.1202532 15.2140814,25.102481 C15.7115581,25.2742785 16.2308023,25.3927595 16.769093,25.4538228 C16.924186,25.5385823 16.8516279,25.7345316 16.8439186,25.7664304 C16.7205698,26.2271392 16.6525465,26.8204557 16.6593488,27.1412658 C16.6788488,27.7149873 16.9164767,28.5288608 17.0856279,29.1253671 C17.255686,29.7191392 17.3681512,30.3639494 17.2937791,30.9536203 C17.2520581,31.2739747 17.0475349,31.7633924 16.866593,32.143443 C16.866593,32.143443 16.7967558,32.3362025 16.8969767,32.4291646 C16.983593,32.5084557 17.1509302,32.436 17.1926512,32.4145823 C17.4352674,32.2860759 17.7232326,32.1192911 17.9898837,31.916962 C18.6406395,31.4284557 18.9784884,30.9162532 19.0224767,29.8804557 C19.0483256,28.5680506 18.4148023,27.8585316 17.9962326,27.1389873 C17.6565698,26.5556962 17.6656395,26.0311899 17.8366047,25.7062785 C17.8819535,25.621519 17.9490698,25.5281013 18.0375,25.4838987 C18.5744302,25.4515443 19.0927674,25.3581266 19.5911512,25.2118481 C19.7621163,25.236 19.7702791,25.441519 19.7734535,25.4734177 C19.8355814,25.9459747 19.9970233,26.5192405 20.1289884,26.8140759 C20.3634419,27.3326582 20.8922093,27.9979747 21.2785814,28.4828354 C21.6604186,28.9654177 22.0100581,29.5190886 22.1633372,30.0905316 C22.2481395,30.4045063 22.2449651,30.9340253 22.2254651,31.356 C22.2254651,31.356 22.2331744,31.5592405 22.3615116,31.608 C22.4726163,31.6476456 22.5973256,31.5168608 22.6272558,31.4822278 C22.8054767,31.2698734 23.0041047,31.0042025 23.1764302,30.7143797 C23.5927326,30.0103291 23.7061047,29.4083544 23.3528372,28.4372658 C22.8762209,27.2146329 22.0209419,26.8022278 21.3606628,26.2959494 C20.825093,25.8894684 20.6364419,25.3995949 20.668186,25.0373165 C20.6763488,24.9411646 20.7035581,24.8299747 20.768407,24.7525063 C21.2404884,24.5196456 21.684907,24.2366582 22.091686,23.9081013 C22.2644651,23.8515949 22.3519884,24.0470886 22.3696744,24.0748861 C22.6063953,24.4891139 22.9746279,24.9566582 23.2077209,25.1767595 C23.6222093,25.5686582 24.3663837,25.9774177 24.9037674,26.2781772 C25.4438721,26.5766582 25.9744535,26.9516962 26.3349767,27.4228861 C26.5326977,27.6776203 26.732686,28.1711392 26.8755349,28.5680506 L26.8755349,28.5653165 C26.8755349,28.5653165 26.9594302,28.753519 27.0950233,28.7480506 C27.2147442,28.7439494 27.2800465,28.573519 27.2950116,28.5288608 C27.3766395,28.264557 27.4609884,27.9432911 27.5086047,27.6097215 C27.6256047,26.7994937 27.5008953,26.1988861 26.8043372,25.4378734 C25.9009884,24.4891139 24.9513837,24.4376203 24.1500698,24.2275443 C23.4988605,24.0530127 23.1365233,23.677519 23.030407,23.3275443 C23.0022907,23.2359494 22.9827907,23.1142785 23.0181628,23.0181266 C23.3582791,22.6271392 23.6539535,22.1974177 23.9074535,21.7408101 C24.0480349,21.6127595 24.2103837,21.7645063 24.2348721,21.7854684 C24.6121744,22.0752911 25.1296047,22.3673924 25.428907,22.4781266 C25.9594884,22.6827342 26.8043372,22.7761519 27.4147326,22.8445063 C28.0260349,22.9151392 28.6618256,23.0568608 29.1756279,23.3516962 C29.4545233,23.5116456 29.8263837,23.8912405 30.1066395,24.1997468 C30.1066395,24.1997468 30.2571977,24.3414684 30.381907,24.2835949 C30.4871163,24.2348354 30.4848488,24.0521013 30.4830349,24.0042532 C30.457186,23.7290127 30.4127442,23.4013671 30.3279419,23.0728101 C30.128407,22.2812658 29.7860233,21.7745316 28.8522907,21.3347848 C27.6546279,20.8107342 26.7576279,21.127443 25.9372674,21.2395443 C25.2697326,21.3311392 24.7922093,21.1224304 24.5609302,20.8389873 C24.4947209,20.7619747 24.431686,20.6585316 24.431686,20.5528101 C24.591314,20.0747848 24.7028721,19.5744304 24.7604651,19.0581266 C24.8339302,18.8589873 25.0543256,18.9423797 25.0869767,18.951038 C25.544093,19.0740759 26.1349884,19.1451646 26.4565116,19.1346835 C27.0233721,19.1164557 27.8373837,18.8785823 28.4269186,18.7067848 C29.0187209,18.5377215 29.6617674,18.4247089 30.2472209,18.4985316 C30.5651163,18.5422785 31.0517093,18.7487089 31.432186,18.9273418 C31.432186,18.9273418 31.6244651,18.9988861 31.7174302,18.8986329 C31.7981512,18.8097722 31.724686,18.643443 31.705186,18.5996962 L31.705186,18.5996962 Z M19.4868488,23.5945823 C19.4256279,23.5945823 19.3635,23.559038 19.3353837,23.4979747 C19.2981977,23.4177722 19.325407,23.3216203 19.4025,23.2760506 C19.5752791,23.1739747 19.7734535,23.0422785 19.9970233,22.8622785 C21.4645116,21.6861266 22.1560814,20.2046582 22.055407,18.457519 C21.9143721,15.9972152 19.8464651,13.9939747 17.4425233,13.9939747 C17.3033023,13.9939747 17.1636279,14.0003544 17.0235,14.014481 C15.5020465,14.1566582 14.564686,15.0274937 14.1420349,15.5319494 C13.3806279,16.441519 13.0491279,17.4613671 13.1566047,18.5659747 C13.3479767,20.5190886 14.915686,21.9941772 16.8031047,21.9941772 C16.9332558,21.9941772 17.063407,21.9859747 17.1926512,21.9727595 C18.0932791,21.8793418 18.9517326,21.3967595 19.4877558,20.6763038 C19.8968023,20.1317468 20.2555116,19.1665823 20.0323953,18.0961519 C19.7956744,16.9473418 18.6778256,15.9849114 17.5459186,15.9548354 L17.5427442,15.9548354 C16.5772674,15.9548354 15.7632558,16.4255696 15.3460465,17.1847595 C14.9791744,17.851443 14.9882442,18.616557 15.3750698,19.2312911 C15.5664419,19.5416203 16.1369302,19.9973165 16.6294186,20.036962 C16.6738605,20.0419747 16.7205698,20.0419747 16.7650116,20.0419747 C17.5799302,20.0419747 18.1118721,19.4363544 18.1581279,18.8526076 C18.1980349,18.3613671 17.8996395,18.0082025 17.3840233,17.9252658 C17.3182674,17.9457722 17.372686,17.9863291 17.4017093,18.0095696 C17.7259535,18.288 17.7921628,18.612 17.6211977,18.9063797 C17.4883256,19.1314937 17.2030814,19.2732152 16.8747558,19.2732152 C16.5949535,19.2732152 16.3292093,19.1656709 16.1482674,18.976557 C15.9482791,18.7696709 15.851686,18.4821266 15.8634767,18.1221266 C15.8852442,17.4613671 16.5151395,16.7545823 17.4221163,16.7545823 C17.5318605,16.7545823 17.6425116,16.7636962 17.7540698,16.7837468 C18.2352209,16.8730633 18.6959651,17.2116456 18.9871047,17.6914937 C19.3086279,18.2228354 19.3857209,18.8471392 19.2034186,19.4463797 C18.9172674,20.3924051 18.1127791,21.0522532 17.1101163,21.1721013 C17.0085349,21.1812152 16.9019651,21.1871392 16.7985698,21.1871392 C16.0208372,21.1871392 15.2671395,20.8376203 14.723407,20.2288101 C14.1388605,19.5666835 13.8640465,18.6767089 13.9660814,17.7899241 C14.1229884,16.4406076 15.2385698,14.9883038 17.0670349,14.8201519 C17.1795,14.8101266 17.295593,14.8055696 17.4098721,14.8055696 C19.3802791,14.8055696 21.0259884,16.323038 21.2359535,18.3385823 C21.3901395,19.8063797 20.7525349,20.9123544 20.1906628,21.5845063 C19.6392209,22.2411646 18.6524302,23.0436456 17.0679419,23.1284051 C16.9872209,23.132962 16.9065,23.1347848 16.826686,23.1347848 C14.567407,23.1347848 12.5294302,21.4291139 12.0827442,19.1656709 C12.0051977,18.8548861 11.9997558,18.6634937 11.9897791,18.2838987 C12.0845581,15.7502278 13.7533953,12.9782278 17.1872093,12.8529114 L17.4035233,12.8492658 C19.1263256,12.8492658 20.3616279,13.5829367 21.0944651,14.199038 C22.1093721,15.0530127 22.7506047,16.1521519 23.1120349,17.6545823 C23.183686,17.9530633 23.2136163,18.2442532 23.2136163,18.6598481 C23.1297209,20.704557 22.0377209,21.9695696 21.1357326,22.6745316 C20.5221628,23.1539241 19.9358023,23.4332658 19.5485233,23.5831899 C19.5299302,23.5909367 19.5086163,23.5945823 19.4868488,23.5945823 L19.4868488,23.5945823 Z" id="Fill-14" fill="#FFFFFF" sketch:type="MSShapeGroup"></path>
            </g>
        </g>
    </g>
</svg>