<?xml version="1.0" encoding="UTF-8"?>
<svg width="76px" height="82px" viewBox="0 0 76 82" version="1.1" xmlns="http://www.w3.org/2000/svg" xmlns:xlink="http://www.w3.org/1999/xlink">
    <g id="arrow-left" stroke="none" stroke-width="1" fill="none" fill-rule="evenodd">
        <path d="M44.2677292,48.7303177 C44.7393999,49.2019884 45,49.8274287 45,50.4960938 C45,51.1647588 44.7393999,51.7901991 44.2677292,52.2618698 C44.0165434,52.5130556 43.7156471,52.7107875 43.3740279,52.8366472 C43.0970315,52.9386985 42.8039802,52.9941406 42.5019531,52.9941406 C42.2001589,52.9941406 41.9026592,52.9407433 41.6201127,52.8366472 C41.2784935,52.7107875 40.9775973,52.5130556 40.7264114,52.2618698 L31.7322708,43.2677292 C31.258117,42.7935754 31,42.1654907 31,41.4970703 C31,40.8286499 31.258117,40.2005653 31.7322708,39.7264114 L40.7264114,30.7322708 C41.2005653,30.258117 41.8286499,30 42.4970703,30 C43.1654907,30 43.7935754,30.258117 44.2677292,30.7322708 C44.7393999,31.2039415 45,31.8293818 45,32.4980469 C45,33.166712 44.7393999,33.7921522 44.2677292,34.2638229 L37.0303977,41.5011544 L44.2677292,48.7303177 Z" id="chevron-left" fill="#FFFFFF" fill-rule="nonzero"></path>
    </g>
</svg>