<?xml version="1.0" encoding="UTF-8"?>
<svg width="24px" height="25px" viewBox="0 0 24 25" version="1.1" xmlns="http://www.w3.org/2000/svg" xmlns:xlink="http://www.w3.org/1999/xlink">
    <g id="desktop" stroke="none" stroke-width="1" fill="none" fill-rule="evenodd" stroke-linecap="round" stroke-linejoin="round">
        <g id="graph" transform="translate(0.000000, 1.000000)" stroke="#404C58" stroke-width="1.5">
            <path d="M0.749,22.32 L22.499,22.32" id="Shape"></path>
            <path d="M2.749,18 L5.5,18 C5.77614237,18 6,18.2149033 6,18.48 L6,22.32 L2.249,22.32 L2.249,18.48 C2.249,18.2149033 2.47285763,18 2.749,18 Z" id="Shape"></path>
            <path d="M10.249,9.36 L13,9.36 C13.2761424,9.36 13.5,9.57490332 13.5,9.84 L13.5,22.32 L9.749,22.32 L9.749,9.84 C9.749,9.57490332 9.97285763,9.36 10.249,9.36 Z" id="Shape"></path>
            <path d="M17.749,13.68 L20.5,13.68 C20.7761424,13.68 21,13.8949033 21,14.16 L21,22.32 L17.25,22.32 L17.25,14.16 C17.2499994,13.8952778 17.4732482,13.6805294 17.749,13.68 Z" id="Shape"></path>
            <path d="M6.883,4.91616 L2.866,8.76864" id="Shape"></path>
            <path d="M14.311,6.072 L9.637,4.872" id="Shape"></path>
            <path d="M20.392,2.77344 L16.811,5.46144" id="Shape"></path>
            <ellipse id="Oval" cx="8.249" cy="4.32096" rx="1.5" ry="1.44"></ellipse>
            <ellipse id="Oval" cx="21.75" cy="2.16" rx="1.5" ry="1.44"></ellipse>
            <ellipse id="Oval" cx="15.75" cy="6.48" rx="1.5" ry="1.44"></ellipse>
            <ellipse id="Oval" cx="2.249" cy="10.08096" rx="1.5" ry="1.44"></ellipse>
        </g>
    </g>
</svg>